<?xml version="1.0" standalone="no"?>
<!DOCTYPE svg PUBLIC "-//W3C//DTD SVG 20010904//EN"
 "http://www.w3.org/TR/2001/REC-SVG-20010904/DTD/svg10.dtd">
<svg version="1.0" xmlns="http://www.w3.org/2000/svg"
 width="762.000000pt" height="611.000000pt" viewBox="0 0 762.000000 611.000000"
 preserveAspectRatio="xMidYMid meet">

<g transform="translate(0.000000,611.000000) scale(0.100000,-0.100000)"
fill="#000000" stroke="none">
<path d="M0 3055 l0 -3055 3810 0 3810 0 0 3055 0 3055 -3810 0 -3810 0 0
-3055z m4122 2016 c185 -32 345 -96 495 -200 62 -42 92 -81 63 -81 -7 0 -49
25 -95 55 -362 241 -838 273 -1226 80 -360 -178 -598 -492 -675 -892 -25 -129
-23 -330 5 -461 47 -225 159 -436 318 -603 74 -77 172 -159 189 -159 12 1 104
163 104 185 0 22 98 195 110 195 5 0 20 19 34 42 18 30 22 46 15 59 -15 29
-10 56 14 86 13 15 77 120 141 232 l118 203 -41 42 c-23 23 -41 47 -41 54 0
22 26 12 60 -23 18 -19 37 -32 41 -29 4 2 55 87 113 187 102 177 106 186 106
243 0 94 40 143 136 168 42 11 49 16 61 51 10 30 11 46 3 63 -8 19 -2 49 31
155 50 159 63 187 90 187 36 0 89 -28 89 -47 0 -10 -21 -81 -46 -158 -34 -102
-53 -146 -71 -162 -14 -11 -32 -38 -39 -59 -12 -36 -12 -39 17 -72 36 -41 49
-72 49 -117 0 -44 -16 -84 -45 -115 -21 -22 -25 -45 -44 -217 -26 -241 -26
-256 -3 -250 9 3 34 8 55 12 34 5 38 4 35 -12 -2 -13 -18 -21 -58 -29 -53 -10
-55 -11 -61 -50 -16 -93 -50 -455 -43 -465 3 -6 -1 -27 -10 -47 -13 -31 -126
-501 -126 -525 0 -20 162 7 295 50 145 47 312 141 422 238 216 189 357 434
413 718 8 40 16 57 27 57 23 0 11 -90 -28 -215 -106 -337 -340 -611 -659 -770
-170 -85 -303 -116 -525 -122 -142 -4 -186 -1 -270 15 -118 24 -270 78 -375
134 -362 195 -624 591 -659 998 -53 627 347 1196 950 1350 174 45 358 52 541
21z m257 -2955 c30 -32 26 -80 -6 -84 -18 -3 -23 2 -23 18 0 62 -47 78 -99 34
-26 -22 -31 -33 -31 -70 l0 -44 53 0 c77 0 105 -36 47 -60 -22 -9 -37 -9 -61
-1 -44 15 -47 15 -64 -19 -19 -37 -19 -64 2 -107 43 -92 161 -69 225 44 43 76
68 72 29 -5 -31 -60 -87 -109 -140 -122 -147 -35 -244 84 -161 199 24 33 28
45 20 61 -16 29 -12 82 9 116 39 63 156 87 200 40z m-1569 -6 c26 -26 26 -80
-1 -114 -34 -43 -75 -28 -45 16 32 46 14 88 -38 88 -39 0 -98 -62 -120 -126
-35 -103 -11 -200 56 -228 57 -24 119 7 169 85 33 51 55 65 44 27 -22 -75 -94
-141 -172 -159 -44 -10 -55 -10 -89 7 -60 29 -84 74 -84 154 0 155 89 268 213
270 34 0 52 -5 67 -20z m385 -7 c7 -29 22 -183 27 -288 2 -33 8 -62 13 -64 6
-3 24 20 42 50 53 88 52 87 52 59 1 -33 -55 -127 -91 -153 -23 -17 -32 -19
-53 -9 -23 11 -25 17 -25 77 l0 65 -60 0 -59 0 -21 -69 c-20 -68 -36 -86 -65
-75 -21 8 -19 15 15 81 28 56 28 58 10 65 -31 11 -25 38 8 38 24 0 32 10 79
103 73 144 112 180 128 120z m565 8 c26 -49 -27 -128 -104 -154 -40 -13 -40
-14 -57 -93 -23 -103 -23 -101 9 -108 15 -3 44 -10 64 -15 31 -7 42 -5 62 10
13 10 27 19 30 19 14 0 4 -31 -18 -57 -20 -23 -32 -28 -68 -27 -23 1 -63 11
-86 22 -41 18 -47 19 -83 4 -35 -13 -41 -13 -64 2 -19 13 -25 24 -23 44 3 25
7 27 55 30 l51 3 12 66 c10 58 9 66 -6 78 -16 12 -16 13 3 23 13 7 23 26 27
53 5 30 18 53 45 81 35 34 44 38 89 38 40 0 54 -4 62 -19z m1264 9 c30 -11 44
-53 26 -75 -19 -22 -40 -18 -40 8 0 49 -56 64 -97 25 -46 -44 -27 -76 87 -141
151 -85 54 -266 -128 -241 -51 8 -102 46 -102 78 0 35 28 66 60 66 38 0 48
-19 21 -39 -25 -19 -21 -43 12 -59 71 -36 147 1 147 71 0 38 -28 69 -103 112
-53 30 -87 68 -87 97 0 34 31 79 63 93 38 17 105 19 141 5z m-1064 -390 c0
-23 -32 -43 -54 -34 -16 6 -22 35 -9 47 3 4 19 7 35 7 21 0 28 -5 28 -20z
m660 0 c0 -27 -32 -43 -55 -26 -27 19 -12 46 25 46 23 0 30 -4 30 -20z m-1367
-339 c16 -16 1 -24 -21 -12 -36 19 -72 13 -104 -19 -28 -28 -30 -35 -26 -85 3
-33 12 -62 23 -75 23 -25 79 -36 112 -21 32 15 45 4 19 -15 -27 -19 -83 -17
-132 5 -78 35 -93 141 -30 200 13 12 36 26 52 31 34 11 93 5 107 -9z m615 -18
c15 -24 15 -28 -2 -56 -15 -27 -15 -32 -2 -39 54 -30 38 -101 -26 -119 -22 -5
-53 -7 -69 -4 l-29 7 0 118 0 119 28 3 c50 6 83 -4 100 -29z m273 26 c11 -5
17 -14 13 -20 -4 -6 -11 -6 -19 1 -20 17 -55 2 -55 -22 0 -12 20 -43 45 -69
33 -35 45 -56 45 -78 0 -52 -70 -80 -116 -47 -14 11 -16 18 -8 26 8 8 14 7 24
-5 16 -19 44 -19 59 -1 15 18 -4 58 -48 100 -39 37 -43 87 -9 110 26 19 42 20
69 5z m632 -8 c16 -16 1 -24 -21 -12 -34 18 -70 12 -103 -17 -26 -23 -31 -34
-31 -76 0 -84 64 -135 135 -108 37 14 50 6 23 -14 -41 -29 -138 -8 -176 38
-54 66 -19 171 66 198 34 11 93 5 107 -9z m570 7 c36 -19 46 -40 47 -94 0 -37
-6 -60 -23 -85 -29 -43 -92 -86 -137 -93 l-35 -6 40 19 c47 22 79 51 99 90
l15 28 -45 -1 c-37 -1 -50 4 -65 23 -23 28 -24 59 -3 89 27 38 70 50 107 30z
m200 0 c35 -18 46 -40 47 -91 0 -58 -17 -93 -64 -135 -41 -36 -138 -69 -121
-42 3 6 14 10 22 10 36 0 113 73 113 107 0 5 -18 8 -41 8 -67 0 -100 60 -63
113 27 38 70 50 107 30z m190 1 c30 -16 37 -28 37 -70 0 -25 -11 -50 -35 -85
l-35 -49 45 -3 c31 -2 45 -8 45 -18 0 -11 -17 -14 -77 -14 l-77 0 26 28 c65
68 87 151 52 187 -16 16 -28 16 -66 0 -11 -4 -18 -3 -18 4 0 26 68 38 103 20z
m-3756 -89 c26 -49 51 -90 55 -90 4 0 28 41 54 90 26 50 53 90 60 90 7 0 16
-31 23 -82 6 -46 14 -100 17 -120 5 -33 3 -38 -14 -38 -18 0 -22 9 -27 58 -4
31 -10 68 -14 82 -7 23 -10 20 -44 -40 -20 -36 -39 -73 -42 -82 -13 -33 -31
-18 -74 63 -24 45 -47 77 -52 72 -5 -5 -11 -41 -15 -81 -5 -51 -11 -72 -20
-72 -17 0 -17 12 1 130 8 52 15 98 15 103 0 4 6 7 14 7 8 0 36 -40 63 -90z
m419 -22 c27 -61 51 -115 52 -120 2 -4 -5 -8 -16 -8 -14 0 -27 13 -39 38 -17
34 -22 37 -66 40 -48 3 -48 3 -65 -37 -10 -25 -24 -41 -34 -41 -14 0 -11 12
19 78 19 42 44 96 54 120 10 23 24 42 32 42 8 0 35 -48 63 -112z m264 101 c0
-6 -17 -9 -42 -8 l-43 4 0 -113 c0 -105 -1 -112 -20 -112 -19 0 -20 7 -20 112
l0 113 -42 -4 c-26 -1 -43 2 -43 8 0 7 37 11 105 11 68 0 105 -4 105 -11z m70
-44 l0 -56 58 3 57 3 3 53 c3 46 6 52 25 52 21 0 22 -3 22 -120 0 -118 0 -120
-23 -120 -19 0 -22 5 -21 38 3 74 5 72 -61 72 l-60 0 0 -55 c0 -48 -2 -55 -20
-55 -19 0 -20 7 -20 120 0 113 1 120 20 120 18 0 20 -7 20 -55z m620 -55 l0
-110 45 0 c25 0 45 -4 45 -10 0 -6 -28 -10 -65 -10 l-65 0 0 120 c0 113 1 120
20 120 19 0 20 -7 20 -110z m167 15 c-2 -109 8 -129 69 -129 54 0 64 21 64
131 0 78 2 93 16 93 14 0 15 -14 12 -101 -3 -96 -4 -102 -31 -125 -44 -37
-120 -30 -154 15 -8 10 -12 53 -13 114 0 89 2 97 19 97 18 0 19 -8 18 -95z
m743 -25 c0 -113 -1 -120 -20 -120 -19 0 -20 7 -20 120 0 113 1 120 20 120 19
0 20 -7 20 -120z m159 33 l81 -88 0 88 c0 71 3 87 15 87 13 0 15 -20 15 -120
0 -66 -4 -120 -9 -120 -5 0 -43 36 -84 80 -40 44 -77 80 -80 80 -4 0 -7 -36
-7 -80 0 -64 -3 -80 -15 -80 -12 0 -15 20 -15 120 0 66 4 120 9 120 5 0 46
-39 90 -87z m537 80 c-4 -5 -24 -8 -44 -8 -36 0 -37 -1 -40 -42 l-3 -43 35 0
c25 0 36 -4 36 -15 0 -11 -9 -14 -32 -13 -33 3 -33 2 -36 -44 l-3 -48 45 0
c26 0 46 -4 46 -10 0 -6 -28 -10 -65 -10 l-65 0 0 120 0 120 67 0 c36 0 63 -3
59 -7z m214 -113 c0 -114 -1 -120 -20 -120 -19 0 -20 6 -19 99 0 55 -2 104 -5
110 -6 9 19 30 37 31 4 0 7 -54 7 -120z"/>
<path d="M3953 3963 c-107 -185 -108 -192 -57 -207 17 -5 23 0 33 33 14 49 22
54 56 41 22 -8 26 -15 21 -33 -20 -71 -20 -74 13 -79 18 -3 34 -2 36 2 8 13
46 401 40 410 -20 32 -45 3 -142 -167z"/>
<path d="M3709 3538 c-64 -112 -120 -216 -125 -233 -9 -28 -20 -35 -81 -51 -7
-2 -22 -25 -34 -51 -52 -118 -97 -199 -129 -231 -48 -49 -121 -173 -110 -187
16 -19 181 -102 258 -129 97 -35 245 -63 369 -72 102 -6 103 -6 112 17 8 22
21 256 27 484 1 55 14 209 29 343 16 133 26 244 24 246 -2 2 -20 7 -40 11 -36
7 -37 6 -49 -32 -16 -50 -22 -55 -55 -47 -29 7 -28 2 -8 90 3 15 -3 23 -22 32
-14 7 -32 12 -38 12 -7 0 -65 -91 -128 -202z"/>
<path d="M3097 1972 c-21 -43 -37 -83 -37 -90 0 -15 86 -17 95 -2 8 13 -5 170
-15 170 -4 0 -23 -35 -43 -78z"/>
<path d="M3650 2078 c-22 -36 -35 -86 -25 -96 9 -10 55 19 78 50 14 18 18 34
13 52 -9 37 -42 34 -66 -6z"/>
<path d="M3450 1751 c0 -12 29 -23 42 -15 6 4 5 10 -3 15 -18 11 -39 11 -39 0z"/>
<path d="M3777 1383 c-4 -3 -7 -19 -7 -34 0 -62 27 -78 56 -34 14 21 15 31 6
50 -11 24 -40 33 -55 18z"/>
<path d="M3775 1269 c-4 -6 -4 -30 0 -55 5 -38 10 -44 30 -44 24 0 55 33 55
57 0 35 -69 69 -85 42z"/>
<path d="M5269 1366 c-24 -52 17 -104 66 -86 16 6 19 15 17 41 -7 64 -61 93
-83 45z"/>
<path d="M5469 1366 c-16 -34 -3 -75 26 -86 39 -15 55 -3 55 40 0 62 -59 95
-81 46z"/>
<path d="M2304 1305 c-19 -46 -19 -45 21 -45 19 0 35 5 35 10 0 14 -29 70 -36
70 -3 0 -12 -16 -20 -35z"/>
</g>
</svg>
