<?xml version="1.0" standalone="no"?>
<!DOCTYPE svg PUBLIC "-//W3C//DTD SVG 20010904//EN"
 "http://www.w3.org/TR/2001/REC-SVG-20010904/DTD/svg10.dtd">
<svg version="1.0" xmlns="http://www.w3.org/2000/svg"
 width="512.000000pt" height="512.000000pt" viewBox="0 0 512.000000 512.000000"
 preserveAspectRatio="xMidYMid meet">

<g transform="translate(0.000000,512.000000) scale(0.100000,-0.100000)"
fill="#000000" stroke="none">
<path d="M4276 4499 c-105 -25 -235 -126 -288 -225 -32 -59 -58 -152 -58 -207
0 -44 -13 -75 -44 -99 -18 -15 -47 -18 -226 -18 -113 0 -239 -5 -280 -10 -196
-26 -367 -174 -424 -369 -13 -43 -16 -103 -16 -280 0 -199 3 -229 18 -247 41
-52 109 -55 153 -8 24 25 24 30 29 252 5 221 6 228 32 277 30 58 103 129 156
153 30 13 87 17 307 22 260 5 272 7 320 30 106 52 161 137 177 274 11 102 46
168 112 213 67 46 102 53 258 53 132 0 138 1 167 26 52 44 51 113 -3 156 -18
15 -44 17 -186 17 -91 -1 -182 -5 -204 -10z"/>
<path d="M1590 4294 c-47 -9 -139 -33 -205 -55 -207 -69 -370 -167 -528 -319
-217 -207 -355 -456 -419 -753 -29 -136 -31 -397 -5 -532 105 -529 470 -945
969 -1104 160 -51 381 -80 493 -66 94 11 140 70 110 141 -23 55 -47 64 -170
64 -886 0 -1477 938 -1095 1737 169 354 475 596 862 679 116 26 361 25 478 0
212 -46 404 -143 568 -289 45 -40 59 -47 95 -47 48 0 81 23 98 67 23 62 -37
133 -214 254 -143 98 -321 175 -497 214 -108 24 -426 29 -540 9z"/>
<path d="M4339 4092 c-27 -24 -32 -36 -40 -107 -16 -146 -105 -271 -236 -333
l-58 -27 -308 -5 -309 -5 -29 -33 c-39 -44 -39 -90 0 -134 l29 -33 304 0 c290
0 306 1 378 23 97 31 167 71 240 139 118 109 190 262 193 411 2 71 1 74 -31
103 -43 39 -90 39 -133 1z"/>
<path d="M1769 3741 l-29 -29 0 -361 0 -361 -257 0 c-286 0 -297 -2 -326 -62
-21 -43 -15 -77 20 -113 l26 -25 334 0 c210 0 341 4 354 10 47 26 49 42 49
480 0 366 -2 415 -17 440 -33 57 -107 67 -154 21z"/>
<path d="M2263 2870 c-18 -10 -35 -30 -38 -42 -3 -13 -4 -428 -3 -923 l3 -900
22 -59 c13 -33 34 -77 48 -98 l25 -38 -134 0 c-148 0 -179 -8 -202 -51 -23
-44 -18 -87 14 -118 l27 -28 599 -7 c329 -4 869 -4 1200 0 l601 7 27 28 c37
37 39 95 4 136 l-24 28 -151 3 -150 3 25 38 c50 76 67 138 73 266 l6 120 125
5 c103 4 133 9 171 28 64 31 117 85 148 151 l26 56 0 280 c0 277 0 280 -25
330 -29 60 -84 116 -142 147 -36 18 -64 23 -173 28 l-130 5 -5 287 c-5 283 -5
288 -28 310 l-23 23 -942 3 c-923 2 -943 2 -974 -18z m1765 -1002 l-3 -823
-24 -52 c-29 -65 -101 -134 -166 -159 -47 -18 -82 -19 -615 -19 -556 0 -566 0
-611 21 -67 31 -124 87 -156 152 l-28 57 -3 810 c-1 445 0 815 2 822 4 11 160
13 806 13 l800 0 -2 -822z m422 177 c16 -8 34 -24 40 -34 6 -12 10 -116 10
-264 l0 -244 -26 -26 c-32 -32 -65 -39 -164 -35 l-75 3 -3 308 -2 307 95 0
c66 0 105 -5 125 -15z"/>
</g>
</svg>
