<?xml version="1.0" standalone="no"?>
<!DOCTYPE svg PUBLIC "-//W3C//DTD SVG 20010904//EN"
 "http://www.w3.org/TR/2001/REC-SVG-20010904/DTD/svg10.dtd">
<svg version="1.0" xmlns="http://www.w3.org/2000/svg"
 width="1024.000000pt" height="1024.000000pt" viewBox="0 0 1024.000000 1024.000000"
 preserveAspectRatio="xMidYMid meet">

<g transform="translate(0.000000,1024.000000) scale(0.100000,-0.100000)"
fill="#000000" stroke="none">
<path d="M0 5120 l0 -5120 5120 0 5120 0 0 5120 0 5120 -5120 0 -5120 0 0
-5120z m5425 2809 c218 -32 448 -94 607 -164 169 -75 356 -177 448 -243 113
-82 140 -106 132 -114 -6 -6 -61 25 -138 75 -242 157 -441 250 -695 326 -384
115 -804 125 -1214 30 -196 -46 -466 -153 -641 -255 l-41 -24 4 22 c3 17 33
38 116 84 289 157 573 242 912 274 115 10 407 4 510 -11z m-39 -69 c187 -26
229 -34 364 -75 125 -37 385 -146 410 -171 8 -9 -19 1 -60 21 -149 75 -357
141 -560 180 -51 10 -164 18 -282 21 l-198 5 -54 -38 c-56 -39 -62 -53 -22
-53 15 0 26 -7 29 -19 4 -16 12 -18 56 -13 59 5 71 -12 14 -22 -48 -8 -97 -49
-88 -75 7 -24 -43 -101 -66 -101 -31 0 -42 -26 -24 -54 19 -29 11 -34 -15 -11
-16 14 -19 13 -34 -10 -16 -25 -16 -25 11 -25 46 0 12 -19 -61 -34 -37 -8 -75
-21 -84 -29 -18 -15 -103 -47 -126 -47 -8 0 -19 -7 -26 -15 -11 -13 -4 -15 50
-15 48 0 66 4 76 18 12 14 13 15 8 1 -4 -14 5 -18 58 -24 35 -3 72 -9 82 -12
15 -4 18 -2 12 12 -10 26 4 38 23 21 14 -13 24 -14 55 -5 47 13 82 5 88 -19 4
-15 18 -18 88 -20 l83 -3 -8 113 c-18 275 -20 317 -13 310 3 -4 9 -29 12 -57
20 -173 26 -238 26 -298 0 -45 4 -69 13 -72 6 -2 54 -6 104 -9 51 -4 98 -9
106 -11 19 -8 95 61 117 107 11 23 17 51 14 63 -4 18 2 28 28 46 18 12 35 24
38 27 3 2 -2 9 -10 15 -9 7 -36 39 -62 72 -60 78 -168 182 -241 229 -32 21
-56 41 -53 43 3 3 38 -18 78 -46 86 -59 190 -161 252 -247 l44 -61 86 5 c73 4
86 2 86 -11 0 -11 14 -18 48 -22 87 -12 174 -58 157 -85 -8 -12 -70 -9 -123 6
-19 5 -13 -4 25 -43 48 -50 93 -81 93 -65 0 4 -5 13 -12 20 -9 9 -5 12 21 12
29 0 32 2 21 15 -10 12 -10 18 0 30 7 8 18 15 25 15 8 0 11 10 8 28 l-5 27 21
-25 20 -25 16 23 c17 23 42 32 29 10 -7 -13 33 18 49 37 5 6 7 3 3 -7 -3 -10
0 -20 6 -24 7 -4 5 -10 -6 -16 -9 -5 -21 -6 -26 -3 -6 3 -10 1 -10 -4 0 -16
49 -17 60 -3 3 4 15 16 28 27 20 16 25 17 32 5 13 -20 12 -39 -1 -20 -8 13
-12 12 -26 -7 -8 -13 -22 -23 -29 -23 -8 0 -14 -4 -14 -10 0 -13 6 -13 31 0
20 11 28 -3 9 -15 -18 -11 -10 -26 10 -20 26 8 26 -11 1 -25 -26 -13 -29 -13
-33 8 -2 10 -6 13 -10 6 -4 -6 7 -25 23 -42 26 -27 28 -33 15 -38 -17 -7 -22
-44 -6 -44 6 0 10 -7 10 -15 0 -8 -9 -15 -20 -15 -18 0 -25 -16 -21 -42 0 -5
-4 -8 -9 -8 -6 0 -10 5 -10 10 0 19 -15 10 -32 -20 -16 -29 -16 -33 -1 -65 9
-19 13 -38 8 -42 -4 -5 -10 -2 -12 5 -3 6 -9 12 -14 12 -6 0 -5 -9 2 -21 9
-17 7 -24 -8 -39 -39 -41 -45 -50 -29 -50 8 0 16 5 18 11 2 7 4 -5 5 -25 1
-38 -5 -44 -26 -23 -10 10 -11 7 -6 -15 4 -16 5 -28 2 -28 -18 0 -37 14 -37
28 0 12 -3 13 -12 4 -9 -9 -8 -15 4 -24 9 -7 18 -21 20 -31 3 -18 4 -18 30 2
14 12 32 21 39 21 17 0 2 -15 -36 -34 -25 -13 -32 -14 -51 -1 -19 12 -24 12
-42 -8 -11 -12 -23 -33 -25 -47 -3 -14 -10 -37 -17 -51 -8 -19 -9 -32 -2 -45
14 -25 -5 -52 -33 -46 -37 7 -68 -15 -61 -43 3 -13 1 -27 -5 -30 -13 -9 -69
43 -69 64 -1 22 -28 53 -70 81 -19 13 -47 34 -62 48 -26 24 -48 23 -48 -2 0
-6 14 -31 30 -54 22 -29 46 -47 83 -61 44 -17 48 -20 23 -20 -25 -1 -27 -4
-22 -25 9 -36 -21 -65 -59 -56 l-30 7 38 7 c30 7 37 13 37 31 0 17 -14 32 -52
55 -29 18 -70 48 -90 68 l-37 35 -28 -19 c-15 -10 -48 -21 -73 -24 -37 -4 -46
-9 -48 -28 -2 -12 -16 -29 -31 -37 -33 -17 -65 -61 -57 -81 12 -30 -111 -93
-155 -79 -12 4 -71 8 -133 10 -96 3 -398 34 -493 51 l-33 6 0 -51 c0 -30 -4
-51 -11 -51 -6 0 -9 20 -8 53 l3 52 -91 12 c-146 19 -520 99 -510 109 2 2 73
-9 158 -25 177 -34 401 -71 428 -71 16 0 21 12 30 73 35 220 127 603 161 668
8 14 3 18 -28 23 -73 12 -84 8 -140 -46 -32 -33 -55 -49 -60 -42 -4 6 -15 13
-24 17 -13 4 -18 17 -18 42 l0 35 -55 0 c-32 0 -55 4 -55 11 0 6 20 9 55 5
l55 -4 0 37 c0 39 40 98 59 87 4 -3 19 6 32 20 18 20 21 27 10 33 -9 6 -10 11
-2 15 16 10 13 26 -5 26 -12 0 -10 7 9 33 48 65 42 97 -20 97 -27 0 -34 4 -31
17 3 17 25 27 131 57 31 10 57 21 57 27 0 5 6 9 13 7 6 -1 23 4 36 11 17 9 21
10 16 1 -5 -9 0 -10 21 -6 55 12 178 25 186 20 9 -6 99 49 118 71 9 11 1 13
-47 13 -181 -2 -534 -63 -517 -90 6 -10 53 0 74 16 12 10 22 8 49 -5 l33 -17
-38 -11 c-22 -6 -49 -11 -62 -11 -12 0 -41 -9 -65 -20 -23 -10 -65 -28 -94
-39 -50 -20 -54 -20 -97 -4 -34 13 -49 14 -57 6 -16 -16 -2 -33 29 -33 15 0
34 -5 42 -10 11 -7 4 -10 -27 -10 -52 0 -73 8 -67 25 9 22 -14 27 -42 8 -17
-11 -26 -13 -23 -5 6 18 185 97 312 137 91 29 317 71 467 88 109 12 356 6 486
-13z m-500 -46 c-22 -8 -45 -13 -50 -10 -6 2 5 8 24 14 52 15 71 13 26 -4z
m655 -43 c91 -31 240 -105 340 -167 82 -52 239 -170 239 -180 0 -2 -53 34
-117 80 -175 123 -339 213 -488 267 -27 9 -45 18 -39 18 6 1 35 -7 65 -18z
m1974 -80 c-11 -10 -128 -118 -260 -239 -331 -303 -643 -623 -1014 -1039 -150
-169 -155 -173 -193 -173 l-40 0 43 53 c255 310 898 936 1359 1320 106 89 152
123 105 78z m-281 -28 c-1 -14 -12 -38 -23 -52 -12 -14 -30 -43 -41 -63 -39
-72 -57 -49 -20 26 17 35 76 116 84 116 2 0 2 -12 0 -27z m-222 -28 c-51 -58
-72 -103 -72 -153 0 -23 -4 -44 -10 -47 -5 -3 -10 -23 -10 -43 -1 -20 -9 -72
-19 -116 -16 -64 -26 -85 -57 -117 -21 -21 -42 -39 -47 -39 -6 0 -16 -8 -24
-17 -13 -16 -13 -16 -7 7 4 14 6 84 5 157 -2 158 12 198 97 281 61 58 78 66
56 25 -7 -16 -14 -34 -14 -40 0 -26 18 -12 36 29 17 38 85 118 100 118 3 0
-12 -20 -34 -45z m-2872 -32 c0 -5 -16 -18 -35 -31 -23 -15 -35 -18 -35 -9 0
7 12 20 28 29 30 19 42 22 42 11z m2896 -120 c-4 -65 -7 -128 -7 -140 -1 -13
-16 -36 -38 -53 -20 -17 -46 -41 -59 -53 l-23 -22 9 25 c6 15 13 57 17 95 4
39 9 78 11 88 7 24 35 22 41 -3 16 -59 40 19 42 133 1 26 4 47 7 47 4 0 4 -53
0 -117z m68 102 c-4 -8 -8 -15 -10 -15 -2 0 -4 7 -4 15 0 8 4 15 10 15 5 0 7
-7 4 -15z m-3237 -15 c1 -11 -7 -25 -17 -30 -16 -9 -18 -8 -13 6 5 13 3 15 -8
10 -8 -4 -3 2 10 13 28 25 26 25 28 1z m311 -10 c-29 -30 -45 -39 -33 -20 3 6
1 10 -6 10 -7 0 -5 8 6 20 10 11 28 20 41 20 22 0 21 -1 -8 -30z m89 0 c3 -10
14 -22 24 -25 23 -8 24 -15 4 -41 -20 -26 -19 -48 5 -69 27 -24 25 -32 -10
-50 -23 -12 -30 -12 -30 -3 0 7 -4 19 -9 27 -15 24 -43 -6 -36 -38 3 -16 0
-34 -9 -46 -14 -19 -15 -19 -21 -2 -11 26 -25 21 -25 -9 0 -22 -2 -25 -15 -14
-8 7 -20 29 -26 50 -6 21 -21 43 -33 48 -20 10 -19 11 8 11 16 1 49 13 73 29
45 27 48 38 28 84 -5 13 0 20 19 28 14 5 26 12 26 15 0 4 -6 3 -12 -1 -9 -5
-9 -2 1 9 18 22 32 21 38 -3z m87 -4 c-21 -15 -30 -14 -19 3 3 6 14 11 23 11
13 0 13 -2 -4 -14z m2926 -10 c0 -2 -8 -10 -17 -17 -16 -13 -17 -12 -4 4 13
16 21 21 21 13z m-3266 -27 c-3 -5 -14 -9 -26 -9 -17 0 -18 3 -8 14 12 15 44
10 34 -5z m2133 -15 c-7 -7 -57 18 -57 28 0 5 14 1 31 -7 17 -9 29 -19 26 -21z
m950 -16 c-2 -13 -4 -5 -4 17 -1 22 1 32 4 23 2 -10 2 -28 0 -40z m88 -23
c-55 -50 -77 -62 -60 -35 9 14 105 90 113 90 4 -1 -20 -25 -53 -55z m-3095 25
c-27 -21 -46 -25 -54 -11 -7 10 22 24 34 16 5 -3 11 -1 15 5 3 5 12 10 18 10
7 0 1 -9 -13 -20z m390 -30 c0 -5 -4 -10 -10 -10 -5 0 -10 5 -10 10 0 6 5 10
10 10 6 0 10 -4 10 -10z m-530 -4 c0 -3 -4 -8 -10 -11 -5 -3 -10 -1 -10 4 0 6
5 11 10 11 6 0 10 -2 10 -4z m2340 -20 c0 -2 -7 -6 -15 -10 -8 -3 -15 -1 -15
4 0 6 7 10 15 10 8 0 15 -2 15 -4z m-2290 -26 c0 -5 -4 -12 -10 -15 -5 -3 -10
-1 -10 5 0 7 -9 9 -22 5 -22 -7 -22 -7 -3 8 19 15 45 13 45 -3z m2734 -143 c0
-124 -4 -171 -16 -198 -22 -51 -43 -63 -34 -18 8 43 -7 27 -24 -23 -19 -62
-25 -51 -21 39 3 90 -5 111 -40 93 -19 -11 -30 -4 -23 14 3 7 -1 18 -9 25 -19
15 -32 -1 -63 -76 -26 -64 -33 -51 -9 17 14 40 94 162 115 175 5 3 2 -11 -6
-31 -25 -59 -8 -63 19 -4 19 42 99 150 110 150 1 0 2 -73 1 -163z m-3364 150
c0 -1 -29 -32 -65 -67 -36 -35 -65 -61 -65 -57 0 6 121 126 128 127 1 0 2 -1
2 -3z m700 -128 c9 -20 9 -33 0 -49 -6 -12 -9 -28 -6 -36 7 -18 40 -18 56 1
22 27 27 16 17 -45 -9 -52 -7 -63 8 -80 15 -16 15 -22 5 -35 -10 -12 -10 -15
5 -15 29 0 11 -22 -39 -48 -46 -24 -50 -24 -116 -13 l-69 13 -45 -31 c-58 -40
-66 -54 -22 -36 41 17 76 19 76 5 0 -5 -7 -10 -15 -10 -14 0 -20 -24 -16 -57
1 -7 -4 -13 -10 -13 -25 0 -171 -64 -176 -77 -3 -8 -27 -25 -52 -38 -26 -13
-53 -31 -60 -39 -8 -9 -19 -16 -26 -16 -7 0 -18 -7 -25 -16 -8 -8 -23 -20 -34
-25 -12 -6 6 14 39 44 51 47 58 57 46 69 -9 9 -12 9 -7 1 5 -9 2 -11 -8 -7
-23 9 -20 19 10 33 36 16 26 23 -16 11 -46 -13 -50 -4 -7 16 20 10 34 20 32
24 -2 3 0 12 6 20 7 13 9 12 9 -2 0 -22 0 -22 50 -2 44 18 55 40 16 30 -37 -9
-80 36 -72 76 5 24 1 31 -19 40 -19 8 -32 8 -51 -1 -29 -13 -47 -6 -24 10 33
21 63 22 99 3 20 -10 39 -23 42 -27 4 -5 19 -2 35 7 60 32 61 33 31 56 -33 26
-33 32 -2 94 20 39 23 52 13 65 -10 13 -9 13 6 -1 17 -15 17 -18 2 -49 -18
-35 -22 -89 -6 -89 5 0 26 21 47 46 21 25 55 55 76 67 24 14 44 36 56 62 10
22 30 51 45 64 14 14 26 30 26 37 0 23 58 -8 70 -37z m1095 41 c3 -5 1 -10 -4
-10 -6 0 -11 5 -11 10 0 6 2 10 4 10 3 0 8 -4 11 -10z m-2467 -157 c15 -27 52
-47 107 -58 l40 -8 -52 -9 c-71 -13 -99 -41 -115 -118 -13 -64 -26 -60 -27 9
-1 54 -52 96 -126 106 l-60 8 67 17 c37 9 76 24 86 33 12 11 24 45 32 90 l13
72 12 -60 c6 -33 17 -70 23 -82z m1004 115 c-7 -7 -12 -8 -12 -2 0 14 12 26
19 19 2 -3 -1 -11 -7 -17z m-492 -26 c0 -5 -39 -56 -87 -113 -49 -57 -100
-122 -116 -144 -15 -22 -36 -51 -48 -65 -19 -23 -19 -23 -9 -2 6 12 8 27 5 32
-4 6 9 26 28 45 19 19 32 37 28 41 -3 3 1 4 9 2 9 -2 14 3 12 14 -1 9 34 54
84 107 87 92 94 98 94 83z m3010 -187 c0 -3 -9 -15 -20 -27 -22 -24 -26 -18
-8 12 12 19 28 27 28 15z m-2525 -34 c-3 -5 4 -12 15 -16 27 -9 25 -32 -3 -37
-30 -6 -54 2 -37 12 6 4 13 16 15 26 5 25 4 24 11 24 3 0 3 -4 -1 -9z m2555
-15 c0 -2 -7 -7 -16 -10 -8 -3 -12 -2 -9 4 6 10 25 14 25 6z m30 -50 c0 -3 -4
-8 -10 -11 -5 -3 -10 -1 -10 4 0 6 5 11 10 11 6 0 10 -2 10 -4z m-2138 -28
c-17 -17 -15 -38 4 -38 13 0 15 -7 10 -32 -3 -17 -7 -33 -9 -34 -1 -1 -26 2
-55 7 -39 8 -57 7 -68 -2 -8 -6 -14 -7 -14 -2 0 12 44 54 90 87 37 26 62 34
42 14z m2094 -49 c-9 -19 -15 -29 -16 -22 0 15 22 64 27 60 2 -2 -3 -19 -11
-38z m-2718 -14 c-17 -25 -34 -43 -36 -40 -7 7 47 85 58 85 5 0 -5 -20 -22
-45z m2662 28 c0 -5 -5 -15 -10 -23 -8 -12 -10 -11 -10 8 0 12 5 22 10 22 6 0
10 -3 10 -7z m-2580 -24 c0 -5 -7 -9 -15 -9 -15 0 -20 12 -9 23 8 8 24 -1 24
-14z m4086 -106 c10 -7 24 -13 32 -13 8 0 0 -10 -19 -23 -23 -16 -35 -32 -37
-52 l-4 -30 -13 32 c-8 18 -29 42 -47 53 -18 11 -26 20 -17 20 22 0 56 39 65
75 l8 30 7 -39 c3 -22 15 -45 25 -53z m-3723 36 c-5 -5 -21 -11 -34 -13 -14
-1 -31 -6 -38 -10 -14 -9 -28 0 -18 11 4 3 24 9 44 13 55 11 58 11 46 -1z
m2747 -2 c0 -2 -12 -14 -27 -28 l-28 -24 24 28 c23 25 31 32 31 24z m740 -181
c42 -78 50 -100 39 -107 -23 -14 -27 -11 -39 29 -7 20 -25 59 -41 85 -16 26
-27 52 -24 57 3 4 0 10 -7 12 -7 3 -9 12 -4 23 9 25 16 17 76 -99z m-4065 55
c-3 -6 -11 -11 -17 -11 -6 0 -6 6 2 15 14 17 26 13 15 -4z m312 -47 c-3 -3
-12 -4 -19 -1 -8 3 -5 6 6 6 11 1 17 -2 13 -5z m3587 -102 c21 -51 27 -75 19
-83 -15 -15 -94 131 -80 149 17 22 31 7 61 -66z m-4123 4 c210 -32 503 -103
437 -105 -23 -1 -24 -34 -2 -55 16 -17 24 -19 64 -17 14 1 34 -5 45 -13 19
-15 19 -15 -10 -16 -44 0 -298 28 -380 41 -63 11 -117 28 -89 29 12 0 -30 95
-46 105 -23 14 -238 45 -311 45 l-79 0 0 -44 c0 -26 5 -46 13 -49 29 -12 -58
-5 -188 15 -105 16 -189 21 -337 22 -108 1 -195 2 -194 3 3 4 246 42 371 59
159 21 500 12 706 -20z m2859 11 c0 -2 -9 -12 -20 -22 -17 -16 -20 -16 -20 -2
0 8 8 18 18 20 9 3 18 5 20 6 1 0 2 -1 2 -2z m-432 -24 c-5 -25 -28 -28 -28
-4 0 12 6 21 16 21 9 0 14 -7 12 -17z m1592 -50 c11 -30 19 -57 17 -60 -6 -5
-57 100 -57 116 0 26 20 -2 40 -56z m-110 13 c0 -2 7 -20 15 -40 8 -20 12 -36
8 -36 -12 1 -52 68 -45 74 6 7 22 8 22 2z m1035 -31 c67 -13 205 -65 205 -78
0 -2 -37 10 -82 25 -78 27 -90 29 -198 24 -63 -3 -143 -12 -178 -21 -85 -20
-198 -30 -205 -18 -10 17 -105 3 -232 -32 -125 -35 -213 -51 -184 -35 9 5 33
14 55 19 69 17 106 28 234 65 69 20 159 43 200 50 103 19 288 19 385 1z
m-4452 -32 c-7 -2 -19 -2 -25 0 -7 3 -2 5 12 5 14 0 19 -2 13 -5z m3317 -62
c-1 -13 -29 45 -29 59 0 8 6 0 14 -19 8 -18 15 -36 15 -40z m-3095 20 c83 -17
173 -38 200 -46 l50 -15 -80 5 c-79 5 -80 4 -40 -10 l40 -14 -70 5 c-143 10
-178 16 -164 25 8 5 30 9 49 9 53 0 25 15 -75 40 -95 24 -144 44 -90 37 17 -2
98 -18 180 -36z m1729 -6 c0 -16 -4 -37 -7 -45 -7 -15 19 -31 73 -44 14 -3 36
-15 50 -26 l25 -20 -80 0 c-44 0 -187 -3 -317 -7 -236 -6 -238 -6 -238 15 0
11 15 40 33 63 31 41 35 43 78 40 27 -1 63 5 85 14 56 24 169 44 239 42 60 -2
60 -2 59 -32z m2046 -4 c0 -10 -69 -25 -77 -17 -3 3 0 8 8 10 8 2 21 7 29 9
24 9 40 8 40 -2z m-1850 -11 c0 -10 -148 -4 -159 6 -2 2 32 4 77 4 50 0 82 -4
82 -10z m590 0 c-8 -5 -28 -9 -45 -9 l-30 1 30 8 c17 4 37 8 45 9 13 1 13 0 0
-9z m-527 -7 c-7 -2 -21 -2 -30 0 -10 3 -4 5 12 5 17 0 24 -2 18 -5z m764 -43
c14 -36 1 -40 -15 -5 -14 31 -15 35 -4 35 4 0 13 -13 19 -30z m-2422 -1 c22
-6 60 -14 85 -19 l45 -7 -61 -2 c-42 -1 -72 5 -100 19 -43 21 -30 25 31 9z
m-1005 -179 c0 -133 -1 -140 -20 -140 -13 0 -20 7 -20 19 0 32 -36 104 -66
133 -53 49 -90 58 -249 58 l-145 0 0 -245 0 -245 126 0 c111 0 131 3 161 21
36 22 56 54 68 107 5 22 12 32 26 32 18 0 19 -9 19 -200 0 -164 -3 -200 -14
-200 -8 0 -16 14 -20 33 -9 46 -41 94 -78 117 -29 17 -51 20 -163 20 l-130 0
5 -261 c5 -246 6 -261 25 -276 16 -12 47 -14 160 -11 121 3 146 7 187 26 61
30 123 98 160 178 16 35 36 64 44 64 8 0 14 -1 14 -3 0 -7 -30 -213 -39 -265
-4 -29 -12 -57 -17 -62 -5 -5 -209 -11 -454 -15 -245 -3 -455 -8 -467 -11 -44
-9 -24 23 22 36 56 16 92 56 100 113 3 23 5 256 3 517 -3 508 -4 512 -54 545
-12 8 -41 17 -63 21 -35 6 -51 21 -37 35 2 2 209 3 460 1 l456 -2 0 -140z
m1183 143 c-7 -2 -21 -2 -30 0 -10 3 -4 5 12 5 17 0 24 -2 18 -5z m2333 -1
c-8 -13 -127 -85 -132 -80 -4 5 116 86 129 87 5 1 6 -3 3 -7z m558 -127 c189
-33 349 -148 445 -319 49 -86 64 -240 37 -367 -26 -120 -89 -218 -196 -304
-89 -72 -156 -102 -280 -122 -229 -38 -448 27 -601 177 -219 216 -208 569 24
787 146 137 342 188 571 148z m-3573 -57 c25 -29 105 -125 179 -213 144 -172
338 -391 390 -440 l32 -30 -6 165 c-18 483 -17 468 -38 495 -18 23 -82 49
-109 43 -7 -2 -15 5 -17 15 -3 16 11 17 192 17 168 0 196 -2 196 -15 0 -9 -9
-15 -24 -15 -40 0 -84 -20 -103 -48 -17 -25 -18 -60 -18 -524 l0 -498 -25 0
c-27 0 -92 65 -220 220 -30 37 -161 192 -290 345 l-235 279 -3 -172 c-1 -95 1
-258 6 -362 10 -219 10 -221 104 -247 34 -10 58 -22 58 -30 0 -10 -40 -13
-200 -13 -163 0 -200 3 -200 14 0 8 16 16 39 20 22 3 51 16 66 29 42 37 47
102 43 514 -3 358 -4 373 -24 400 -25 33 -90 73 -121 73 -14 0 -23 6 -23 15 0
13 24 15 153 15 l153 0 45 -52z m1504 31 c110 -20 183 -70 228 -153 32 -60 31
-211 -2 -278 -53 -109 -166 -171 -311 -172 -95 -1 -140 8 -140 28 0 9 19 15
56 19 85 9 124 33 157 98 23 46 28 69 29 139 3 146 -47 237 -147 270 -36 12
-119 9 -132 -4 -10 -9 -3 -802 7 -854 10 -55 24 -70 92 -92 30 -11 54 -25 56
-34 3 -14 -25 -16 -252 -16 -221 0 -256 2 -256 15 0 9 9 15 23 15 39 0 84 36
98 77 15 47 6 823 -11 867 -11 29 -61 56 -105 56 -16 0 -25 6 -25 15 0 13 39
15 288 15 165 0 314 -5 347 -11z m1007 -16 c118 -42 160 -95 166 -210 2 -41
-1 -87 -8 -109 -25 -74 -119 -149 -212 -168 l-27 -6 53 -53 c29 -28 76 -92
105 -141 156 -265 324 -441 509 -535 162 -82 305 -115 502 -115 153 1 248 19
343 64 50 24 60 19 15 -8 -48 -29 -190 -71 -283 -84 -112 -15 -346 -4 -475 22
-208 42 -400 124 -544 232 -97 73 -146 138 -259 348 -69 127 -87 153 -139 201
l-51 46 60 12 c72 14 119 43 147 90 25 43 34 172 16 235 -16 57 -63 114 -114
137 -46 21 -136 25 -154 7 -14 -14 -16 -541 -3 -771 9 -158 18 -177 99 -199
25 -7 48 -20 50 -27 4 -12 -24 -13 -178 -8 -101 4 -216 7 -257 7 -58 0 -73 3
-73 15 0 10 10 15 28 15 36 0 68 23 89 63 14 28 16 68 15 287 -1 140 -4 329
-8 420 -7 163 -7 165 -35 192 -18 19 -38 28 -58 28 -25 0 -31 4 -31 21 0 20 2
20 328 17 298 -4 332 -6 384 -25z m1703 -150 c9 -66 15 -129 12 -140 -3 -10
-6 2 -7 27 -2 37 -3 40 -9 20 -5 -18 -10 0 -14 60 -4 47 -10 110 -12 140 -9
95 11 24 30 -107z m-5924 -217 c-14 -17 -51 -133 -51 -159 0 -20 0 -21 15 -1
19 24 19 18 0 -121 -14 -107 -20 -274 -10 -263 6 6 36 228 44 328 1 11 3 12 9
3 4 -7 7 -42 7 -79 -1 -57 0 -64 12 -48 11 16 19 94 15 147 -3 28 15 11 21
-20 9 -47 -10 -138 -49 -234 -20 -52 -41 -98 -45 -103 -5 -6 -9 -19 -9 -30 -1
-23 -48 73 -70 138 -16 48 -8 184 15 270 9 33 34 98 57 145 32 67 42 81 46 63
2 -13 -1 -29 -7 -36z m6284 -19 c47 -101 75 -207 82 -307 5 -82 4 -90 -31
-175 -22 -55 -36 -107 -37 -135 0 -34 -2 -40 -9 -25 -13 29 -12 93 1 101 23
14 -10 404 -33 404 -5 0 -8 -4 -8 -10 0 -5 -5 -10 -10 -10 -18 0 10 42 31 47
23 6 23 6 0 68 -22 60 -35 115 -26 115 3 0 22 -33 40 -73z m-66 -83 c-14 -36
-14 -141 1 -213 5 -30 11 -56 13 -57 2 -2 1 39 -1 91 -7 153 12 109 31 -72 22
-210 21 -211 -9 -138 -67 161 -81 245 -59 342 16 67 24 88 31 80 3 -2 -1 -17
-7 -33z m-6521 -441 c145 -83 219 -189 237 -338 l7 -60 -35 45 c-19 25 -55 77
-80 116 -25 39 -54 77 -63 85 -31 24 105 -211 149 -258 26 -29 8 -30 -53 -2
-108 48 -168 146 -200 320 -11 62 -20 114 -20 116 0 7 14 2 58 -24z m393 -35
c-14 -29 -32 -69 -40 -88 -9 -24 -15 -30 -18 -18 -4 17 25 82 59 131 28 40 28
33 -1 -25z m6509 38 c0 -99 -51 -273 -97 -335 -28 -36 -108 -91 -132 -91 -9 1
5 12 31 25 58 31 67 44 28 41 -17 -1 -43 -15 -61 -32 -32 -29 -31 -22 1 26 49
71 139 232 121 216 -11 -10 -57 -72 -102 -138 -45 -65 -83 -117 -85 -115 -2 2
1 32 6 68 22 136 111 262 229 324 54 28 61 30 61 11z m-6633 -238 c-3 -7 -5
-2 -5 12 0 14 2 19 5 13 2 -7 2 -19 0 -25z m164 15 c-13 -26 -61 -68 -61 -55
0 9 59 72 68 72 1 0 -2 -8 -7 -17z m-135 -173 c20 -95 72 -277 90 -312 27 -53
55 -134 39 -114 -45 58 -157 437 -154 521 2 33 3 35 6 10 2 -16 11 -64 19
-105z m2309 84 c179 -28 292 -53 385 -87 138 -51 150 -56 173 -73 20 -15 20
-16 2 -9 -211 73 -519 116 -855 118 -344 2 -556 -25 -995 -131 -260 -62 -380
-79 -459 -62 -57 12 -135 61 -144 90 -2 8 3 5 12 -7 70 -94 227 -95 546 -3
409 117 621 162 865 180 136 10 351 3 470 -16z m782 -40 c12 -21 28 -39 35
-39 7 0 22 17 33 37 23 43 41 54 61 37 25 -21 16 -48 -24 -68 -43 -22 -58 -37
-64 -66 -4 -18 -6 -17 -16 7 -6 15 -29 36 -52 48 -42 21 -53 53 -28 78 18 18
30 10 55 -34z m1078 36 c39 -6 79 -13 90 -17 33 -11 -26 -20 -136 -22 -110 -1
-348 -25 -459 -46 -41 -8 -118 -28 -170 -44 -52 -17 -96 -29 -97 -27 -4 4 80
40 172 74 205 75 430 106 600 82z m2102 -72 c-3 -7 -5 -2 -5 12 0 14 2 19 5
13 2 -7 2 -19 0 -25z m-5377 2 c0 -11 -4 -20 -10 -20 -5 0 -14 9 -20 20 -9 17
-8 20 10 20 13 0 20 -7 20 -20z m-111 -11 c11 -18 11 -23 -1 -30 -7 -5 -16 -9
-19 -9 -9 0 -24 21 -32 43 -9 26 35 22 52 -4z m-359 -19 c-6 -11 -13 -20 -16
-20 -2 0 0 9 6 20 6 11 13 20 16 20 2 0 0 -9 -6 -20z m-685 -86 c60 -11 124
-41 181 -85 60 -46 94 -93 124 -169 20 -50 20 -53 3 -39 -154 129 -246 199
-259 199 -5 -1 29 -37 76 -82 47 -44 69 -69 50 -54 -19 15 -50 34 -67 43 -18
9 -33 20 -33 24 0 18 -53 68 -70 66 -25 -2 -25 -10 -2 -44 9 -15 12 -24 5 -20
-13 8 -77 121 -88 156 -6 21 -5 23 16 18 13 -3 42 -9 64 -13z m3414 -48 c9 -8
35 -19 57 -24 l39 -9 -43 -7 c-44 -8 -72 -35 -72 -71 0 -13 -7 -5 -19 22 -17
36 -25 43 -63 51 l-43 9 43 8 c44 8 71 33 73 70 2 14 3 12 6 -6 2 -15 12 -34
22 -43z m3425 -2 c-30 -66 -105 -183 -135 -210 -21 -19 -26 -13 -6 8 7 7 23
28 36 46 l22 32 -25 0 c-14 0 -26 -4 -26 -9 0 -5 -24 -19 -54 -31 -30 -12 -74
-38 -98 -58 -82 -68 -83 -66 -4 8 44 41 101 93 128 114 26 22 46 42 43 44 -6
7 -65 -35 -170 -120 -48 -38 -88 -68 -90 -66 -1 1 10 30 26 64 55 115 175 204
313 229 33 7 62 11 64 10 1 -1 -10 -29 -24 -61z m-6438 -41 c1 -54 -2 -78 -6
-63 -10 31 -12 98 -4 128 4 12 7 22 8 22 0 0 2 -39 2 -87z m2025 47 c416 -41
747 -184 902 -390 l47 -62 0 -236 c0 -131 3 -248 6 -262 6 -23 5 -23 -13 5
-30 46 -156 160 -210 191 -26 15 -64 37 -83 49 -50 32 -238 99 -345 123 -186
43 -370 64 -577 66 -109 0 -198 3 -198 5 0 2 25 53 55 113 31 59 75 156 99
215 24 60 52 127 62 151 l19 42 66 0 c37 0 113 -5 170 -10z m2192 -47 c14 -32
37 -89 52 -128 35 -88 98 -215 140 -281 l33 -51 -212 -6 c-307 -8 -619 -62
-806 -140 -151 -62 -331 -190 -398 -282 -12 -16 -22 -25 -22 -18 0 6 6 18 13
25 27 27 34 52 25 87 -6 23 -12 30 -17 22 -15 -23 -21 30 -21 183 0 127 2 151
17 161 10 7 16 26 16 46 0 29 10 43 64 96 224 214 578 336 994 342 l96 1 26
-57z m-3054 -146 c40 -62 63 -103 51 -92 -36 32 -149 205 -133 204 4 0 41 -50
82 -112z m-241 30 l23 -42 -30 35 c-31 35 -38 50 -23 50 4 0 17 -19 30 -43z
m5106 -37 c-15 -33 -29 -59 -31 -56 -2 2 8 33 24 69 15 37 29 62 31 57 2 -5
-9 -37 -24 -70z m-6364 15 c42 -48 42 -48 6 -15 -21 19 -42 44 -48 55 -6 11
-9 18 -6 15 2 -3 24 -27 48 -55z m1150 -8 c56 -84 110 -157 177 -239 48 -59
59 -78 45 -78 -21 0 -56 35 -134 135 -108 138 -159 218 -146 227 20 12 21 11
58 -45z m710 43 c0 -5 -4 -10 -10 -10 -5 0 -10 5 -10 10 0 6 5 10 10 10 6 0
10 -4 10 -10z m3011 -139 c17 -53 44 -124 60 -157 15 -34 42 -97 59 -140 17
-44 36 -83 41 -88 29 -30 7 -33 -253 -35 -415 -3 -721 -44 -918 -123 -101 -40
-243 -132 -321 -206 l-46 -44 -46 35 c-25 19 -52 37 -59 39 -17 6 71 106 141
162 31 24 81 56 111 71 30 15 62 31 70 36 8 4 35 19 60 32 25 14 79 32 120 42
41 9 89 21 105 25 54 16 131 23 120 12 -12 -12 -156 -52 -188 -52 -25 0 -72
-29 -48 -30 7 0 70 13 140 29 69 17 155 35 191 40 72 12 422 31 554 31 48 0
88 5 91 10 4 6 -11 35 -32 65 -48 69 -83 127 -83 140 0 6 4 4 9 -4 5 -8 18
-15 29 -16 18 -1 22 7 23 54 1 38 15 13 70 -119 28 -69 53 -130 55 -136 4 -8
-76 -13 -283 -17 -158 -3 -322 -11 -363 -17 -117 -17 -381 -70 -399 -79 -28
-15 -109 -21 -113 -9 -4 11 -63 -14 -70 -30 -1 -4 -21 -19 -43 -32 -105 -62
-235 -176 -235 -204 0 -15 31 -4 40 14 18 33 159 140 225 170 107 50 134 59
137 50 2 -5 28 0 59 10 55 19 200 46 364 69 123 17 362 31 548 31 144 0 167 2
167 15 0 20 -58 185 -99 284 -17 41 -30 76 -28 78 3 2 16 -24 30 -57 32 -74
45 -80 16 -7 -12 28 -24 60 -27 70 -2 10 -10 16 -18 13 -8 -3 -18 11 -28 40
-8 24 -11 42 -5 39 5 -4 9 -13 9 -21 0 -8 5 -14 10 -14 15 0 12 23 -5 46 -8
10 -14 24 -15 29 0 28 43 -61 71 -144z m971 135 c6 4 5 -3 -2 -15 -6 -12 -16
-18 -22 -15 -7 5 -9 2 -5 -9 4 -10 2 -16 -5 -14 -6 1 -13 -4 -16 -12 -3 -9 0
-11 9 -6 7 5 -1 -16 -19 -46 -17 -30 -35 -54 -41 -54 -5 0 -13 -4 -18 -9 -5
-5 -3 -6 5 -2 6 4 12 4 12 1 0 -8 -132 -185 -137 -185 -3 0 5 13 16 29 27 38
27 49 -1 25 -11 -10 4 15 34 56 30 41 81 119 114 172 32 54 61 93 62 88 2 -6
8 -7 14 -4z m-4936 -98 c53 -87 117 -182 171 -255 21 -27 22 -31 6 -28 -10 1
-17 8 -15 15 1 6 -2 9 -7 6 -14 -9 -146 171 -209 286 -23 40 -28 58 -19 61 6
3 13 6 14 6 1 1 27 -41 59 -91z m24 67 c0 -8 -2 -15 -4 -15 -2 0 -6 7 -10 15
-3 8 -1 15 4 15 6 0 10 -7 10 -15z m812 -131 c-32 -77 -73 -178 -92 -227 -18
-48 -34 -86 -36 -84 -6 6 24 92 76 217 28 69 58 142 65 162 18 49 36 81 41 75
3 -2 -22 -67 -54 -143z m3028 131 c-7 -8 -20 -15 -28 -15 -13 0 -12 3 4 15 25
19 40 19 24 0z m-2773 -31 c-3 -3 -12 -4 -19 -1 -8 3 -5 6 6 6 11 1 17 -2 13
-5z m-117 -51 c-11 -17 -11 -17 -6 0 3 10 6 24 7 30 0 9 2 9 5 0 3 -7 0 -20
-6 -30z m-63 -39 c-14 -33 -30 -75 -35 -94 -18 -57 -49 -142 -71 -193 -12 -27
-21 -52 -21 -56 0 -4 116 -11 258 -14 373 -10 548 -31 747 -88 172 -49 200
-34 35 19 -226 73 -368 93 -723 99 -252 5 -278 7 -272 22 4 9 29 75 57 146 27
72 57 141 65 155 l14 25 -6 -25 c-4 -14 -13 -53 -21 -86 -7 -34 -18 -74 -24
-89 -5 -14 -10 -29 -10 -32 0 -11 42 31 71 71 45 61 34 27 -16 -51 -25 -39
-54 -73 -65 -76 -31 -8 -24 -26 13 -31 17 -3 120 -8 227 -11 422 -12 618 -51
860 -168 136 -66 225 -124 289 -191 37 -38 61 -46 61 -20 0 14 3 14 15 4 14
-11 11 -15 -17 -32 -18 -11 -43 -29 -55 -41 l-23 -20 -47 45 c-145 135 -398
243 -693 295 -131 24 -176 26 -477 30 -183 3 -333 7 -333 9 0 2 29 74 65 159
36 86 65 159 65 162 0 3 12 24 28 47 15 22 33 53 41 68 25 48 23 23 -2 -38z
m3102 3 c11 -26 17 -47 13 -47 -7 0 -16 21 -40 90 -11 32 8 2 27 -43z m-3929
35 c0 -4 27 -45 60 -91 33 -46 58 -87 55 -89 -5 -6 -32 26 -92 112 -44 62 -50
76 -33 76 6 0 10 -3 10 -8z m-439 -112 l-9 -45 -1 40 c0 22 3 58 7 80 l7 40 3
-35 c1 -19 -2 -55 -7 -80z m-132 -41 c39 -65 96 -145 126 -178 30 -34 55 -67
55 -73 0 -36 -155 161 -214 271 -25 49 -46 92 -46 96 0 12 1 10 79 -116z
m5852 27 c-54 -99 -82 -140 -141 -206 -28 -30 -65 -73 -84 -95 -19 -22 -34
-33 -32 -24 1 9 27 44 58 77 64 70 163 204 204 279 16 28 31 50 33 48 2 -2
-15 -38 -38 -79z m-881 24 c-11 -16 -26 -33 -32 -36 -7 -4 1 9 16 29 34 44 46
50 16 7z m-130 16 c0 -2 -8 -10 -17 -17 -16 -13 -17 -12 -4 4 13 16 21 21 21
13z m-300 -51 c0 -5 -5 -3 -10 5 -5 8 -10 20 -10 25 0 6 5 3 10 -5 5 -8 10
-19 10 -25z m460 32 c0 -2 -10 -12 -22 -23 l-23 -19 19 23 c18 21 26 27 26 19z
m-5217 -52 c32 -8 74 -23 95 -34 43 -22 135 -101 128 -109 -3 -3 -1 -11 5 -19
7 -7 -25 2 -69 21 -108 46 -206 76 -251 76 -20 0 -43 4 -51 9 -25 17 -31 0
-10 -29 38 -53 102 -94 199 -127 53 -17 92 -32 86 -32 -30 -1 -145 33 -181 54
-39 23 -194 178 -194 195 0 14 183 11 243 -5z m6484 1 c2 -1 -16 -20 -40 -42
-23 -21 -31 -27 -18 -12 14 16 22 30 20 33 -7 6 -82 -14 -93 -26 -6 -5 -18 -9
-29 -9 -10 0 -85 -27 -168 -60 -82 -33 -152 -60 -155 -60 -3 0 8 18 25 39 56
71 168 130 271 144 23 3 182 -3 187 -7z m-1657 -140 c17 -37 29 -73 27 -79 -3
-10 -98 203 -96 219 0 10 23 -35 69 -140z m-1677 109 c-3 -9 -8 -14 -10 -11
-3 3 -2 9 2 15 9 16 15 13 8 -4z m-3196 -56 c61 -25 223 -103 219 -106 -2 -2
-24 5 -50 16 -25 11 -49 20 -52 20 -11 -2 -154 66 -154 74 0 9 4 9 37 -4z
m6343 -8 c0 -4 -28 -21 -62 -35 -35 -15 -66 -32 -69 -38 -4 -6 -24 -17 -45
-25 -42 -16 -113 -29 -103 -19 6 6 260 123 272 125 4 1 7 -3 7 -8z m110 6 c0
-2 -10 -12 -22 -23 l-23 -19 19 23 c18 21 26 27 26 19z m-50 -41 c0 -2 -8 -10
-17 -17 -16 -13 -17 -12 -4 4 13 16 21 21 21 13z m-50 -41 c-38 -46 -204 -91
-246 -67 -17 10 -14 12 16 12 88 3 139 14 185 40 61 34 60 34 45 15z m-4919
-92 c-11 -21 -20 -35 -21 -32 0 14 31 81 36 76 3 -3 -4 -22 -15 -44z m1212 6
c34 -11 67 -26 72 -32 6 -7 15 -12 20 -12 24 -1 85 -30 85 -41 0 -7 8 -10 20
-7 14 4 20 0 20 -11 0 -10 5 -14 10 -11 14 9 96 -45 143 -93 28 -28 35 -42 26
-47 -7 -5 -10 -4 -6 2 7 12 -24 43 -46 47 -23 3 -68 36 -62 45 2 5 -1 8 -8 8
-6 -1 -54 20 -106 46 -52 26 -101 47 -108 47 -7 0 -13 7 -13 15 0 8 -3 14 -7
13 -5 -2 -36 6 -71 16 -41 13 -58 22 -50 28 17 10 9 11 81 -13z m-1501 -11 c2
-14 12 -24 28 -28 25 -6 25 -6 -5 -14 -16 -4 -55 -12 -85 -17 -30 -5 -94 -28
-142 -51 l-87 -43 4 -45 c3 -25 8 -56 10 -70 10 -46 13 -74 20 -155 4 -44 12
-83 17 -86 7 -4 6 -14 -1 -28 -15 -26 -15 -26 52 5 85 38 148 46 238 27 42 -9
87 -24 100 -35 22 -17 21 -17 -21 2 -73 32 -127 21 -88 -18 9 -9 -1 -12 -47
-12 -33 0 -67 5 -75 10 -10 6 -11 10 -2 10 6 0 12 7 12 15 0 22 -37 18 -95 -9
-53 -25 -91 -59 -81 -74 3 -5 -5 -19 -18 -31 l-23 -21 1 167 c0 162 -1 177
-39 350 -4 16 4 31 27 52 40 37 61 41 28 6 -13 -14 -18 -25 -12 -25 24 0 215
85 218 98 2 6 6 19 9 27 7 25 53 19 57 -7z m4085 16 c-3 -3 -12 -4 -19 -1 -8
3 -5 6 6 6 11 1 17 -2 13 -5z m59 -58 c83 -28 165 -69 183 -90 18 -21 6 -87
-14 -80 -7 3 -16 12 -19 20 -5 12 -1 14 15 9 18 -6 19 -4 10 13 -15 28 -77 72
-130 92 -59 23 -196 44 -234 36 -17 -3 -27 -3 -23 1 4 4 33 11 64 14 31 3 62
7 68 8 6 0 42 -10 80 -23z m-3885 -19 c-10 -9 -11 -8 -5 6 3 10 9 15 12 12 3
-3 0 -11 -7 -18z m704 -2 c375 -55 653 -155 841 -300 68 -53 66 -59 -5 -11
-65 44 -256 137 -341 166 -190 64 -378 108 -650 149 l-55 9 55 1 c30 0 100 -6
155 -14z m2324 11 c-2 -2 -71 -14 -154 -25 -144 -21 -297 -55 -455 -101 -99
-28 -333 -137 -411 -190 -75 -51 -87 -48 -18 5 211 161 493 260 864 304 76 9
181 13 174 7z m1077 -191 c-22 -142 -30 -306 -19 -377 l10 -57 -34 26 c-18 14
-33 30 -33 36 0 5 10 2 21 -9 l22 -19 -7 94 c-5 73 -2 132 15 258 l22 163 -29
33 c-24 27 -22 26 10 -5 l39 -36 -17 -107z m-5176 150 c0 -3 -12 -10 -27 -16
l-28 -11 21 -17 c21 -17 19 -18 -61 -30 -46 -7 -103 -11 -127 -10 -24 2 -48 0
-54 -3 -10 -7 -42 8 -34 15 3 3 52 21 110 41 92 31 200 48 200 31z m5838 -19
c37 -12 86 -32 110 -42 l43 -19 -53 -28 c-29 -16 -44 -21 -34 -13 11 9 23 16
28 16 4 0 8 4 8 9 0 13 -54 23 -159 28 -89 4 -92 5 -70 21 l23 16 -40 17 -39
18 58 0 c36 1 82 -8 125 -23z m-4172 -21 c87 -9 188 -20 224 -26 94 -16 290
-66 331 -84 22 -11 25 -14 9 -10 -253 61 -540 104 -737 112 -84 3 -153 10
-153 15 0 13 150 10 326 -7z m2434 -10 c-325 -34 -490 -61 -643 -106 -96 -28
-94 -17 2 14 192 64 517 112 766 114 73 1 50 -3 -125 -22z m-2530 -60 c230
-22 478 -58 615 -89 96 -22 48 -18 -107 9 -252 43 -554 74 -813 84 -137 5
-253 7 -257 5 -10 -7 -10 10 0 21 11 12 289 -3 562 -30z m-1010 0 c-7 -9 -15
-13 -18 -10 -3 2 1 11 8 20 7 9 15 13 18 10 3 -2 -1 -11 -8 -20z m-570 5 c0
-6 -23 -9 -52 -9 l-53 2 40 7 c60 11 65 11 65 0z m4339 6 c-3 -3 -81 -12 -174
-20 -216 -20 -318 -31 -482 -56 -142 -22 -149 -22 -142 -15 3 2 71 16 153 30
204 36 663 79 645 61z m-4468 -64 c-9 -3 -91 35 -91 42 0 3 23 -5 51 -17 28
-12 46 -23 40 -25z m1114 18 c15 -6 108 -24 208 -41 100 -16 254 -44 342 -60
88 -17 223 -42 300 -55 77 -13 145 -26 152 -29 7 -2 11 -18 10 -36 l-2 -31
-54 6 c-29 4 -61 11 -71 16 -10 6 -32 10 -49 10 -73 0 -703 112 -853 151 -38
10 -46 26 -32 63 7 19 14 19 49 6z m3786 -21 c8 -17 8 -24 -3 -35 -16 -16
-463 -104 -753 -149 -60 -9 -143 -23 -184 -31 -93 -18 -115 -18 -108 0 3 7 0
19 -6 25 -17 17 2 28 68 39 33 6 152 28 265 51 113 22 264 50 335 61 72 11
177 29 235 39 137 25 137 25 151 0z m-4854 -5 c-3 -3 -12 -4 -19 -1 -8 3 -5 6
6 6 11 1 17 -2 13 -5z m5878 -4 c-11 -5 -31 -8 -45 -8 l-25 0 25 8 c14 4 34 8
45 8 l20 1 -20 -9z m-5762 -7 c-18 -2 -48 -2 -65 0 -18 2 -4 4 32 4 36 0 50
-2 33 -4z m2297 -3 c13 -8 13 -10 -2 -10 -9 0 -20 5 -23 10 -8 13 5 13 25 0z
m1040 0 c-8 -5 -19 -10 -25 -10 -5 0 -3 5 5 10 8 5 20 10 25 10 6 0 3 -5 -5
-10z m-3158 -9 c-11 -6 -10 -10 5 -16 14 -5 8 -11 -31 -26 -27 -11 -58 -27
-70 -35 -20 -16 -20 -16 16 -11 23 4 38 1 41 -6 2 -6 23 -11 48 -10 39 1 41
-1 19 -9 -29 -11 -170 -5 -195 9 -14 8 -11 14 21 43 42 36 108 70 139 70 15 0
16 -3 7 -9z m3305 -7 c-3 -3 -12 -4 -19 -1 -8 3 -5 6 6 6 11 1 17 -2 13 -5z
m1360 -16 c-3 -8 -6 -5 -6 6 -1 11 2 17 5 13 3 -3 4 -12 1 -19z m763 -63 c23
-28 2 -16 -37 21 -33 32 -34 34 -7 16 17 -12 37 -28 44 -37z m-23 -21 c-3 -3
-12 -4 -19 -1 -8 3 -5 6 6 6 11 1 17 -2 13 -5z m-3293 -80 c44 -8 81 -16 83
-18 2 -1 -2 -17 -8 -35 l-12 -33 -75 7 c-41 4 -105 15 -141 24 -63 16 -66 18
-69 50 l-3 32 73 -6 c40 -4 109 -13 152 -21z m1234 -11 c-3 -36 -6 -39 -48
-49 -25 -6 -75 -14 -112 -18 -65 -6 -68 -6 -68 15 0 12 -7 27 -16 34 -13 9 -2
14 62 28 113 24 116 25 152 26 32 1 33 0 30 -36z m-905 -13 c44 -35 104 -50
196 -50 104 0 154 13 179 45 21 27 42 33 42 12 0 -22 -28 -54 -60 -67 -32 -13
-37 -24 -19 -36 23 -14 -55 -34 -131 -34 -90 0 -126 10 -135 39 -3 11 -30 33
-60 50 -30 17 -55 38 -55 46 0 20 12 19 43 -5z m2318 -5 c74 -8 159 -47 159
-74 0 -19 -1 -19 -24 4 -22 22 -109 55 -146 55 -29 0 -32 -14 -8 -32 23 -17
22 -18 -56 -18 -72 0 -78 1 -60 14 13 10 16 18 8 25 -14 15 -101 -11 -140 -41
-20 -15 -24 -17 -15 -5 38 47 148 91 206 81 11 -2 45 -6 76 -9z m-4729 -98
c-29 -30 -31 -34 -18 -59 8 -14 10 -30 5 -35 -5 -5 13 -23 40 -41 l48 -33 -2
-115 -3 -114 26 -1 c16 -1 8 -5 -20 -9 -26 -5 -62 -15 -79 -24 -18 -9 -33 -16
-35 -16 -8 0 30 91 66 155 22 40 40 82 40 93 0 31 -42 58 -147 93 l-95 31 78
38 c44 21 88 45 99 53 32 26 31 19 -3 -16z m5329 -47 l57 -26 -106 -36 c-93
-31 -103 -33 -81 -14 13 12 30 37 35 56 10 32 8 38 -20 69 l-31 34 44 -29 c25
-16 70 -40 102 -54z m-1674 4 c-3 -3 -12 -4 -19 -1 -8 3 -5 6 6 6 11 1 17 -2
13 -5z m-40 -10 c-3 -3 -12 -4 -19 -1 -8 3 -5 6 6 6 11 1 17 -2 13 -5z m-2447
-68 c0 -19 -1 -19 -20 2 -32 34 -63 29 -76 -13 -10 -32 -9 -37 8 -46 11 -6 26
-8 34 -5 16 6 17 4 8 -17 -5 -13 -9 -13 -32 -1 -30 15 -33 13 -52 -34 -16 -41
-4 -56 44 -56 24 0 32 -4 29 -14 -3 -8 -12 -10 -22 -7 -9 4 -35 14 -58 22 -24
8 -43 19 -43 24 0 4 14 45 30 91 17 45 28 89 25 98 -5 14 3 14 60 -4 50 -16
65 -25 65 -40z m2403 57 c-7 -2 -19 -2 -25 0 -7 3 -2 5 12 5 14 0 19 -2 13 -5z
m642 -10 c-27 -71 -24 -160 7 -199 5 -8 3 -14 -8 -18 -27 -10 -32 -7 -38 29
-8 42 -51 94 -100 120 -43 23 -45 31 -10 38 20 4 33 -4 64 -37 l39 -41 10 28
c6 16 11 41 11 56 0 29 7 41 23 41 5 0 6 -8 2 -17z m-698 1 c-3 -3 -12 -4 -19
-1 -8 3 -5 6 6 6 11 1 17 -2 13 -5z m493 -73 c0 -5 -11 -6 -25 -3 -49 9 -54
-9 -29 -110 28 -113 28 -105 4 -111 -16 -4 -20 0 -20 20 0 13 -10 58 -22 99
-25 80 -41 91 -77 55 -16 -16 -21 -17 -25 -6 -4 11 20 22 87 44 87 28 107 30
107 12z m-2679 -109 c24 -50 44 -81 49 -76 5 5 16 38 24 73 15 63 22 79 31 69
3 -2 -4 -31 -14 -64 -10 -32 -24 -79 -31 -103 -6 -24 -15 -40 -20 -35 -5 5
-31 51 -58 103 -27 51 -52 89 -54 85 -3 -5 -13 -39 -24 -76 -10 -38 -24 -68
-31 -68 -16 0 -16 2 2 36 8 15 22 61 31 101 17 70 18 72 36 56 11 -9 37 -55
59 -101z m-988 86 c12 -7 40 -15 62 -19 l40 -6 -35 -1 c-29 -1 -124 36 -97 38
5 0 18 -5 30 -12z m4470 -25 c-7 -2 -19 -2 -25 0 -7 3 -2 5 12 5 14 0 19 -2
13 -5z m-4294 -17 c15 -8 34 -23 42 -32 9 -12 3 -10 -17 5 -18 13 -47 27 -65
31 -25 6 -28 8 -11 9 13 1 35 -5 51 -13z m3255 -2 c4 -9 3 -20 0 -23 -4 -3 -9
0 -11 7 -3 6 -19 12 -36 13 -27 0 -29 2 -12 9 32 14 52 11 59 -6z m983 10 c-3
-3 -12 -4 -19 -1 -8 3 -5 6 6 6 11 1 17 -2 13 -5z m-52 -16 c-11 -6 -33 -20
-50 -30 l-30 -20 33 31 c18 17 40 31 50 31 15 -1 14 -2 -3 -12z m-1020 -8
c-11 -18 15 -80 33 -80 15 -1 15 -2 -1 -11 -10 -6 -16 -18 -13 -27 2 -9 7 -29
10 -44 4 -17 13 -28 24 -29 9 0 2 -5 -17 -10 -18 -6 -34 -9 -35 -7 -1 2 -10
44 -20 93 -10 50 -24 95 -33 102 -12 10 -12 12 4 16 33 9 54 7 48 -3z m-2114
-14 c-32 -18 -50 -53 -50 -96 0 -43 18 -78 50 -96 15 -8 18 -13 9 -14 -26 0
-80 39 -90 66 -21 55 -6 109 38 137 15 9 36 16 47 16 18 0 18 -1 -4 -13z m114
2 c28 -12 29 -16 15 -38 -9 -13 -10 -13 -10 0 0 9 -12 23 -27 32 -32 20 -17
24 22 6z m3528 -103 c19 -38 37 -80 41 -93 l7 -22 -47 25 c-26 14 -61 25 -78
26 -17 0 -40 4 -51 9 -16 7 -13 9 16 9 35 1 36 2 48 54 8 39 9 62 1 83 l-10
29 19 -25 c11 -14 35 -56 54 -95z m-1660 -5 c21 -123 21 -120 -2 -120 -15 0
-19 10 -24 53 -4 28 -13 76 -20 104 -15 56 -13 63 13 63 14 0 20 -20 33 -100z
m-1713 68 c0 -7 -7 -51 -14 -98 -16 -94 -11 -110 33 -110 15 0 33 6 40 13 11
10 13 9 9 -3 -4 -12 -19 -14 -68 -12 -35 1 -65 4 -67 6 -2 1 4 51 14 109 14
90 20 107 35 107 10 0 18 -6 18 -12z m1577 -3 c9 -24 0 -25 -27 -5 l-25 20 23
0 c12 0 25 -7 29 -15z m-114 -20 c-52 -37 -30 -155 34 -181 44 -19 42 -28 -3
-19 -67 12 -104 52 -104 111 0 46 44 103 80 104 9 0 7 -5 -7 -15z m467 -6 c0
-11 -4 -17 -10 -14 -5 3 -10 13 -10 21 0 8 5 14 10 14 6 0 10 -9 10 -21z
m-1726 2 c4 -5 1 -44 -5 -88 -6 -43 -11 -88 -11 -100 0 -17 -6 -23 -22 -23
-22 0 -22 0 -10 88 7 48 13 97 13 110 1 22 24 31 35 13z m1073 -18 c34 -16 63
-61 63 -99 0 -31 -33 -85 -61 -99 -48 -25 -114 -19 -150 13 -45 40 -52 106
-14 150 30 36 54 44 31 10 -20 -28 -20 -78 -2 -123 37 -89 156 -66 156 31 0
45 -26 97 -59 117 -34 22 -9 22 36 0z m-948 -15 c-10 -19 -6 -26 40 -69 56
-51 63 -77 31 -109 -26 -26 -49 -27 -26 -1 22 24 11 49 -39 86 -43 33 -51 59
-31 90 21 31 41 34 25 3z m91 0 c0 -12 -1 -19 -3 -17 -1 2 -9 12 -16 22 -12
14 -11 17 3 17 10 0 16 -8 16 -22z m120 -37 c0 -54 9 -61 83 -61 45 0 55 16
39 66 -10 32 -9 34 14 34 l24 0 -2 -110 c-3 -97 -5 -110 -20 -110 -15 0 -18 9
-18 55 l0 55 -60 0 -60 0 0 -50 c0 -45 -2 -50 -22 -50 -22 0 -23 3 -23 110 0
107 1 110 23 110 20 0 22 -5 22 -49z m477 34 c9 -25 -2 -27 -22 -5 -17 18 -17
20 -1 20 9 0 19 -7 23 -15z m-83 -19 c-4 -19 3 -29 45 -60 59 -42 67 -77 27
-115 -34 -32 -100 -27 -104 9 l-4 25 22 -22 c25 -28 51 -29 74 -4 23 25 12 46
-40 76 -47 28 -63 60 -44 94 15 28 32 27 24 -3z m-1081 -3 c7 -13 -33 -97 -42
-87 -4 5 -6 28 -3 52 3 32 8 42 22 42 11 0 21 -3 23 -7z m2114 -38 c-4 -8 -17
-15 -29 -14 l-23 0 23 9 c12 5 22 15 22 21 0 7 3 10 6 6 4 -3 4 -13 1 -22z
m-357 -59 c0 -15 -57 -43 -67 -32 -3 3 0 6 9 6 8 0 23 9 33 20 21 24 25 25 25
6z m667 -12 c-3 -3 -12 -4 -19 -1 -8 3 -5 6 6 6 11 1 17 -2 13 -5z m-1950 -54
c9 0 14 -3 10 -6 -3 -4 -18 -4 -32 0 -19 5 -25 13 -25 34 l1 27 15 -27 c8 -16
22 -28 31 -28z m-884 9 c43 -12 76 -23 74 -26 -6 -5 -158 37 -177 49 -18 11
-11 10 103 -23z m2667 -4 c-142 -42 -191 -55 -202 -54 -7 0 25 12 72 26 47 13
96 28 110 33 14 4 34 8 45 8 11 0 0 -6 -25 -13z m-2553 -31 c-3 -3 -12 -4 -19
-1 -8 3 -5 6 6 6 11 1 17 -2 13 -5z m2320 -30 c-3 -3 -12 -4 -19 -1 -8 3 -5 6
6 6 11 1 17 -2 13 -5z m-38 -8 c-18 -18 -420 -84 -654 -107 -285 -28 -872 -9
-1105 36 -75 14 -75 15 -15 9 33 -2 116 -11 185 -19 215 -25 472 -33 695 -24
235 10 571 48 745 83 114 24 157 30 149 22z m-1966 -33 c-7 -2 -21 -2 -30 0
-10 3 -4 5 12 5 17 0 24 -2 18 -5z m50 -10 c-7 -2 -19 -2 -25 0 -7 3 -2 5 12
5 14 0 19 -2 13 -5z m70 -10 c-7 -2 -21 -2 -30 0 -10 3 -4 5 12 5 17 0 24 -2
18 -5z m-464 -82 c12 -8 9 -11 -11 -16 -30 -8 -68 1 -68 16 0 12 60 12 79 0z
m2550 0 c15 -10 -29 -18 -68 -13 -19 3 -21 6 -10 13 18 11 60 11 78 0z m-1959
-40 c0 -6 -17 -12 -37 -14 -28 -3 -23 -4 22 -6 71 -3 50 -19 -26 -20 -26 -1
-60 -4 -78 -7 -60 -12 -18 -24 87 -24 97 -1 105 -2 87 -15 -48 -37 -209 -55
-320 -36 -65 12 -173 57 -162 68 3 3 54 18 114 34 84 22 131 28 211 29 57 0
102 -4 102 -9z m1584 -17 c144 -34 146 -36 104 -62 -58 -36 -161 -55 -273 -49
-103 5 -139 13 -129 28 3 5 -7 9 -23 9 -15 0 -35 5 -43 10 -10 7 21 10 97 10
61 0 114 4 118 9 6 11 -39 18 -178 27 -54 3 -96 8 -93 11 2 3 53 5 113 5 77 0
98 2 74 8 -19 4 -51 6 -70 4 -31 -3 -32 -2 -11 5 53 19 200 12 314 -15z m-549
-4 c3 -5 -7 -12 -22 -15 -121 -25 -235 -79 -305 -145 -33 -32 -39 -42 -29 -54
15 -17 0 -29 -38 -31 -44 -3 -54 5 -35 26 15 17 15 20 -7 47 -62 77 -218 149
-349 162 l-85 8 115 -2 c144 -3 199 -23 298 -106 l71 -59 68 55 c37 31 85 65
106 75 74 38 198 61 212 39z m-807 -161 c-24 -14 -22 -25 5 -34 21 -6 21 -7
-10 -21 -42 -18 -173 -31 -173 -17 0 16 49 45 110 64 63 21 95 24 68 8z m969
-42 c18 -12 33 -26 33 -31 0 -16 -125 1 -175 23 -54 24 -57 36 -5 21 28 -8 36
-7 43 6 12 21 59 12 104 -19z m-677 -46 c0 -15 114 -141 127 -141 6 0 40 31
74 70 41 46 66 67 73 60 15 -15 -8 -50 -80 -121 l-64 -63 -71 69 c-79 78 -92
97 -83 119 7 17 24 22 24 7z"/>
<path d="M4308 7713 c-28 -4 -36 -17 -18 -28 5 -3 20 3 32 14 12 12 20 20 17
20 -2 -1 -16 -4 -31 -6z"/>
<path d="M5725 7317 c-10 -8 -15 -19 -11 -25 3 -6 -7 -26 -24 -45 -37 -43 -38
-63 -3 -99 25 -27 26 -29 9 -41 -10 -8 -18 -26 -18 -40 0 -19 -10 -34 -28 -47
-34 -24 -65 -27 -56 -5 7 20 -21 84 -40 92 -9 3 -29 -1 -44 -11 -16 -9 -35
-14 -43 -10 -18 7 -50 86 -42 106 5 12 -12 16 -101 22 -58 4 -107 5 -108 4 -1
-2 0 -30 2 -64 3 -57 5 -61 27 -57 20 4 23 0 30 -43 6 -45 19 -65 73 -119 19
-19 21 -27 12 -49 -8 -22 -15 -26 -52 -26 -24 0 -56 -7 -72 -15 -35 -19 -45
-12 -22 14 13 15 14 20 4 24 -10 5 -9 9 4 17 28 18 41 49 28 66 -16 19 -30 9
-31 -24 l-1 -27 -7 25 c-5 17 -9 21 -15 12 -4 -6 -4 -16 -1 -22 7 -12 -81 -57
-92 -46 -4 4 -2 16 5 27 17 27 0 48 -33 41 -30 -5 -33 -22 -5 -22 11 0 20 -4
20 -10 0 -5 -4 -10 -9 -10 -6 0 -9 -18 -9 -40 0 -22 4 -40 9 -40 5 0 9 -7 9
-15 0 -8 -5 -15 -10 -15 -6 0 -13 7 -16 15 -9 22 -23 18 -17 -5 3 -11 8 -18
12 -16 3 2 12 -2 19 -10 7 -8 9 -14 4 -14 -5 0 -12 -13 -15 -28 -3 -15 -17
-40 -31 -55 -14 -16 -26 -35 -26 -45 0 -13 -3 -13 -12 -4 -7 7 -13 18 -14 25
0 7 -2 20 -2 30 -1 9 -6 17 -11 17 -14 0 -22 -31 -11 -45 7 -8 5 -12 -5 -12
-8 0 -15 7 -15 15 0 9 -3 12 -7 9 -3 -4 -11 0 -17 8 -9 13 -15 12 -40 -10 -16
-14 -34 -25 -41 -25 -20 0 -52 45 -49 71 1 13 -5 34 -12 47 -12 19 -12 22 0
22 16 0 38 24 30 33 -4 3 -15 2 -25 -4 -15 -7 -19 -6 -19 6 0 8 5 15 10 15 6
0 10 9 10 20 0 11 -4 20 -9 20 -5 0 -11 10 -14 21 -6 21 -5 21 19 -2 26 -24
35 -8 9 17 -8 9 -15 22 -15 31 0 13 3 13 15 3 13 -10 15 -9 15 9 0 12 -4 20
-9 17 -5 -3 -15 2 -22 11 -12 15 -12 16 7 11 19 -5 21 -1 20 25 0 17 5 32 12
35 9 3 13 -3 10 -19 -2 -20 1 -24 22 -23 14 0 24 5 23 10 -1 6 5 11 13 11 8 0
14 -4 14 -9 0 -4 9 -17 19 -27 14 -14 21 -16 24 -7 3 7 -8 23 -24 35 -16 13
-29 31 -29 40 0 9 3 12 8 6 4 -5 14 -11 22 -13 8 -2 16 -8 18 -13 2 -5 10 -2
18 6 8 8 22 11 32 8 15 -6 15 -5 3 10 -17 21 -7 34 13 18 11 -9 20 -9 34 -2
29 16 49 -10 21 -27 -11 -7 -24 -10 -29 -7 -5 3 -11 1 -15 -4 -10 -17 27 -30
42 -15 11 11 17 11 28 1 11 -10 11 -14 0 -26 -12 -12 -10 -17 7 -31 20 -16 23
-15 59 4 38 21 38 21 53 1 15 -20 15 -20 16 3 0 12 -3 22 -7 22 -5 0 -8 48 -8
107 l0 108 -100 7 c-76 4 -106 3 -127 -8 -42 -22 -95 -18 -101 6 -4 17 -14 20
-54 20 -26 0 -64 3 -84 6 l-36 6 -23 -83 c-12 -46 -30 -111 -40 -144 -41 -138
-120 -529 -109 -539 6 -6 221 -32 424 -52 28 -2 74 -9 104 -14 30 -6 57 -8 59
-5 3 3 0 16 -6 30 -10 21 -9 30 4 49 10 17 14 40 11 75 -6 65 5 72 92 60 76
-11 91 -3 91 50 0 40 -32 81 -63 81 -14 0 -17 -11 -19 -62 l-1 -63 -6 55 c-9
81 -5 88 45 96 24 3 44 10 44 15 0 5 11 9 24 9 23 0 116 80 116 100 0 5 18 14
41 20 35 10 39 14 33 33 -4 12 -11 24 -15 25 -14 6 -10 24 9 38 26 20 32 17
32 -19 0 -18 5 -38 12 -45 15 -15 117 -16 154 -2 19 8 30 8 38 0 23 -23 36
-10 36 36 0 46 0 46 30 41 34 -7 37 -1 14 32 -20 28 -7 41 43 41 36 0 49 12
30 28 -8 7 -29 7 -62 1 -47 -9 -51 -8 -72 16 -28 32 -29 50 -5 97 13 24 16 41
10 52 -11 20 -19 20 -43 3z m-690 -157 c3 -5 1 -10 -4 -10 -6 0 -11 5 -11 10
0 6 2 10 4 10 3 0 8 -4 11 -10z m-48 -15 c0 -8 -4 -15 -9 -15 -10 0 -11 14 -1
23 9 10 10 9 10 -8z m163 -14 c0 -24 -16 -36 -26 -20 -4 8 -3 9 4 5 7 -4 12
-2 12 3 0 6 -5 11 -11 11 -5 0 -7 5 -4 10 10 17 25 11 25 -9z m-280 -12 c0
-14 -17 -10 -23 5 -4 10 -1 13 9 9 7 -3 14 -9 14 -14z m160 2 c0 -5 -7 -11
-15 -15 -15 -5 -20 5 -8 17 9 10 23 9 23 -2z m-110 -8 c-8 -3 -18 -11 -22 -17
-4 -6 -10 -7 -15 -3 -9 10 16 27 37 26 13 -1 13 -1 0 -6z m190 -18 c0 -8 -4
-15 -9 -15 -13 0 -22 16 -14 24 11 11 23 6 23 -9z m-160 -4 c0 -5 -7 -11 -14
-14 -10 -4 -13 -1 -9 9 6 15 23 19 23 5z m-80 -9 c0 -13 -12 -22 -22 -16 -10
6 -1 24 13 24 5 0 9 -4 9 -8z m860 -33 c0 -24 -4 -38 -10 -34 -17 10 -11 75 7
75 2 0 3 -18 3 -41z m-616 5 c19 -7 22 -33 4 -30 -22 3 -39 17 -33 27 7 11 9
11 29 3z m250 -3 c5 -1 3 -8 -4 -16 -10 -12 -16 -13 -26 -4 -19 16 -17 28 4
24 9 -2 21 -4 26 -4z m32 -54 c16 6 19 -13 4 -22 -10 -6 -40 17 -40 31 0 5 5
3 11 -3 6 -6 18 -9 25 -6z m-656 -67 c0 -5 -2 -10 -4 -10 -3 0 -8 5 -11 10 -3
6 -1 10 4 10 6 0 11 -4 11 -10z m415 -130 c3 -5 2 -10 -4 -10 -5 0 -13 5 -16
10 -3 6 -2 10 4 10 5 0 13 -4 16 -10z m-378 -66 c-9 -9 -28 6 -21 18 4 6 10 6
17 -1 6 -6 8 -13 4 -17z m328 -3 c-3 -6 -11 -8 -17 -5 -6 4 -5 9 3 15 16 10
23 4 14 -10z m5 -41 c0 -5 -7 -10 -15 -10 -8 0 -15 5 -15 10 0 6 7 10 15 10 8
0 15 -4 15 -10z m-135 -10 c3 -5 1 -10 -4 -10 -6 0 -11 5 -11 10 0 6 2 10 4
10 3 0 8 -4 11 -10z m-52 -57 c-5 -11 -9 -11 -24 3 -26 24 -24 36 5 23 15 -7
22 -17 19 -26z m127 27 c0 -5 -4 -10 -10 -10 -5 0 -10 5 -10 10 0 6 5 10 10
10 6 0 10 -4 10 -10z m-75 -27 c-2 -10 -4 -21 -4 -25 -2 -14 -21 -9 -21 5 0
11 19 37 26 37 1 0 1 -8 -1 -17z m-111 -14 c-6 -11 -24 -2 -24 11 0 5 7 7 15
4 8 -4 12 -10 9 -15z m86 -39 c0 -5 -4 -10 -9 -10 -6 0 -13 5 -16 10 -3 6 1
10 9 10 9 0 16 -4 16 -10z m65 0 c3 -5 -1 -10 -9 -10 -9 0 -16 5 -16 10 0 6 4
10 9 10 6 0 13 -4 16 -10z"/>
<path d="M6170 7320 c0 -5 5 -10 11 -10 5 0 7 5 4 10 -3 6 -8 10 -11 10 -2 0
-4 -4 -4 -10z"/>
<path d="M6222 7210 c-15 -24 -15 -40 -1 -40 6 0 9 6 6 14 -3 8 1 17 9 20 8 3
14 10 14 16 0 16 -14 12 -28 -10z"/>
<path d="M6150 7138 c0 -15 43 -20 56 -7 11 12 8 14 -21 14 -19 0 -35 -3 -35
-7z"/>
<path d="M6135 7100 c3 -5 8 -10 11 -10 2 0 4 5 4 10 0 6 -5 10 -11 10 -5 0
-7 -4 -4 -10z"/>
<path d="M4956 7005 c4 -8 11 -15 16 -15 6 0 5 6 -2 15 -7 8 -14 15 -16 15 -2
0 -1 -7 2 -15z"/>
<path d="M4824 6994 c-21 -9 7 -52 32 -50 l22 1 -20 28 c-11 15 -20 27 -21 26
-1 0 -7 -3 -13 -5z"/>
<path d="M6025 6800 c-3 -5 1 -10 10 -10 9 0 13 5 10 10 -3 6 -8 10 -10 10 -2
0 -7 -4 -10 -10z"/>
<path d="M5010 6715 c0 -8 2 -15 4 -15 2 0 6 7 10 15 3 8 1 15 -4 15 -6 0 -10
-7 -10 -15z"/>
<path d="M6070 6269 c0 -5 5 -7 10 -4 6 3 10 8 10 11 0 2 -4 4 -10 4 -5 0 -10
-5 -10 -11z"/>
<path d="M4226 7518 c4 -6 10 -23 13 -38 l6 -27 16 34 c16 32 16 33 -2 28 -11
-4 -19 -2 -19 4 0 6 -5 11 -11 11 -5 0 -7 -5 -3 -12z"/>
<path d="M3839 7103 c-13 -16 -12 -17 4 -4 9 7 17 15 17 17 0 8 -8 3 -21 -13z"/>
<path d="M7043 6100 c-81 -17 -149 -67 -196 -142 -32 -52 -65 -173 -72 -263
-7 -94 8 -207 41 -304 57 -168 195 -286 349 -298 218 -18 358 191 342 511 -10
193 -57 317 -156 409 -85 78 -198 110 -308 87z"/>
<path d="M5070 4208 c0 -9 5 -20 10 -23 13 -8 13 5 0 25 -8 13 -10 13 -10 -2z"/>
<path d="M3115 4200 c10 -11 20 -20 23 -20 3 0 -3 9 -13 20 -10 11 -20 20 -23
20 -3 0 3 -9 13 -20z"/>
<path d="M6615 4420 c3 -5 8 -10 11 -10 2 0 4 5 4 10 0 6 -5 10 -11 10 -5 0
-7 -4 -4 -10z"/>
<path d="M5598 3933 c6 -2 18 -2 25 0 6 3 1 5 -13 5 -14 0 -19 -2 -12 -5z"/>
<path d="M5490 3801 c-104 -40 -239 -152 -226 -187 6 -15 9 -14 25 12 28 46
98 102 176 141 103 51 116 69 25 34z"/>
<path d="M7560 4410 c-6 -12 -9 -24 -7 -27 3 -2 11 5 17 17 6 12 9 24 7 27 -3
2 -11 -5 -17 -17z"/>
<path d="M7450 4245 c-13 -14 -21 -27 -18 -31 3 -3 16 9 28 25 26 37 22 40
-10 6z"/>
<path d="M4585 3860 c3 -5 8 -10 11 -10 2 0 4 5 4 10 0 6 -5 10 -11 10 -5 0
-7 -4 -4 -10z"/>
<path d="M4610 3850 c0 -4 19 -16 43 -27 23 -11 76 -37 117 -56 79 -37 91 -47
153 -116 46 -52 58 -48 23 7 -26 42 -78 83 -156 122 -69 35 -180 79 -180 70z"/>
<path d="M4910 3726 c0 -2 8 -10 18 -17 15 -13 16 -12 3 4 -13 16 -21 21 -21
13z"/>
<path d="M2090 4147 c12 -12 111 -57 105 -48 -3 6 -18 17 -33 25 -30 15 -80
31 -72 23z"/>
<path d="M8103 4148 c-31 -15 -29 -30 2 -16 14 6 25 15 25 20 0 9 1 10 -27 -4z"/>
<path d="M6050 3530 c-8 -5 -11 -12 -7 -16 4 -4 15 0 24 9 18 18 8 23 -17 7z"/>
</g>
</svg>
