<?xml version="1.0" encoding="UTF-8"?>
<svg version="1.1" xmlns="http://www.w3.org/2000/svg" width="500" height="500">
<path d="M0 0 C0.86293055 -0.00453111 1.7258611 -0.00906223 2.61494106 -0.01373065 C5.51149091 -0.02640867 8.40785355 -0.0247521 11.3044281 -0.02310181 C13.37894432 -0.02908478 15.45345831 -0.03588979 17.52796936 -0.04345703 C23.16619574 -0.06114405 28.80436145 -0.06581345 34.44261289 -0.0670886 C39.14477842 -0.0689859 43.84692977 -0.07634117 48.54908985 -0.08343279 C59.63762787 -0.09972332 70.7261334 -0.104601 81.81468201 -0.10317993 C93.267551 -0.10197715 104.72023195 -0.12310475 116.17305332 -0.15466726 C125.99646316 -0.18077832 135.81981136 -0.19154946 145.64325565 -0.19026911 C151.51474581 -0.18975811 157.38606878 -0.19551767 163.25752449 -0.21662521 C168.7757684 -0.23592153 174.29368408 -0.2361913 179.81193924 -0.22159195 C181.840897 -0.21949227 183.86987486 -0.22427313 185.89879799 -0.23631287 C188.6611138 -0.25164745 191.42228095 -0.24253614 194.18457031 -0.22705078 C194.9940934 -0.23733791 195.80361649 -0.24762503 196.63767058 -0.25822389 C201.98882553 -0.1915786 201.98882553 -0.1915786 204.55030727 1.98583031 C205.52879333 4.26742554 205.52879333 4.26742554 205.52879333 9.26742554 C235.88879333 9.26742554 266.24879333 9.26742554 297.52879333 9.26742554 C297.52879333 45.23742554 297.52879333 81.20742554 297.52879333 118.26742554 C267.16879333 118.26742554 236.80879333 118.26742554 205.52879333 118.26742554 C205.19879333 120.57742554 204.86879333 122.88742554 204.52879333 125.26742554 C200.70510738 127.81654951 197.61574092 127.54880922 193.18457031 127.52812195 C191.89251447 127.53386027 191.89251447 127.53386027 190.5743565 127.53971452 C187.6770273 127.55006477 184.77989553 127.54604853 181.8825531 127.54208374 C179.80980749 127.54642909 177.73706349 127.55161164 175.6643219 127.55757141 C170.02596302 127.57099158 164.38767104 127.57153674 158.74929929 127.56900811 C154.04727922 127.56794046 149.3452728 127.57281647 144.64325565 127.57761353 C133.55325202 127.58871912 122.46328226 127.58914019 111.37327576 127.58309937 C99.92104621 127.57705729 88.46893944 127.58937415 77.01673084 127.61066943 C67.19417586 127.62826482 57.37166002 127.63429006 47.54908985 127.63103169 C41.67814513 127.62921542 35.807288 127.63188919 29.9363575 127.64574623 C24.41652283 127.65828644 18.89688008 127.65641662 13.37704849 127.64333534 C11.34851582 127.6409617 9.31996979 127.64373225 7.29145241 127.65195847 C4.52740971 127.66236116 1.76401872 127.6543776 -1 127.64164734 C-1.80729237 127.64902162 -2.61458473 127.65639591 -3.4463405 127.66399366 C-6.64015669 127.63293706 -9.08282979 127.45872896 -11.97017288 126.0365057 C-13.90503384 123.75612788 -13.96744489 122.56073969 -13.95895386 119.58792114 C-13.96589767 118.62628555 -13.97284149 117.66464996 -13.97999573 116.6738739 C-13.96718567 115.62032211 -13.95437561 114.56677032 -13.94117737 113.48129272 C-13.94446297 111.81501076 -13.94446297 111.81501076 -13.94781494 110.11506653 C-13.95013226 106.43117814 -13.92382819 102.74808288 -13.89698792 99.06430054 C-13.89206533 96.5070318 -13.88876559 93.94975946 -13.88702393 91.39248657 C-13.87937298 86.02564257 -13.85932136 80.65906883 -13.82789612 75.29232788 C-13.78769427 68.41797775 -13.77021972 61.54377638 -13.76058674 54.66932297 C-13.75136759 48.11346001 -13.73071697 41.55763392 -13.70948792 35.00180054 C-13.70609217 33.75161888 -13.70269642 32.50143723 -13.69919777 31.21337128 C-13.68759012 27.6659092 -13.66906159 24.11855484 -13.64820862 20.57113647 C-13.64551971 19.52568161 -13.64283081 18.48022675 -13.64006042 17.40309143 C-13.56038294 6.56925236 -13.56038294 6.56925236 -12.47120667 2.26742554 C-8.82703662 -0.53332059 -4.3788053 -0.01679943 0 0 Z M-7.47120667 6.26742554 C-7.47120667 44.21742554 -7.47120667 82.16742554 -7.47120667 121.26742554 C60.83879333 121.26742554 129.14879333 121.26742554 199.52879333 121.26742554 C199.52879333 118.95742554 199.52879333 116.64742554 199.52879333 114.26742554 C197.78487334 112.52350555 195.51517036 113.14500001 193.19126219 113.13834423 C192.03418338 113.14271349 192.03418338 113.14271349 190.85372925 113.14717102 C190.0402479 113.1463166 189.22676656 113.14546217 188.38863426 113.14458185 C185.64163092 113.14292456 182.89468761 113.14845247 180.14768982 113.15390015 C178.18697613 113.15418199 176.22626233 113.15402434 174.26554871 113.15345764 C168.92485999 113.15316956 163.58419353 113.15906802 158.24351001 113.1660316 C152.66877017 113.17226335 147.09402989 113.17286879 141.51928711 113.17405701 C130.95473242 113.17717085 120.39018802 113.18538495 109.82563788 113.1954065 C95.55539858 113.20865075 81.28515649 113.21406711 67.01491261 113.21990871 C44.5195318 113.22932481 22.02417272 113.24924337 -0.47120667 113.26742554 C-0.47120667 80.26742554 -0.47120667 47.26742554 -0.47120667 13.26742554 C65.52879333 13.26742554 131.52879333 13.26742554 199.52879333 13.26742554 C199.52879333 10.95742554 199.52879333 8.64742554 199.52879333 6.26742554 C131.21879333 6.26742554 62.90879333 6.26742554 -7.47120667 6.26742554 Z M7.52879333 21.26742554 C7.52879333 33.80742554 7.52879333 46.34742554 7.52879333 59.26742554 C40.19879333 59.26742554 72.86879333 59.26742554 106.52879333 59.26742554 C106.52879333 74.44742554 106.52879333 89.62742554 106.52879333 105.26742554 C131.93879333 105.26742554 157.34879333 105.26742554 183.52879333 105.26742554 C181.94238672 102.0946123 181.13570053 100.62445126 178.78507996 98.276474 C178.22725327 97.71445282 177.66942657 97.15243164 177.09469604 96.57337952 C176.17987206 95.66698479 176.17987206 95.66698479 175.24656677 94.74227905 C174.28035149 93.77321625 174.28035149 93.77321625 173.2946167 92.78457642 C171.16398907 90.65024454 169.02624491 88.52319959 166.88816833 86.39633179 C165.40287928 84.91223526 163.91796016 83.42776842 162.43339539 81.94294739 C159.31935296 78.83046944 156.20197919 75.72138035 153.08201599 72.61483765 C149.09123655 68.64101087 145.10703384 64.66067078 141.125103 60.67797947 C138.05755428 57.61070336 134.9874006 54.54604596 131.91637421 51.48225212 C130.44703552 50.01608695 128.97829408 48.54932298 127.51016998 47.0819416 C125.45214232 45.0260936 123.39084722 42.97357878 121.32859802 40.92196655 C120.72681229 40.31972763 120.12502655 39.71748871 119.50500488 39.09700012 C116.83478635 36.4467927 114.14711295 33.9015367 111.23661804 31.51557922 C108.56691643 29.29907699 106.66993248 26.97953512 104.52879333 24.26742554 C102.01007401 21.63223979 100.04406629 21.05873416 96.51713562 20.90666199 C94.85729364 20.89797538 93.19731513 20.90591765 91.5375824 20.92684937 C90.62991623 20.92641129 89.72225006 20.92597321 88.78707886 20.92552185 C85.78930594 20.92761055 82.79209346 20.95094563 79.79441833 20.97445679 C77.7150554 20.98005245 75.6356885 20.98432269 73.55632019 20.98731995 C68.08505828 20.99877104 62.61403551 21.02824067 57.14286804 21.06143188 C51.55930313 21.09212695 45.97569956 21.10582409 40.39207458 21.12094116 C29.43752556 21.15311002 18.48321675 21.20588029 7.52879333 21.26742554 Z M112.52879333 21.26742554 C117.22740615 26.79462029 117.22740615 26.79462029 122.16007996 32.03242493 C123.13995125 33.0186937 123.13995125 33.0186937 124.13961792 34.02488708 C125.1825576 35.06714699 125.1825576 35.06714699 126.24656677 36.13046265 C126.99525528 36.88250977 127.74394379 37.63455688 128.51531982 38.40939331 C130.97030994 40.87381995 133.42899515 43.33451726 135.88816833 45.79476929 C137.60123434 47.51105014 139.31422558 49.22740563 141.02714539 50.9438324 C144.60615974 54.52881766 148.18721813 58.11174686 151.76951599 61.69345093 C156.37045405 66.29428683 160.96444489 70.9019937 165.55674362 75.51145077 C169.08594524 79.05173338 172.61964432 82.58749977 176.15465546 86.12198067 C177.85161485 87.82012362 179.5469449 89.51989634 181.24063873 91.22129631 C183.59860279 93.58899254 185.96273895 95.95034655 188.32859802 98.31015015 C189.03198807 99.0191597 189.73537811 99.72816925 190.46008301 100.45866394 C191.10205124 101.09643768 191.74401947 101.73421143 192.40544128 102.39131165 C192.96362926 102.95004439 193.52181725 103.50877714 194.09692001 104.08444118 C195.47621219 105.47973348 195.47621219 105.47973348 197.52879333 105.26742554 C197.52879333 91.73742554 197.52879333 78.20742554 197.52879333 64.26742554 C195.54879333 63.93742554 193.56879333 63.60742554 191.52879333 63.26742554 C191.03379333 42.47742554 191.03379333 42.47742554 190.52879333 21.26742554 C164.78879333 21.26742554 139.04879333 21.26742554 112.52879333 21.26742554 Z M205.52879333 21.26742554 C205.52879333 48.98742554 205.52879333 76.70742554 205.52879333 105.26742554 C234.23879333 105.26742554 262.94879333 105.26742554 292.52879333 105.26742554 C292.52879333 77.54742554 292.52879333 49.82742554 292.52879333 21.26742554 C263.81879333 21.26742554 235.10879333 21.26742554 205.52879333 21.26742554 Z M7.52879333 67.26742554 C7.52879333 79.80742554 7.52879333 92.34742554 7.52879333 105.26742554 C37.22879333 105.26742554 66.92879333 105.26742554 97.52879333 105.26742554 C99.08354598 102.15792025 98.67078857 98.86295523 98.66160583 95.45101929 C98.66304092 94.29352928 98.66304092 94.29352928 98.664505 93.11265564 C98.6651858 91.48105793 98.66333853 89.84945751 98.65916443 88.21786499 C98.65380747 85.71153733 98.65911652 83.20538828 98.66551208 80.69906616 C98.66485143 79.11638347 98.66357052 77.53370089 98.66160583 75.95101929 C98.66464218 74.81979897 98.66464218 74.81979897 98.66773987 73.66572571 C98.9709763 70.17510719 98.9709763 70.17510719 97.52879333 67.26742554 C94.72889614 67.17223186 91.95373159 67.1418861 89.15354919 67.15390015 C88.27558182 67.15375412 87.39761444 67.15360809 86.49304199 67.15345764 C83.57654899 67.15415709 80.660119 67.16195098 77.74363708 67.16976929 C75.72724441 67.17163335 73.71085129 67.17305731 71.69445801 67.17405701 C66.37614196 67.17788309 61.05785303 67.18771415 55.73954773 67.19876099 C50.31708646 67.20897316 44.89462082 67.21355421 39.47215271 67.21859741 C28.82435239 67.22933634 18.17657936 67.24693387 7.52879333 67.26742554 Z " fill="#252526" transform="translate(92.47120666503906,173.73257446289063)"/>
<path d="M0 0 C66.33 0 132.66 0 201 0 C200.34 0.33 199.68 0.66 199 1 C199.00222061 1.59690643 199.00444122 2.19381287 199.00672913 2.80880737 C199.02880297 9.00518192 199.04391542 15.20154535 199.05493164 21.39794922 C199.05996943 23.71240696 199.06679981 26.0268615 199.07543945 28.34130859 C199.08752924 31.6624429 199.09323375 34.98353525 199.09765625 38.3046875 C199.10281754 39.34430634 199.10797882 40.38392517 199.11329651 41.45504761 C199.11337204 42.41589264 199.11344757 43.37673767 199.11352539 44.36669922 C199.115746 45.21497284 199.11796661 46.06324646 199.12025452 46.93722534 C199 49 199 49 198 51 C196.00045254 51.04254356 193.99958364 51.04080783 192 51 C191 50 191 50 190.88647461 46.03100586 C190.88672579 44.25894395 190.89229022 42.48687716 190.90234375 40.71484375 C190.90335083 39.8902063 190.90435791 39.06556885 190.90539551 38.21594238 C190.91064408 35.12311419 190.92460523 32.03030576 190.9375 28.9375 C190.958125 22.028125 190.97875 15.11875 191 8 C152.885 8.495 152.885 8.495 114 9 C129.23369553 24.26371848 129.23369553 24.26371848 144.47228813 39.522542 C149.9212643 44.97706762 155.36948429 50.4323418 160.81494141 55.89038086 C165.58480026 60.67125542 170.35725063 65.4495285 175.13132095 70.2261982 C176.95592148 72.0526521 178.779639 73.87998855 180.60247421 75.70820427 C183.1478805 78.26082734 185.69635603 80.81034669 188.24560547 83.35913086 C189.38496048 84.50387878 189.38496048 84.50387878 190.54733276 85.67175293 C191.24004272 86.36308823 191.93275269 87.05442352 192.64645386 87.76670837 C193.24930647 88.37048278 193.85215908 88.97425718 194.47327995 89.59632778 C195.96518412 91.09765414 195.96518412 91.09765414 198 92 C198 94.64 198 97.28 198 100 C132.66 100 67.32 100 0 100 C0 67 0 34 0 0 Z M8 8 C8 20.54 8 33.08 8 46 C40.67 46 73.34 46 107 46 C107 61.18 107 76.36 107 92 C132.41 92 157.82 92 184 92 C182.41359338 88.82718676 181.6069072 87.35702572 179.25628662 85.00904846 C178.69845993 84.44702728 178.14063324 83.8850061 177.56590271 83.30595398 C176.65107872 82.39955925 176.65107872 82.39955925 175.71777344 81.47485352 C174.75155815 80.50579071 174.75155815 80.50579071 173.76582336 79.51715088 C171.63519574 77.382819 169.49745158 75.25577406 167.359375 73.12890625 C165.87408595 71.64480972 164.38916682 70.16034288 162.90460205 68.67552185 C159.79055963 65.5630439 156.67318585 62.45395482 153.55322266 59.34741211 C149.56244321 55.37358533 145.5782405 51.39324524 141.59630966 47.41055393 C138.52876095 44.34327782 135.45860727 41.27862043 132.38758087 38.21482658 C130.91824219 36.74866141 129.44950075 35.28189745 127.98137665 33.81451607 C125.92334898 31.75866806 123.86205389 29.70615324 121.79980469 27.65454102 C121.19801895 27.05230209 120.59623322 26.45006317 119.97621155 25.82957458 C117.30599302 23.17936716 114.61831962 20.63411116 111.70782471 18.24815369 C109.0381231 16.03165145 107.14113914 13.71210958 105 11 C102.48128068 8.36481425 100.51527296 7.79130863 96.98834229 7.63923645 C95.3285003 7.63054984 93.66852179 7.63849211 92.00878906 7.65942383 C91.10112289 7.65898575 90.19345673 7.65854767 89.25828552 7.65809631 C86.26051261 7.66018501 83.26330013 7.68352009 80.265625 7.70703125 C78.18626206 7.71262691 76.10689516 7.71689715 74.02752686 7.71989441 C68.55626494 7.7313455 63.08524217 7.76081514 57.61407471 7.79400635 C52.0305098 7.82470142 46.44690622 7.83839855 40.86328125 7.85351562 C29.90873222 7.88568449 18.95442342 7.93845475 8 8 Z M8 54 C8 66.54 8 79.08 8 92 C37.7 92 67.4 92 98 92 C99.55475264 88.89049471 99.14199524 85.5955297 99.1328125 82.18359375 C99.13424759 81.02610374 99.13424759 81.02610374 99.13571167 79.8452301 C99.13639246 78.21363239 99.1345452 76.58203197 99.13037109 74.95043945 C99.12501413 72.44411179 99.13032319 69.93796275 99.13671875 67.43164062 C99.13605809 65.84895794 99.13477719 64.26627536 99.1328125 62.68359375 C99.13584885 61.55237343 99.13584885 61.55237343 99.13894653 60.39830017 C99.44218296 56.90768165 99.44218296 56.90768165 98 54 C95.2001028 53.90480632 92.42493826 53.87446056 89.62475586 53.88647461 C88.74678848 53.88632858 87.86882111 53.88618256 86.96424866 53.8860321 C84.04775565 53.88673156 81.13132567 53.89452545 78.21484375 53.90234375 C76.19845108 53.90420782 74.18205796 53.90563177 72.16566467 53.90663147 C66.84734862 53.91045756 61.5290597 53.92028861 56.21075439 53.93133545 C50.78829312 53.94154762 45.36582748 53.94612867 39.94335938 53.95117188 C29.29555906 53.9619108 18.64778602 53.97950833 8 54 Z " fill="#46BCCC" transform="translate(92,187)"/>
<path d="M0 0 C33 0 66 0 100 0 C100 2.64 100 5.28 100 8 C69.64 8 39.28 8 8 8 C8 20.54 8 33.08 8 46 C38.03 46 68.06 46 99 46 C99 48.31 99 50.62 99 53 C97.16642556 54.83357444 94.60364305 54.11999967 92.1640625 54.12442017 C91.32609131 54.12082489 90.48812012 54.11722961 89.62475586 54.11352539 C88.30780479 54.11374443 88.30780479 54.11374443 86.96424866 54.1139679 C84.04775565 54.11326844 81.13132567 54.10547455 78.21484375 54.09765625 C76.19845108 54.09579218 74.18205796 54.09436823 72.16566467 54.09336853 C66.84734862 54.08954244 61.5290597 54.07971139 56.21075439 54.06866455 C50.78829312 54.05845238 45.36582748 54.05387133 39.94335938 54.04882812 C29.29555906 54.0380892 18.64778602 54.02049167 8 54 C8 66.54 8 79.08 8 92 C10.72113037 91.99476318 13.44226074 91.98952637 16.24584961 91.98413086 C25.21450125 91.96759599 34.18315355 91.95652919 43.15181637 91.94818783 C48.59202312 91.94295872 54.03221431 91.93586057 59.47241211 91.92456055 C64.71785702 91.91373265 69.96328692 91.90772338 75.20874214 91.90512276 C77.21470946 91.90326833 79.22067592 91.89964738 81.22663689 91.89426994 C84.02602824 91.88706081 86.82535679 91.886009 89.62475586 91.88647461 C90.46272705 91.88287933 91.30069824 91.87928406 92.1640625 91.87557983 C97.88594784 91.88594784 97.88594784 91.88594784 99 93 C99 95.31 99 97.62 99 100 C66.33 100 33.66 100 0 100 C0 67 0 34 0 0 Z " fill="#F21B5A" transform="translate(92,187)"/>
<path d="M0 0 C31.02 0 62.04 0 94 0 C94 2.31 94 4.62 94 7 C65.29 7 36.58 7 7 7 C7 34.72 7 62.44 7 91 C35.71 91 64.42 91 94 91 C94 93.64 94 96.28 94 99 C81.76125969 99.15356688 69.52246736 99.30174866 57.28357792 99.4429636 C51.60120626 99.50869924 45.91886991 99.57632353 40.23657227 99.64819336 C34.75775535 99.71742125 29.27890132 99.78178051 23.79998589 99.84269524 C21.70468489 99.86685991 19.60940373 99.89280977 17.5141468 99.92053413 C14.59027335 99.95892436 11.66639513 99.99109311 8.74243164 100.02172852 C7.42937042 100.04114754 7.42937042 100.04114754 6.08978271 100.06095886 C4.05983357 100.0789946 2.02952434 100.04527441 0 100 C-1.52971627 98.47028373 -1.12715871 97.09957311 -1.12939453 94.96655273 C-1.13250641 94.09882233 -1.13561829 93.23109192 -1.13882446 92.33706665 C-1.13684052 91.37892059 -1.13485657 90.42077454 -1.1328125 89.43359375 C-1.13479141 87.93111588 -1.13479141 87.93111588 -1.1368103 86.39828491 C-1.13874789 83.07799321 -1.13233549 79.75778335 -1.125 76.4375 C-1.12411377 75.30984222 -1.12322754 74.18218445 -1.12231445 73.02035522 C-1.09993361 48.66935054 -0.58484772 24.3442863 0 0 Z " fill="#FA9A0A" transform="translate(291,188)"/>
<path d="M0 0 C0.33 0 0.66 0 1 0 C1 1.65 1 3.3 1 5 C31.36 5 61.72 5 93 5 C93 40.97 93 76.94 93 114 C62.64 114 32.28 114 1 114 C0.67 116.31 0.34 118.62 0 121 C-1 118 -1 118 -1.4375 115.875 C-1.623125 115.25625 -1.80875 114.6375 -2 114 C-2.66 113.67 -3.32 113.34 -4 113 C-4 111.68 -4 110.36 -4 109 C26.36 109 56.72 109 88 109 C88 76.33 88 43.66 88 10 C57.64 10 27.28 10 -4 10 C-4 8.35 -4 6.7 -4 5 C-3.01 5 -2.02 5 -1 5 C-0.67 3.35 -0.34 1.7 0 0 Z " fill="#1D1D1B" transform="translate(297,178)"/>
<path d="M0 0 C26.73 0 53.46 0 81 0 C81 1.32 81 2.64 81 4 C76.17353755 5.91758461 71.82792783 6.27592129 66.69970703 6.22705078 C65.88928452 6.22734283 65.078862 6.22763489 64.24388123 6.22793579 C61.58174704 6.22654937 58.91989742 6.21102074 56.2578125 6.1953125 C54.40550896 6.19157992 52.55320344 6.18873411 50.70089722 6.18673706 C45.83799743 6.17911988 40.97521809 6.15948787 36.11236572 6.1373291 C30.27112314 6.11322182 24.42984016 6.10408057 18.58856201 6.09242249 C9.72562437 6.07306235 0.86295075 6.03472641 -8 6 C-8 18.87 -8 31.74 -8 45 C-2.15023437 44.98839844 3.69953125 44.97679687 9.7265625 44.96484375 C13.43619903 44.95973322 17.14583121 44.95491916 20.85546875 44.95117188 C26.74138289 44.94519802 32.62728144 44.93813662 38.51318359 44.92456055 C43.25939479 44.91368193 48.00558928 44.90771261 52.75181198 44.90512276 C54.56106199 44.90327748 56.37031111 44.89967413 58.17955399 44.89426994 C60.71689062 44.88699351 63.25415849 44.88601185 65.79150391 44.88647461 C66.53669281 44.88287933 67.28188171 44.87928406 68.0496521 44.87557983 C72.1390782 44.88363128 75.98797415 45.20483679 80 46 C80.495 47.98 80.495 47.98 81 50 C76.06627996 50.98447353 71.36928464 51.14813919 66.36425781 51.14526367 C65.09492149 51.15030159 65.09492149 51.15030159 63.79994202 51.15544128 C61.01765456 51.16490029 58.23542751 51.16689128 55.453125 51.16796875 C53.51592992 51.17118283 51.57873509 51.17454702 49.64154053 51.17805481 C45.58996009 51.18403196 41.53840094 51.18589596 37.48681641 51.18530273 C32.28567643 51.18520073 27.08467179 51.19889865 21.883564 51.21607494 C17.88768887 51.2271653 13.8918469 51.22922293 9.89595795 51.22869301 C7.97733846 51.22987585 6.05871819 51.23431454 4.14011383 51.24202538 C1.46603208 51.25177347 -1.20774982 51.24896884 -3.88183594 51.24291992 C-5.07718208 51.25134918 -5.07718208 51.25134918 -6.29667664 51.25994873 C-11.77167849 51.22832151 -11.77167849 51.22832151 -14 49 C-14.24050903 47.08908081 -14.24050903 47.08908081 -14.22705078 44.73388672 C-14.22689972 43.85312469 -14.22674866 42.97236267 -14.22659302 42.06491089 C-14.21627045 41.11278717 -14.20594788 40.16066345 -14.1953125 39.1796875 C-14.1924826 38.20589142 -14.18965271 37.23209534 -14.18673706 36.22879028 C-14.17551913 33.11073651 -14.1504117 29.99296732 -14.125 26.875 C-14.11497228 24.76432706 -14.10584607 22.65364962 -14.09765625 20.54296875 C-14.07557458 15.36188165 -14.04208129 10.18096115 -14 5 C-10.42638696 3.02720618 -8.75668168 2.92604907 -4.75 3.875 C-3.41195312 4.18050781 -3.41195312 4.18050781 -2.046875 4.4921875 C-1.03367187 4.74355469 -1.03367187 4.74355469 0 5 C0 3.35 0 1.7 0 0 Z " fill="#F71A5B" transform="translate(108,235)"/>
<path d="M0 0 C32.01 0 64.02 0 97 0 C97 2.31 97 4.62 97 7 C95.29657944 7.00879936 95.29657944 7.00879936 93.55874634 7.01777649 C82.87530741 7.07490077 72.19207406 7.14760792 61.50884438 7.23571491 C56.01600221 7.28051089 50.5232358 7.31974645 45.03027344 7.34643555 C39.73279832 7.37237672 34.43561333 7.41271326 29.13831711 7.46318626 C27.11367771 7.47991738 25.08898806 7.4913926 23.06428909 7.49761391 C20.23606946 7.50718739 17.40860264 7.53516448 14.58056641 7.56762695 C13.73683975 7.56619186 12.8931131 7.56475677 12.02381897 7.5632782 C9.46176948 7.56973718 9.46176948 7.56973718 6 8 C5.01 9.485 5.01 9.485 4 11 C3.01 11 2.02 11 1 11 C-0.26086514 7.05979642 0 4.52419701 0 0 Z " fill="#F51C5A" transform="translate(93,188)"/>
<path d="M0 0 C31.02 0 62.04 0 94 0 C94 2.31 94 4.62 94 7 C65.29 7 36.58 7 7 7 C7 34.72 7 62.44 7 91 C35.71 91 64.42 91 94 91 C94 93.64 94 96.28 94 99 C81.76125969 99.15356688 69.52246736 99.30174866 57.28357792 99.4429636 C51.60120626 99.50869924 45.91886991 99.57632353 40.23657227 99.64819336 C34.75775535 99.71742125 29.27890132 99.78178051 23.79998589 99.84269524 C21.70468489 99.86685991 19.60940373 99.89280977 17.5141468 99.92053413 C14.59027335 99.95892436 11.66639513 99.99109311 8.74243164 100.02172852 C7.42937042 100.04114754 7.42937042 100.04114754 6.08978271 100.06095886 C4.05983357 100.0789946 2.02952434 100.04527441 0 100 C-1.52971627 98.47028373 -1.12715871 97.09957311 -1.12939453 94.96655273 C-1.13250641 94.09882233 -1.13561829 93.23109192 -1.13882446 92.33706665 C-1.13684052 91.37892059 -1.13485657 90.42077454 -1.1328125 89.43359375 C-1.13479141 87.93111588 -1.13479141 87.93111588 -1.1368103 86.39828491 C-1.13874789 83.07799321 -1.13233549 79.75778335 -1.125 76.4375 C-1.12411377 75.30984222 -1.12322754 74.18218445 -1.12231445 73.02035522 C-1.09993361 48.66935054 -0.58484772 24.3442863 0 0 Z M2 1 C1.71071306 17.03579737 1.71071306 17.03579737 1.43188477 33.07177734 C1.39377238 35.07650466 1.35530415 37.08122527 1.31640625 39.0859375 C1.29993042 40.13370361 1.28345459 41.18146973 1.26647949 42.26098633 C1.24629761 43.25557861 1.22611572 44.2501709 1.20532227 45.27490234 C1.18977798 46.14094086 1.1742337 47.00697937 1.15821838 47.89926147 C1 50 1 50 0 52 C-0.11142532 54.83507221 -0.16412417 57.64478952 -0.16796875 60.48046875 C-0.17129715 61.32668289 -0.17462555 62.17289703 -0.17805481 63.04475403 C-0.18312405 64.83948218 -0.18546314 66.63421978 -0.18530273 68.42895508 C-0.18747744 71.15917825 -0.20560028 73.88898962 -0.22460938 76.61914062 C-0.22754575 78.36458196 -0.22952891 80.1100252 -0.23046875 81.85546875 C-0.23765427 82.66614304 -0.24483978 83.47681732 -0.25224304 84.3120575 C-0.24916641 85.08588272 -0.24608978 85.85970795 -0.24291992 86.65698242 C-0.24434494 87.32823654 -0.24576996 87.99949066 -0.24723816 88.69108582 C0.09262929 91.86504888 1.12306058 94.93071203 2 98 C32.03 98 62.06 98 93 98 C93 96.35 93 94.7 93 93 C89.27501593 91.75833864 85.82697035 91.86847455 81.94848633 91.88647461 C81.12874832 91.88632858 80.30901031 91.88618256 79.46443176 91.8860321 C76.75360472 91.88672904 74.0428463 91.89451122 71.33203125 91.90234375 C69.45301857 91.90420871 67.5740054 91.90563224 65.69499207 91.90663147 C60.74824685 91.91045052 55.80153098 91.92027562 50.85479736 91.93133545 C45.80749915 91.9415627 40.76019621 91.94613191 35.71289062 91.95117188 C25.80858086 91.96189841 15.90429287 91.97896752 6 92 C6.10733044 80.93458329 6.21992845 69.86923411 6.33933926 58.80394077 C6.39461308 53.66643531 6.44804007 48.52892421 6.49731445 43.39135742 C6.5448924 38.43763538 6.59723256 33.48398488 6.65294075 28.53034782 C6.67339418 26.63604439 6.6921022 24.74172132 6.70907402 22.8473835 C6.73305216 20.203603 6.7631153 17.55995902 6.79467773 14.91625977 C6.8004332 14.12504227 6.80618866 13.33382477 6.81211853 12.51863098 C6.88594784 7.11405216 6.88594784 7.11405216 8 6 C10.64738089 5.90488734 13.26859001 5.87444365 15.91625977 5.88647461 C16.74545929 5.88632858 17.57465881 5.88618256 18.4289856 5.8860321 C21.18315198 5.88673149 23.93725161 5.89452507 26.69140625 5.90234375 C28.59569766 5.90420784 30.49998955 5.90563178 32.40428162 5.90663147 C37.42667963 5.91045737 42.44904892 5.92028827 47.47143555 5.93133545 C52.5922812 5.94154802 57.71313148 5.94612876 62.83398438 5.95117188 C72.88933557 5.96191047 82.9446654 5.97898776 93 6 C93 4.35 93 2.7 93 1 C62.97 1 32.94 1 2 1 Z " fill="#D69732" transform="translate(291,188)"/>
<path d="M0 0 C5.9090625 -0.0309375 5.9090625 -0.0309375 11.9375 -0.0625 C13.18136475 -0.071604 14.42522949 -0.08070801 15.70678711 -0.09008789 C17.16483765 -0.09383423 17.16483765 -0.09383423 18.65234375 -0.09765625 C20.15269165 -0.10551147 20.15269165 -0.10551147 21.68334961 -0.11352539 C24 0 24 0 25 1 C25.08767112 3.07262076 25.10695873 5.14820294 25.09765625 7.22265625 C25.09443359 8.48271484 25.09121094 9.74277344 25.08789062 11.04101562 C25.07953403 12.38151109 25.07106907 13.72200588 25.0625 15.0625 C25.0574866 16.40689942 25.05292342 17.7513006 25.04882812 19.09570312 C25.03699497 22.39715433 25.01905886 25.6985826 25 29 C16.75 29 8.5 29 0 29 C0 19.43 0 9.86 0 0 Z M6 6 C6 11.61 6 17.22 6 23 C9.96 23 13.92 23 18 23 C18 17.39 18 11.78 18 6 C14.04 6 10.08 6 6 6 Z " fill="#C59457" transform="translate(331,201)"/>
<path d="M0 0 C5.9090625 -0.0309375 5.9090625 -0.0309375 11.9375 -0.0625 C13.18136475 -0.071604 14.42522949 -0.08070801 15.70678711 -0.09008789 C17.16483765 -0.09383423 17.16483765 -0.09383423 18.65234375 -0.09765625 C20.15269165 -0.10551147 20.15269165 -0.10551147 21.68334961 -0.11352539 C24 0 24 0 25 1 C25.09983058 2.98757028 25.13080753 4.9786752 25.1328125 6.96875 C25.13474609 8.78439453 25.13474609 8.78439453 25.13671875 10.63671875 C25.13285156 11.91160156 25.12898438 13.18648438 25.125 14.5 C25.13080078 16.41232422 25.13080078 16.41232422 25.13671875 18.36328125 C25.13542969 19.57371094 25.13414062 20.78414063 25.1328125 22.03125 C25.13168457 23.15080078 25.13055664 24.27035156 25.12939453 25.42382812 C25 28 25 28 24 29 C22.21928754 29.08726223 20.4351686 29.10699041 18.65234375 29.09765625 C17.68031006 29.09515869 16.70827637 29.09266113 15.70678711 29.09008789 C14.46292236 29.08098389 13.21905762 29.07187988 11.9375 29.0625 C7.998125 29.041875 4.05875 29.02125 0 29 C0 19.43 0 9.86 0 0 Z M6 6 C6 11.61 6 17.22 6 23 C9.96 23 13.92 23 18 23 C18 17.39 18 11.78 18 6 C14.04 6 10.08 6 6 6 Z " fill="#BB8847" transform="translate(331,245)"/>
<path d="M0 0 C25.41 0 50.82 0 77 0 C77 15.18 77 30.36 77 46 C75.35 46.33 73.7 46.66 72 47 C71.505 26.21 71.505 26.21 71 5 C48.23 4.67 25.46 4.34 2 4 C1.34 2.68 0.68 1.36 0 0 Z " fill="#42BFCF" transform="translate(212,189)"/>
<path d="M0 0 C2.64 0 5.28 0 8 0 C8 15.18 8 30.36 8 46 C13.53523437 45.97679687 19.07046875 45.95359375 24.7734375 45.9296875 C28.27344217 45.91947229 31.77342854 45.90984464 35.2734375 45.90234375 C40.83272097 45.89037331 46.39193875 45.87618994 51.95117188 45.84912109 C56.43153225 45.8274412 60.91182222 45.81544166 65.39223099 45.81024551 C67.10431655 45.80654101 68.81639812 45.79930734 70.52845383 45.78853989 C72.92058486 45.77408932 75.31242242 45.77201933 77.70458984 45.77294922 C78.41740616 45.76575867 79.13022247 45.75856812 79.86463928 45.75115967 C84.77189568 45.77189568 84.77189568 45.77189568 87 48 C76.73423992 48.04627383 66.46850452 48.08184393 56.20266151 48.10362434 C51.43617706 48.11407612 46.66976379 48.12826064 41.90332031 48.15087891 C37.30625073 48.17255773 32.70924976 48.18455812 28.11213303 48.18975449 C26.35539036 48.19345919 24.59865159 48.20069322 22.84193802 48.21146011 C20.38754312 48.22590924 17.93343427 48.22798073 15.47900391 48.22705078 C14.74748611 48.23424133 14.01596832 48.24143188 13.26228333 48.24884033 C8.22810432 48.22810432 8.22810432 48.22810432 6 46 C5.7215271 44.08908081 5.7215271 44.08908081 5.68115234 41.73388672 C5.66128265 40.85312469 5.64141296 39.97236267 5.62094116 39.06491089 C5.60938995 38.11278717 5.59783875 37.16066345 5.5859375 36.1796875 C5.56657135 35.20589142 5.5472052 34.23209534 5.5272522 33.22879028 C5.46735442 30.11094997 5.42103029 26.99307294 5.375 23.875 C5.33682961 21.76430659 5.29777844 19.65362892 5.2578125 17.54296875 C5.16164473 12.36211856 5.07662736 7.18117403 5 2 C4.01 2 3.02 2 2 2 C2 18.17 2 34.34 2 51 C22.79 51.33 43.58 51.66 65 52 C65 52.66 65 53.32 65 54 C43.55 54 22.1 54 0 54 C-0.63868934 47.61310659 -1.15033663 41.54536602 -1.1328125 35.17578125 C-1.13376923 34.38527878 -1.13472595 33.59477631 -1.13571167 32.78031921 C-1.13638561 31.12755248 -1.13458691 29.47478298 -1.13037109 27.82202148 C-1.12498977 25.30771925 -1.13035406 22.79359384 -1.13671875 20.27929688 C-1.13605825 18.66145794 -1.13477767 17.04361912 -1.1328125 15.42578125 C-1.13483673 14.68395096 -1.13686096 13.94212067 -1.13894653 13.17781067 C-1.1189525 8.68723301 -0.73287249 4.43180438 0 0 Z " fill="#5BAFBE" transform="translate(191,233)"/>
<path d="M0 0 C0.33 0 0.66 0 1 0 C1 1.65 1 3.3 1 5 C1.74184036 4.99777939 2.48368073 4.99555878 3.2480011 4.99327087 C10.37691815 4.97289953 17.50582445 4.95784371 24.63476276 4.94818783 C28.29631646 4.94305622 31.95784535 4.93614538 35.61938477 4.92456055 C54.44271456 4.86655142 73.19228644 5.13745712 92 6 C92 9.96 92 13.92 92 18 C90.68 18.33 89.36 18.66 88 19 C88 16.03 88 13.06 88 10 C57.64 10 27.28 10 -4 10 C-4 8.35 -4 6.7 -4 5 C-3.01 5 -2.02 5 -1 5 C-0.67 3.35 -0.34 1.7 0 0 Z " fill="#292122" transform="translate(297,178)"/>
<path d="M0 0 C33 0 66 0 100 0 C100 2.64 100 5.28 100 8 C99.34 8 98.68 8 98 8 C98 5.69 98 3.38 98 1 C65.99 1 33.98 1 1 1 C1.33 33.01 1.66 65.02 2 98 C33.35 98 64.7 98 97 98 C96.67 96.68 96.34 95.36 96 94 C66.96 93.67 37.92 93.34 8 93 C8 92.67 8 92.34 8 92 C19.71726788 91.97687785 31.43453037 91.95908557 43.15181637 91.94818783 C48.59202312 91.94295872 54.03221431 91.93586057 59.47241211 91.92456055 C64.71785702 91.91373265 69.96328692 91.90772338 75.20874214 91.90512276 C77.21470946 91.90326833 79.22067592 91.89964738 81.22663689 91.89426994 C84.02602824 91.88706081 86.82535679 91.886009 89.62475586 91.88647461 C90.46272705 91.88287933 91.30069824 91.87928406 92.1640625 91.87557983 C97.88594784 91.88594784 97.88594784 91.88594784 99 93 C99 95.31 99 97.62 99 100 C66.33 100 33.66 100 0 100 C0 67 0 34 0 0 Z " fill="#C5335E" transform="translate(92,187)"/>
<path d="M0 0 C9.24 0 18.48 0 28 0 C28.02735416 9.16668158 28.05092848 18.33329415 28.0625 27.5 C28.06335602 28.17336521 28.06421204 28.84673042 28.06509399 29.54050064 C28.08813843 50.04264021 27.93962404 70.51569608 27 91 C25.515 90.505 25.515 90.505 24 90 C22.63363866 64.68234193 22.89839555 39.34466493 23 14 C24.32 13.67 25.64 13.34 27 13 C27 9.04 27 5.08 27 1 C18.09 1 9.18 1 0 1 C0 0.67 0 0.34 0 0 Z " fill="#202022" transform="translate(362,183)"/>
<path d="M0 0 C0.33 0 0.66 0 1 0 C1 25.08 1 50.16 1 76 C0.67 76 0.34 76 0 76 C-0.33 66.76 -0.66 57.52 -1 48 C-3.03120722 52.06241444 -3.24731828 53.68986164 -3.23046875 58.0859375 C-3.22853516 59.26414062 -3.22660156 60.44234375 -3.22460938 61.65625 C-3.21236328 62.8834375 -3.20011719 64.110625 -3.1875 65.375 C-3.18685547 66.59445312 -3.18621094 67.81390625 -3.18554688 69.0703125 C-3.1584462 74.58680638 -2.91268297 79.52390217 -2 85 C42.055 85.495 42.055 85.495 87 86 C87.495 84.02 87.495 84.02 88 82 C88 83.65 88 85.3 88 87 C57.97 87 27.94 87 -3 87 C-5.25057734 79.12297931 -5.25057734 79.12297931 -5.25878906 75.75219727 C-5.26509338 74.99773819 -5.27139771 74.24327911 -5.27789307 73.46595764 C-5.27182037 72.2781797 -5.27182037 72.2781797 -5.265625 71.06640625 C-5.26753845 70.22963852 -5.2694519 69.39287079 -5.27142334 68.53074646 C-5.27277757 66.77008766 -5.26913464 65.00941862 -5.26074219 63.2487793 C-5.25004529 60.57382453 -5.26065641 57.89954332 -5.2734375 55.22460938 C-5.27211551 53.50520687 -5.26955229 51.78580478 -5.265625 50.06640625 C-5.26967346 49.27657852 -5.27372192 48.48675079 -5.27789307 47.67298889 C-5.23465775 42.477257 -4.43166725 37.99839536 -3 33 C-2.34 33.33 -1.68 33.66 -1 34 C-0.67 22.78 -0.34 11.56 0 0 Z " fill="#F49B18" transform="translate(296,199)"/>
<path d="M0 0 C33.33 0 66.66 0 101 0 C100.34 0.33 99.68 0.66 99 1 C99.00222061 1.59690643 99.00444122 2.19381287 99.00672913 2.80880737 C99.02880297 9.00518192 99.04391542 15.20154535 99.05493164 21.39794922 C99.05996943 23.71240696 99.06679981 26.0268615 99.07543945 28.34130859 C99.08752924 31.6624429 99.09323375 34.98353525 99.09765625 38.3046875 C99.10281754 39.34430634 99.10797882 40.38392517 99.11329651 41.45504761 C99.11337204 42.41589264 99.11344757 43.37673767 99.11352539 44.36669922 C99.115746 45.21497284 99.11796661 46.06324646 99.12025452 46.93722534 C99 49 99 49 98 51 C96.00045254 51.04254356 93.99958364 51.04080783 92 51 C91 50 91 50 90.88647461 46.12280273 C90.88663379 44.39305833 90.89233151 42.66330919 90.90234375 40.93359375 C90.9037587 40.02497086 90.90517365 39.11634796 90.90663147 38.18019104 C90.91224807 35.26592779 90.92480335 32.35174019 90.9375 29.4375 C90.94251286 27.46679798 90.94707614 25.49609476 90.95117188 23.52539062 C90.96222289 18.68356441 90.97949862 13.84179505 91 9 C91.33 9 91.66 9 92 9 C92 22.2 92 35.4 92 49 C93.32 48.67 94.64 48.34 96 48 C96 32.82 96 17.64 96 2 C64.65 1.67 33.3 1.34 1 1 C1 3.31 1 5.62 1 8 C0.34 7.67 -0.32 7.34 -1 7 C-0.67 4.69 -0.34 2.38 0 0 Z " fill="#71ADAA" transform="translate(192,187)"/>
<path d="M0 0 C0.66 0 1.32 0 2 0 C2.125 7.75 2.125 7.75 1 10 C-37.115 10.495 -37.115 10.495 -76 11 C-76 11.66 -76 12.32 -76 13 C-79.63 13 -83.26 13 -87 13 C-87.33 15.31 -87.66 17.62 -88 20 C-89 17 -89 17 -89.4375 14.875 C-89.623125 14.25625 -89.80875 13.6375 -90 13 C-90.66 12.67 -91.32 12.34 -92 12 C-92 10.68 -92 9.36 -92 8 C-61.64 8 -31.28 8 0 8 C0 5.36 0 2.72 0 0 Z " fill="#3A2409" transform="translate(385,279)"/>
<path d="M0 0 C1.32 0 2.64 0 4 0 C4 0.99 4 1.98 4 3 C5.16366844 2.98120789 5.16366844 2.98120789 6.35084534 2.96203613 C13.77530689 2.84246987 21.19979422 2.72471807 28.62431431 2.60884857 C32.43844223 2.54926421 36.2525578 2.48905357 40.06665039 2.42724609 C57.71214516 2.1417762 75.35147205 1.91880031 93 2 C94.20272819 4.40545638 94.10071472 5.94996953 94.0625 8.625 C94.05347656 9.44226563 94.04445313 10.25953125 94.03515625 11.1015625 C94.02355469 11.72804687 94.01195312 12.35453125 94 13 C93.34 13.33 92.68 13.66 92 14 C92 11.03 92 8.06 92 5 C61.64 5 31.28 5 0 5 C0 3.35 0 1.7 0 0 Z " fill="#4E330A" transform="translate(293,183)"/>
<path d="M0 0 C5.9090625 -0.0309375 5.9090625 -0.0309375 11.9375 -0.0625 C13.18136475 -0.071604 14.42522949 -0.08070801 15.70678711 -0.09008789 C17.16483765 -0.09383423 17.16483765 -0.09383423 18.65234375 -0.09765625 C20.15269165 -0.10551147 20.15269165 -0.10551147 21.68334961 -0.11352539 C24 0 24 0 25 1 C25.08767112 3.07262076 25.10695873 5.14820294 25.09765625 7.22265625 C25.09443359 8.48271484 25.09121094 9.74277344 25.08789062 11.04101562 C25.07953403 12.38151109 25.07106907 13.72200588 25.0625 15.0625 C25.0574866 16.40689942 25.05292342 17.7513006 25.04882812 19.09570312 C25.03699497 22.39715433 25.01905886 25.6985826 25 29 C16.75 29 8.5 29 0 29 C0 19.43 0 9.86 0 0 Z M2 2 C2 10.25 2 18.5 2 27 C8.6 27 15.2 27 22 27 C22 18.75 22 10.5 22 2 C15.4 2 8.8 2 2 2 Z " fill="#432608" transform="translate(331,201)"/>
<path d="M0 0 C5.9090625 -0.0309375 5.9090625 -0.0309375 11.9375 -0.0625 C13.18136475 -0.071604 14.42522949 -0.08070801 15.70678711 -0.09008789 C17.16483765 -0.09383423 17.16483765 -0.09383423 18.65234375 -0.09765625 C20.15269165 -0.10551147 20.15269165 -0.10551147 21.68334961 -0.11352539 C24 0 24 0 25 1 C25.09983058 2.98757028 25.13080753 4.9786752 25.1328125 6.96875 C25.13474609 8.78439453 25.13474609 8.78439453 25.13671875 10.63671875 C25.13285156 11.91160156 25.12898438 13.18648438 25.125 14.5 C25.13080078 16.41232422 25.13080078 16.41232422 25.13671875 18.36328125 C25.13542969 19.57371094 25.13414062 20.78414063 25.1328125 22.03125 C25.13168457 23.15080078 25.13055664 24.27035156 25.12939453 25.42382812 C25 28 25 28 24 29 C22.21928754 29.08726223 20.4351686 29.10699041 18.65234375 29.09765625 C17.68031006 29.09515869 16.70827637 29.09266113 15.70678711 29.09008789 C14.46292236 29.08098389 13.21905762 29.07187988 11.9375 29.0625 C7.998125 29.041875 4.05875 29.02125 0 29 C0 19.43 0 9.86 0 0 Z M2 2 C2 10.25 2 18.5 2 27 C8.6 27 15.2 27 22 27 C22 18.75 22 10.5 22 2 C15.4 2 8.8 2 2 2 Z " fill="#4F2C08" transform="translate(331,245)"/>
<path d="M0 0 C30.03 0 60.06 0 91 0 C91 2.31 91 4.62 91 7 C90 8 90 8 86.4375 8.0625 C85.303125 8.041875 84.16875 8.02125 83 8 C83.66 7.34 84.32 6.68 85 6 C86.32 6 87.64 6 89 6 C89 4.68 89 3.36 89 2 C59.63 2 30.26 2 0 2 C0 1.34 0 0.68 0 0 Z " fill="#C32956" transform="translate(100,233)"/>
<path d="M0 0 C0 1.66666667 0 3.33333333 0 5 C-0.99 5 -1.98 5 -3 5 C-3 8.96 -3 12.92 -3 17 C-3.33 15.68 -3.66 14.36 -4 13 C-4.99 13.495 -4.99 13.495 -6 14 C-7.33593951 18.00781852 -7.17790164 21.88046174 -7.20532227 26.0612793 C-7.21522186 26.98830658 -7.22512146 27.91533386 -7.23532104 28.87045288 C-7.26693936 31.93834875 -7.29169486 35.00626011 -7.31640625 38.07421875 C-7.33697548 40.19985866 -7.35797195 42.32549447 -7.37937927 44.4511261 C-7.43460306 50.04884529 -7.48401103 55.64660141 -7.53222656 61.24438477 C-7.58243931 66.95527437 -7.63812656 72.66611026 -7.69335938 78.37695312 C-7.80094473 89.58458955 -7.90238891 100.79227258 -8 112 C-8.33 112 -8.66 112 -9 112 C-9.02318114 98.56098261 -9.04094455 85.12196999 -9.05181217 71.68293667 C-9.05702835 65.44250723 -9.06410307 59.20209148 -9.07543945 52.96166992 C-9.08631322 46.93813505 -9.09228638 40.91461334 -9.09487724 34.89106941 C-9.09672339 32.59420629 -9.10032842 30.29734388 -9.10573006 28.00048637 C-9.11300002 24.78082605 -9.11398842 21.56121996 -9.11352539 18.34155273 C-9.11712067 17.39424286 -9.12071594 16.44693298 -9.12442017 15.47091675 C-9.11677269 10.54921862 -8.99351672 5.83068651 -8 1 C-5.20799413 -1.31062555 -3.32874667 -1.1888381 0 0 Z " fill="#1D1C1B" transform="translate(88,175)"/>
<path d="M0 0 C0.33 2.64 0.66 5.28 1 8 C1.78375 8.0825 2.5675 8.165 3.375 8.25 C4.24125 8.4975 5.1075 8.745 6 9 C6.6837045 10.32467746 7.34964186 11.65863633 8 13 C10.53770003 14.28254644 10.53770003 14.28254644 13 15 C13.33 17.31 13.66 19.62 14 22 C11.90625 22.35546875 11.90625 22.35546875 9 22 C6.63950335 20.16827797 4.60780578 18.39829853 2.5 16.3125 C1.94441406 15.78205078 1.38882813 15.25160156 0.81640625 14.70507812 C-0.28082276 13.65302914 -1.36959176 12.59207739 -2.44921875 11.52197266 C-3.90070888 10.09744661 -5.40204489 8.72421453 -6.90625 7.35546875 C-9 5 -9 5 -9 1 C-5.64919071 -1.10976881 -3.77897651 -1.0497157 0 0 Z " fill="#3CC2D1" transform="translate(204,193)"/>
<path d="M0 0 C28.38 0 56.76 0 86 0 C86 0.33 86 0.66 86 1 C83.36 1.33 80.72 1.66 78 2 C78 2.33 78 2.66 78 3 C55.89 3 33.78 3 11 3 C11 2.34 11 1.68 11 1 C7.37 1 3.74 1 0 1 C0 0.67 0 0.34 0 0 Z " fill="#2A2825" transform="translate(298,289)"/>
<path d="M0 0 C5.40912038 4.50169258 10.38422794 9.29287906 15.3125 14.3125 C16.72294025 15.7483765 18.1355915 17.18208559 19.55078125 18.61328125 C20.16606689 19.24016846 20.78135254 19.86705566 21.4152832 20.51293945 C22.94780627 22.09303784 22.94780627 22.09303784 25 23 C25 25.64 25 28.28 25 31 C19.06 31 13.12 31 7 31 C7 30.01 7 29.02 7 28 C8.093125 28.0825 9.18625 28.165 10.3125 28.25 C14.03442858 28.41103961 14.03442858 28.41103961 15.9375 26 C16.4634375 25.01 16.4634375 25.01 17 24 C16.34 23.34 15.68 22.68 15 22 C15.34804688 21.12408203 15.34804688 21.12408203 15.703125 20.23046875 C15.80109375 19.49441406 15.8990625 18.75835937 16 18 C14.30668137 15.87734703 12.71241801 14.15074516 10.75 12.3125 C10.24597656 11.81427734 9.74195313 11.31605469 9.22265625 10.80273438 C6.84340162 8.50153928 5.17651806 7.05883935 2 6 C0.8125 2.9375 0.8125 2.9375 0 0 Z " fill="#50B8C4" transform="translate(265,256)"/>
<path d="M0 0 C5.28 0 10.56 0 16 0 C16 6.93 16 13.86 16 21 C10.72 21 5.44 21 0 21 C0 14.07 0 7.14 0 0 Z M2 2 C2 7.61 2 13.22 2 19 C5.96 19 9.92 19 14 19 C14 13.39 14 7.78 14 2 C10.04 2 6.08 2 2 2 Z " fill="#3E1E06" transform="translate(335,249)"/>
<path d="M0 0 C5.28 0 10.56 0 16 0 C16 6.93 16 13.86 16 21 C10.72 21 5.44 21 0 21 C0 14.07 0 7.14 0 0 Z M2 2 C2 7.61 2 13.22 2 19 C5.96 19 9.92 19 14 19 C14 13.39 14 7.78 14 2 C10.04 2 6.08 2 2 2 Z " fill="#401E07" transform="translate(335,205)"/>
<path d="M0 0 C0.33 0 0.66 0 1 0 C1.66 4.29 2.32 8.58 3 13 C33.36 13.33 63.72 13.66 95 14 C95 14.33 95 14.66 95 15 C82.76125969 15.15356688 70.52246736 15.30174866 58.28357792 15.4429636 C52.60120626 15.50869924 46.91886991 15.57632353 41.23657227 15.64819336 C35.75775535 15.71742125 30.27890132 15.78178051 24.79998589 15.84269524 C22.70468489 15.86685991 20.60940373 15.89280977 18.5141468 15.92053413 C15.59027335 15.95892436 12.66639513 15.99109311 9.74243164 16.02172852 C8.42937042 16.04114754 8.42937042 16.04114754 7.08978271 16.06095886 C5.05983357 16.0789946 3.02952434 16.04527441 1 16 C0 15 0 15 -0.09765625 11.62109375 C-0.09098369 10.22652923 -0.07902532 8.83198257 -0.0625 7.4375 C-0.05798828 6.72658203 -0.05347656 6.01566406 -0.04882812 5.28320312 C-0.03700864 3.52209987 -0.01907263 1.76103964 0 0 Z " fill="#D0994B" transform="translate(290,272)"/>
<path d="M0 0 C0.33 0 0.66 0 1 0 C1 6.93 1 13.86 1 21 C6.28 21 11.56 21 17 21 C17 14.07 17 7.14 17 0 C17.33 0 17.66 0 18 0 C18 7.59 18 15.18 18 23 C11.73 23 5.46 23 -1 23 C-0.67 15.41 -0.34 7.82 0 0 Z " fill="#B28037" transform="translate(334,205)"/>
<path d="M0 0 C5.66129431 4.69766975 10.85228904 9.74723372 16 15 C13 15 13 15 10.625 12.75 C9.325625 11.38875 9.325625 11.38875 8 10 C6.35135455 8.64444707 4.68996005 7.30368347 3 6 C3.185625 6.94875 3.37125 7.8975 3.5625 8.875 C4 12 4 12 3 14 C1.16364422 12.19047409 -0.66916208 10.37759362 -2.5 8.5625 C-3.02464844 8.04623047 -3.54929688 7.52996094 -4.08984375 6.99804688 C-5.41224552 5.68423213 -6.70835568 4.34406495 -8 3 C-8 2.67 -8 2.34 -8 2 C-6.02 2 -4.04 2 -2 2 C-2.33 2.99 -2.66 3.98 -3 5 C-2.34 5.33 -1.68 5.66 -1 6 C-0.01 6.66 0.98 7.32 2 8 C1.34 5.36 0.68 2.72 0 0 Z " fill="#4AB5C2" transform="translate(249,240)"/>
<path d="M0 0 C7.92 0 15.84 0 24 0 C23.67 0.66 23.34 1.32 23 2 C12.605 2.495 12.605 2.495 2 3 C1.67 11.25 1.34 19.5 1 28 C1.66 28.33 2.32 28.66 3 29 C2.01 29 1.02 29 0 29 C0 19.43 0 9.86 0 0 Z " fill="#361C08" transform="translate(331,245)"/>
<path d="M0 0 C0.33 0 0.66 0 1 0 C1.66 4.29 2.32 8.58 3 13 C12.9 13.33 22.8 13.66 33 14 C33 14.33 33 14.66 33 15 C28.46122739 15.16725986 23.92228756 15.32785453 19.38305664 15.48217773 C17.8377441 15.5356662 16.29249433 15.59100068 14.74731445 15.64819336 C12.53089949 15.72991433 10.31434616 15.8050717 8.09765625 15.87890625 C7.05545677 15.91945885 7.05545677 15.91945885 5.99220276 15.96083069 C4.32890224 16.01301108 2.66407661 16.01185107 1 16 C0 15 0 15 -0.09765625 11.62109375 C-0.09098369 10.22652923 -0.07902532 8.83198257 -0.0625 7.4375 C-0.05798828 6.72658203 -0.05347656 6.01566406 -0.04882812 5.28320312 C-0.03700864 3.52209987 -0.01907263 1.76103964 0 0 Z " fill="#D09A4B" transform="translate(290,272)"/>
<path d="M0 0 C3.54433654 1.41773462 4.33806119 2.67612238 6 6 C6.680625 6.33 7.36125 6.66 8.0625 7 C10 8 10 8 10.75 10.125 C10.87375 11.053125 10.87375 11.053125 11 12 C9.68 12.33 8.36 12.66 7 13 C7.33 11.68 7.66 10.36 8 9 C5.69 8.67 3.38 8.34 1 8 C0 2.25 0 2.25 0 0 Z " fill="#3EC0D2" transform="translate(252,246)"/>
<path d="M0 0 C1.32 0 2.64 0 4 0 C4 0.99 4 1.98 4 3 C7.96 3 11.92 3 16 3 C16 3.66 16 4.32 16 5 C12.37 5 8.74 5 5 5 C4.67 7.31 4.34 9.62 4 12 C3 9 3 9 2.5625 6.875 C2.376875 6.25625 2.19125 5.6375 2 5 C1.34 4.67 0.68 4.34 0 4 C0 2.68 0 1.36 0 0 Z " fill="#1D1C1B" transform="translate(293,287)"/>
<path d="M0 0 C5.43733055 4.52991796 10.46458931 9.34294216 15.4375 14.375 C16.16904297 15.11105469 16.90058594 15.84710938 17.65429688 16.60546875 C19.43852723 18.40136074 21.22036124 20.19955985 23 22 C20 22 20 22 17.6328125 19.828125 C16.76398438 18.89484375 15.89515625 17.9615625 15 17 C13.29419689 15.24753359 11.585883 13.49750741 9.875 11.75 C8.60269531 10.44289063 8.60269531 10.44289063 7.3046875 9.109375 C5.1052023 6.80882371 5.1052023 6.80882371 2 6 C0.8125 2.9375 0.8125 2.9375 0 0 Z " fill="#51AEB9" transform="translate(265,256)"/>
<path d="M0 0 C1.32 0 2.64 0 4 0 C4 0.99 4 1.98 4 3 C11.59 3 19.18 3 27 3 C27 3.33 27 3.66 27 4 C18.09 4 9.18 4 0 4 C0 2.68 0 1.36 0 0 Z " fill="#241705" transform="translate(293,183)"/>
<path d="M0 0 C2.97 0 5.94 0 9 0 C9 2.31 9 4.62 9 7 C6.36 7 3.72 7 1 7 C1 6.34 1 5.68 1 5 C2.98 5 4.96 5 7 5 C6.67 3.68 6.34 2.36 6 1 C4.02 1 2.04 1 0 1 C0 0.67 0 0.34 0 0 Z " fill="#CD3468" transform="translate(182,280)"/>
<path d="M0 0 C1.65 0 3.3 0 5 0 C5.66 2.31 6.32 4.62 7 7 C6.01 7.33 5.02 7.66 4 8 C3.01 7.34 2.02 6.68 1 6 C1 5.34 1 4.68 1 4 C0.34 3.67 -0.32 3.34 -1 3 C-0.67 2.01 -0.34 1.02 0 0 Z " fill="#3EC1D3" transform="translate(236,232)"/>
<path d="M0 0 C2.31 0.66 4.62 1.32 7 2 C7.33 3.65 7.66 5.3 8 7 C8.66 7 9.32 7 10 7 C12 9 12 9 13 11 C8.91918237 10.47585829 7.04739336 8.38881144 4.25 5.5 C3.45078125 4.6853125 2.6515625 3.870625 1.828125 3.03125 C0 1 0 1 0 0 Z " fill="#4DB5C9" transform="translate(266,267)"/>
<path d="M0 0 C3.82097239 0.53069061 6.06171403 1.49701566 9 4 C8.01 5.32 7.02 6.64 6 8 C4.99403703 7.0479279 3.99538437 6.08812654 3 5.125 C2.443125 4.59132812 1.88625 4.05765625 1.3125 3.5078125 C0 2 0 2 0 0 Z " fill="#41BFCF" transform="translate(207,207)"/>
<path d="M0 0 C4.88049925 3.9419417 9.0580583 8.11950075 13 13 C10.04361101 12.04117114 8.35855201 11.49300902 6.5 8.9375 C5.10867138 6.74206097 5.10867138 6.74206097 2.3125 6.25 C1.549375 6.1675 0.78625 6.085 0 6 C0 4.02 0 2.04 0 0 Z " fill="#4EB1BC" transform="translate(204,195)"/>
<path d="M0 0 C2.375 0.6875 2.375 0.6875 5 2 C6.56938028 4.91456338 7 6.67941669 7 10 C5.68 9.67 4.36 9.34 3 9 C1.875 5.25 1.875 5.25 3 3 C2.01 2.67 1.02 2.34 0 2 C0 1.34 0 0.68 0 0 Z " fill="#3FC1D1" transform="translate(244,238)"/>
<path d="M0 0 C1.98 0 3.96 0 6 0 C6.33 0.66 6.66 1.32 7 2 C6.34 2 5.68 2 5 2 C5.33 3.32 5.66 4.64 6 6 C4.35 6 2.7 6 1 6 C1 5.34 1 4.68 1 4 C0.34 3.67 -0.32 3.34 -1 3 C-0.67 2.01 -0.34 1.02 0 0 Z " fill="#2D2F2C" transform="translate(87,174)"/>
<path d="M0 0 C1.12894876 0.93274109 2.25300876 1.87140122 3.375 2.8125 C4.00148437 3.33457031 4.62796875 3.85664063 5.2734375 4.39453125 C7 6 7 6 9 9 C5.28400809 9.20086443 4.22791555 9.1519437 1 7 C0.3125 3.375 0.3125 3.375 0 0 Z " fill="#4BB4C3" transform="translate(217,208)"/>
<path d="M0 0 C0.33 0 0.66 0 1 0 C1.33611568 2.10372401 1.66879946 4.20799657 2 6.3125 C2.185625 7.48425781 2.37125 8.65601563 2.5625 9.86328125 C3 13 3 13 3 16 C2.01 15.67 1.02 15.34 0 15 C0 10.05 0 5.1 0 0 Z " fill="#BCA351" transform="translate(290,272)"/>
<path d="M0 0 C2.72574271 0.37330824 3.80822085 0.79194601 5.703125 2.84765625 C6.21359375 3.57855469 6.7240625 4.30945313 7.25 5.0625 C8.03117188 6.16271484 8.03117188 6.16271484 8.828125 7.28515625 C9.21484375 7.85105469 9.6015625 8.41695312 10 9 C9.01 9 8.02 9 7 9 C6.34 8.34 5.68 7.68 5 7 C4.34 7 3.68 7 3 7 C2.01 4.69 1.02 2.38 0 0 Z " fill="#3CC2D2" transform="translate(222,216)"/>
<path d="M0 0 C-1.32 0.33 -2.64 0.66 -4 1 C-3.67 1.99 -3.34 2.98 -3 4 C-3.9375 6.1875 -3.9375 6.1875 -5 8 C-5.66 8 -6.32 8 -7 8 C-7 5.69 -7 3.38 -7 1 C-3.375 -1.125 -3.375 -1.125 0 0 Z " fill="#0C0C0A" transform="translate(87,175)"/>
<path d="M0 0 C2.31 0.33 4.62 0.66 7 1 C6.67 2.32 6.34 3.64 6 5 C6.66 5 7.32 5 8 5 C7.67 5.99 7.34 6.98 7 8 C5.83035398 6.8572081 4.66435444 5.71068285 3.5 4.5625 C2.8503125 3.92441406 2.200625 3.28632813 1.53125 2.62890625 C0 1 0 1 0 0 Z " fill="#4CB8CB" transform="translate(253,254)"/>
<path d="M0 0 C2.93706939 2.78248679 5.43415863 5.87938211 8 9 C7.67 9.66 7.34 10.32 7 11 C4.03 8.03 1.06 5.06 -2 2 C-1.34 1.34 -0.68 0.68 0 0 Z " fill="#4DBBCB" transform="translate(216,214)"/>
<path d="M0 0 C0 1.65 0 3.3 0 5 C-1.32 5 -2.64 5 -4 5 C-4.66 4.01 -5.32 3.02 -6 2 C-2.25 0 -2.25 0 0 0 Z " fill="#48B8D4" transform="translate(202,195)"/>
<path d="M0 0 C-0.33 1.32 -0.66 2.64 -1 4 C-1 3.34 -1 2.68 -1 2 C-3.97 2 -6.94 2 -10 2 C-10 1.34 -10 0.68 -10 0 C-6.30458414 -0.95024979 -3.69541586 -0.95024979 0 0 Z " fill="#1C201C" transform="translate(293,178)"/>
<path d="M0 0 C-3.00313748 1.50156874 -5.79067522 1.09281204 -9.125 1.0625 C-10.40632813 1.05347656 -11.68765625 1.04445313 -13.0078125 1.03515625 C-14.48894531 1.01775391 -14.48894531 1.01775391 -16 1 C-16 0.67 -16 0.34 -16 0 C-13.89850989 -0.38971999 -11.7936518 -0.76131477 -9.6875 -1.125 C-7.92986328 -1.43824219 -7.92986328 -1.43824219 -6.13671875 -1.7578125 C-3 -2 -3 -2 0 0 Z " fill="#1B1C1B" transform="translate(296,300)"/>
<path d="M0 0 C1.14926266 0.95421808 2.29430541 1.91352045 3.4375 2.875 C4.07558594 3.40867188 4.71367187 3.94234375 5.37109375 4.4921875 C7 6 7 6 8 8 C7.401875 7.690625 6.80375 7.38125 6.1875 7.0625 C3.91043228 5.89790296 3.91043228 5.89790296 1 5 C0.67 3.35 0.34 1.7 0 0 Z " fill="#4BAFB8" transform="translate(241,232)"/>
<path d="M0 0 C2 2 2 2 2 5 C0.35 5.33 -1.3 5.66 -3 6 C-3 4.68 -3 3.36 -3 2 C-2.01 2 -1.02 2 0 2 C0 1.34 0 0.68 0 0 Z " fill="#232824" transform="translate(82,181)"/>
<path d="M0 0 C1.32 0 2.64 0 4 0 C4.33 1.32 4.66 2.64 5 4 C3.35 4 1.7 4 0 4 C0 2.68 0 1.36 0 0 Z " fill="#130702" transform="translate(293,287)"/>
<path d="M0 0 C1.875 0.125 1.875 0.125 4 1 C5.25 4.0625 5.25 4.0625 6 7 C3.95880212 5.38405168 1.95927063 3.7143618 0 2 C0 1.34 0 0.68 0 0 Z " fill="#50B9CC" transform="translate(207,207)"/>
</svg>
