<?xml version="1.0" standalone="no"?>
<!DOCTYPE svg PUBLIC "-//W3C//DTD SVG 20010904//EN"
 "http://www.w3.org/TR/2001/REC-SVG-20010904/DTD/svg10.dtd">
<svg version="1.0" xmlns="http://www.w3.org/2000/svg"
 width="3236.000000pt" height="1820.000000pt" viewBox="0 0 3236.000000 1820.000000"
 preserveAspectRatio="xMidYMid meet">

<g transform="translate(0.000000,1820.000000) scale(0.100000,-0.100000)"
fill="#000000" stroke="none">
<path d="M7980 15300 c-63 -5 -212 -13 -330 -19 -328 -17 -818 -70 -1100 -121
-63 -11 -160 -27 -215 -36 -91 -15 -380 -82 -515 -119 -30 -9 -140 -38 -245
-65 -104 -27 -226 -58 -270 -70 -44 -12 -149 -39 -232 -60 -174 -44 -225 -62
-558 -190 -132 -50 -264 -100 -293 -110 -154 -55 -827 -408 -1006 -528 -333
-223 -386 -264 -543 -415 -282 -273 -402 -448 -527 -764 -45 -116 -55 -158
-71 -312 -32 -302 43 -580 232 -864 72 -108 274 -320 449 -473 124 -108 396
-276 549 -339 211 -86 419 -145 515 -145 42 0 52 4 74 31 30 35 28 57 -7 99
-30 35 -248 259 -599 617 -268 273 -305 315 -383 432 -97 147 -122 199 -155
324 -20 77 -22 102 -17 210 3 67 13 147 22 177 20 65 94 209 156 300 62 92
288 313 405 397 196 141 351 241 469 303 66 35 147 77 180 95 322 172 382 200
610 285 28 10 75 28 105 40 30 12 78 30 105 40 28 10 68 26 90 34 22 8 68 26
103 40 35 14 150 48 255 76 106 28 224 59 262 70 39 11 140 37 225 59 168 43
366 95 445 118 28 8 109 25 180 38 72 13 191 35 265 48 74 14 162 28 195 32
33 3 98 12 145 20 189 31 456 56 888 81 243 14 331 14 615 4 183 -6 379 -11
437 -11 143 -1 441 -17 520 -30 36 -5 117 -16 180 -24 63 -8 207 -26 320 -40
113 -14 246 -30 295 -36 50 -5 106 -14 125 -19 19 -5 105 -23 190 -40 222 -44
404 -89 620 -151 74 -22 169 -49 210 -60 100 -28 127 -38 470 -174 162 -65
306 -121 320 -125 14 -4 84 -39 155 -77 72 -39 185 -99 253 -133 68 -34 136
-73 151 -86 16 -13 32 -24 35 -24 4 0 39 -23 79 -50 286 -199 451 -346 633
-566 176 -212 294 -432 352 -657 24 -94 26 -119 26 -302 1 -220 -12 -312 -63
-453 -46 -126 -87 -198 -200 -352 -53 -73 -168 -194 -245 -259 -254 -216 -751
-484 -1161 -627 -55 -20 -185 -66 -290 -104 -205 -74 -443 -146 -595 -179 -52
-12 -185 -41 -295 -66 -318 -72 -381 -84 -630 -120 -55 -8 -106 -17 -114 -20
-20 -8 -346 -44 -536 -60 -93 -8 -188 -17 -210 -20 -102 -14 -425 -36 -675
-46 -282 -11 -773 0 -960 21 -47 6 -166 19 -265 30 -201 23 -282 37 -290 50
-3 5 2 26 11 47 33 78 65 183 114 378 28 110 65 247 82 305 84 289 108 378
117 429 29 167 21 358 -18 446 -26 59 -97 134 -147 156 -45 20 -229 66 -424
105 -151 30 -245 50 -495 105 -293 64 -359 57 -460 -52 -73 -79 -106 -130
-143 -215 -49 -117 -70 -213 -107 -509 -9 -66 -22 -160 -30 -210 -33 -198 -75
-523 -75 -572 0 -32 10 -79 25 -119 14 -36 25 -85 25 -107 0 -39 -27 -197 -70
-417 -10 -52 -22 -115 -25 -140 -4 -25 -20 -110 -36 -190 -16 -80 -45 -239
-64 -355 -62 -362 -82 -472 -135 -755 -28 -151 -64 -347 -80 -435 -50 -283
-109 -611 -129 -712 -39 -192 -91 -435 -101 -471 -22 -76 -24 -237 -5 -328 16
-76 16 -97 6 -187 -7 -56 -19 -133 -27 -172 -16 -73 -41 -212 -75 -405 -10
-63 -28 -158 -39 -210 -21 -102 -65 -347 -100 -550 -23 -138 -80 -442 -110
-590 -11 -52 -35 -192 -55 -310 -20 -118 -41 -235 -46 -260 -6 -25 -23 -121
-40 -215 -16 -93 -40 -228 -54 -300 -35 -177 -35 -243 0 -325 l27 -64 -17 -86
c-9 -47 -32 -157 -52 -245 -39 -178 -47 -293 -21 -322 9 -10 19 -28 22 -39 9
-30 37 -39 231 -74 225 -40 229 -40 273 10 37 41 76 133 87 204 4 23 13 67 21
99 8 32 24 108 35 169 25 139 38 171 98 233 27 28 53 59 59 70 6 12 34 113 62
225 28 113 64 255 81 315 30 116 45 177 159 660 79 338 77 331 152 625 31 118
74 296 98 395 23 99 53 223 66 275 14 52 31 129 40 170 8 41 30 131 49 200 18
69 36 145 40 170 8 56 52 205 72 244 8 16 37 57 63 90 73 93 103 187 165 511
14 77 44 212 65 300 22 88 43 180 49 205 5 25 35 144 66 265 31 121 67 270 80
330 30 137 79 338 105 430 39 136 118 481 124 540 3 33 1 80 -5 105 -22 98
-21 143 4 246 23 96 28 106 83 170 32 38 68 89 79 113 19 43 20 43 60 38 22
-4 68 -15 101 -26 109 -35 432 -89 689 -115 554 -58 1008 -64 1540 -21 105 9
279 22 388 30 217 16 391 36 567 65 63 10 178 28 255 40 148 22 185 30 440 86
88 20 192 42 230 50 292 61 515 125 870 249 105 36 228 79 275 95 47 16 123
46 170 68 47 21 123 56 170 77 345 157 688 363 915 549 148 122 325 305 397
411 19 28 64 93 100 146 138 204 247 490 284 747 25 171 22 471 -5 622 -21
121 -95 353 -153 480 -41 89 -155 291 -210 373 -73 107 -240 311 -332 405
-144 148 -262 246 -581 483 -190 141 -761 440 -1000 525 -44 15 -134 50 -200
76 -293 120 -456 175 -710 243 -27 8 -95 26 -150 41 -282 76 -740 168 -940
189 -33 4 -86 11 -118 16 -33 6 -109 16 -170 24 -178 21 -363 44 -482 60 -122
16 -228 21 -780 35 -209 6 -423 12 -475 14 -52 2 -147 0 -210 -4z m-1668
-3846 c53 -13 179 -40 533 -114 541 -112 538 -111 555 -156 20 -53 -1 -244
-31 -280 -19 -23 -21 -22 -449 66 -52 11 -115 24 -140 29 -25 6 -83 19 -130
30 -188 46 -248 15 -281 -144 -20 -98 4 -165 71 -200 15 -8 106 -30 201 -50
96 -19 215 -44 264 -54 173 -38 330 -71 332 -71 11 0 -2 -90 -29 -196 l-32
-127 -65 6 c-36 3 -106 15 -156 26 -86 19 -164 36 -382 81 -54 12 -136 29
-183 40 -47 10 -132 29 -190 41 -58 12 -132 30 -165 39 l-60 17 3 59 c1 32 11
113 22 179 11 66 29 176 40 245 11 69 24 170 30 225 22 204 49 287 104 311 41
17 66 17 138 -2z m-732 -4697 c52 -13 133 -32 180 -42 47 -10 121 -26 165 -35
44 -10 96 -21 115 -25 19 -3 56 -11 83 -16 46 -11 47 -12 47 -50 0 -44 -33
-220 -49 -261 -13 -36 -25 -36 -198 2 -76 16 -169 36 -208 44 -178 37 -322 68
-337 72 -25 7 -23 56 7 202 14 66 25 123 25 126 0 13 81 5 170 -17z m-646
-4168 c79 -16 81 -24 56 -165 -27 -151 -40 -184 -76 -184 -44 0 -144 31 -144
45 0 17 27 162 46 248 18 76 17 76 118 56z"/>
<path d="M7224 13538 c-23 -24 -70 -79 -105 -123 -105 -132 -85 -120 -213
-118 -61 1 -142 7 -180 12 -37 5 -74 7 -81 4 -44 -16 -18 -78 95 -228 33 -44
62 -94 66 -111 7 -38 -9 -100 -48 -184 -38 -81 -58 -144 -58 -183 0 -29 1 -29
41 -23 22 4 86 20 142 37 177 53 184 54 220 37 34 -16 122 -88 217 -175 31
-29 62 -53 69 -53 21 0 31 50 37 188 3 76 10 156 16 179 10 41 16 46 116 105
218 130 223 162 37 227 -141 48 -191 75 -208 109 -8 15 -29 88 -46 162 -48
205 -50 208 -117 138z"/>
<path d="M9598 8879 c-318 -18 -600 -91 -838 -216 -450 -238 -769 -638 -954
-1198 -56 -170 -105 -379 -227 -970 -11 -55 -29 -142 -40 -192 -11 -51 -28
-136 -39 -188 -11 -52 -29 -137 -40 -187 -11 -51 -42 -203 -70 -338 -28 -135
-64 -306 -80 -380 -16 -74 -61 -288 -100 -475 -40 -187 -89 -425 -111 -530
-117 -556 -142 -728 -142 -955 0 -136 5 -201 22 -290 21 -110 52 -233 71 -275
124 -287 274 -453 517 -575 120 -59 188 -82 346 -114 291 -59 744 -37 1037 50
206 61 411 165 595 304 137 103 336 317 430 465 18 27 48 75 67 105 30 46 88
162 154 305 109 237 155 417 364 1420 11 50 38 178 61 285 22 107 58 278 80
380 58 277 115 550 144 685 14 66 51 239 81 385 68 328 86 413 119 565 14 66
32 158 41 204 8 47 19 103 24 125 31 141 36 512 10 676 -33 205 -136 418 -275
569 -107 117 -303 233 -490 289 -209 63 -469 87 -757 71z m15 -1283 c44 -18
80 -54 98 -96 23 -58 19 -294 -8 -405 -23 -95 -42 -183 -124 -572 -11 -54 -29
-136 -39 -183 -11 -47 -28 -130 -40 -185 -11 -55 -29 -140 -40 -190 -21 -100
-47 -226 -80 -385 -38 -184 -58 -281 -96 -455 -20 -93 -40 -190 -45 -215 -4
-25 -20 -99 -34 -165 -14 -66 -32 -151 -40 -190 -8 -38 -26 -124 -40 -190 -34
-159 -57 -268 -94 -450 -78 -381 -169 -571 -312 -650 -47 -26 -64 -30 -134
-30 -69 0 -86 4 -125 27 -28 16 -55 43 -70 70 -24 41 -25 50 -23 188 2 154 19
269 87 590 20 91 70 329 111 530 42 201 87 415 100 475 14 61 40 189 60 285
19 96 44 216 54 265 11 50 29 135 41 190 11 55 55 260 96 455 42 195 95 450
119 565 69 334 77 365 123 465 53 116 135 209 215 245 61 28 187 34 240 11z"/>
<path d="M28100 8870 c-632 -62 -1138 -428 -1448 -1046 -39 -77 -77 -159 -85
-184 -9 -25 -30 -83 -47 -130 -43 -118 -115 -411 -135 -555 -37 -253 -12 -526
67 -760 84 -248 231 -466 577 -861 20 -23 43 -50 51 -61 35 -44 116 -139 126
-148 17 -15 242 -299 301 -380 76 -105 144 -228 164 -297 7 -24 16 -47 20 -53
36 -51 45 -412 14 -590 -57 -327 -127 -470 -263 -537 -62 -31 -74 -33 -167
-33 -93 0 -103 2 -141 28 -24 16 -50 46 -63 73 -22 43 -23 54 -19 202 5 147
10 180 77 502 39 190 79 380 89 423 15 63 16 82 6 95 -11 16 -64 17 -662 17
-702 0 -672 2 -693 -53 -12 -30 -117 -536 -168 -807 -43 -232 -58 -595 -32
-795 19 -152 61 -294 113 -388 10 -17 27 -49 39 -70 73 -130 213 -254 387
-341 400 -201 1208 -214 1662 -26 147 61 280 141 395 238 84 72 219 213 261
272 19 28 54 77 78 110 25 33 45 63 45 67 1 4 16 31 35 60 27 44 155 298 187
373 104 247 175 487 244 825 145 718 45 1142 -410 1730 -105 135 -206 261
-221 275 -40 36 -513 618 -565 695 -120 177 -154 289 -146 480 6 130 24 184
84 258 52 64 69 78 132 108 48 24 68 28 146 28 95 0 122 -8 176 -57 42 -38 49
-60 49 -155 0 -66 -10 -133 -36 -253 -45 -208 -50 -248 -31 -274 15 -20 27
-20 676 -20 l661 0 26 26 c28 29 30 35 76 354 17 120 22 203 23 418 1 147 -2
267 -6 267 -4 0 -13 33 -19 73 -25 150 -99 332 -186 454 -100 141 -226 233
-444 326 -46 20 -209 63 -290 76 -174 29 -523 39 -710 21z"/>
<path d="M12738 8820 c-219 -4 -270 -8 -282 -20 -8 -8 -29 -80 -45 -160 -16
-80 -39 -188 -51 -240 -22 -99 -33 -150 -99 -465 -22 -104 -56 -266 -76 -360
-34 -160 -75 -356 -165 -785 -21 -102 -57 -273 -79 -380 -23 -107 -57 -269
-76 -360 -19 -91 -52 -250 -74 -355 -94 -444 -153 -725 -241 -1145 -63 -298
-128 -609 -160 -770 -17 -80 -39 -185 -49 -235 -11 -49 -39 -178 -61 -285 -23
-107 -57 -265 -75 -350 -19 -85 -50 -234 -70 -330 -19 -96 -51 -249 -70 -340
-19 -91 -33 -177 -29 -191 l5 -27 335 -7 c184 -4 798 -6 1364 -3 946 3 1030 5
1047 21 13 11 25 50 37 114 11 54 34 170 53 258 18 88 54 259 78 380 25 121
52 254 60 296 14 69 13 108 -4 110 -3 0 -235 2 -516 3 -860 5 -825 4 -832 22
-7 19 -2 45 74 409 30 143 76 368 103 500 27 132 63 305 80 385 17 80 56 262
85 405 97 466 227 1079 270 1280 14 61 51 241 84 400 33 160 72 344 86 410 14
66 50 237 80 380 66 319 106 507 146 688 49 228 139 681 139 702 0 51 10 50
-412 50 -216 0 -513 -2 -660 -5z"/>
<path d="M16650 8823 c-60 -3 -90 -9 -102 -20 -10 -9 -32 -62 -49 -117 -30
-98 -92 -297 -149 -481 -16 -49 -43 -137 -60 -195 -17 -58 -35 -116 -40 -130
-5 -14 -27 -86 -50 -160 -23 -74 -49 -162 -60 -195 -10 -33 -29 -98 -44 -145
-14 -47 -95 -312 -180 -590 -85 -278 -161 -527 -169 -555 -9 -27 -43 -140 -77
-250 -34 -110 -67 -220 -74 -245 -7 -25 -29 -97 -49 -160 -20 -63 -70 -227
-112 -365 -42 -137 -96 -313 -120 -390 -24 -77 -60 -194 -80 -260 -20 -66 -54
-176 -75 -245 -39 -125 -214 -696 -272 -885 -16 -55 -43 -140 -58 -190 -16
-49 -38 -121 -50 -160 -22 -71 -112 -365 -176 -575 -19 -63 -55 -180 -79 -260
-58 -189 -59 -191 -41 -215 14 -20 26 -20 649 -20 605 0 636 1 655 19 23 20
31 45 117 351 31 110 65 229 75 265 11 36 36 121 56 190 19 69 44 154 54 189
10 35 24 67 32 72 7 5 186 9 397 9 l383 0 -5 -57 c-10 -106 -37 -338 -41 -358
-3 -11 -12 -90 -21 -175 -8 -85 -18 -162 -21 -170 -11 -32 -32 -273 -25 -298
7 -26 10 -27 102 -34 100 -8 1105 -8 1152 0 15 3 32 12 37 22 5 9 20 122 34
251 15 129 30 268 36 309 5 41 14 120 20 175 5 55 14 132 20 170 10 70 29 233
55 485 8 74 19 173 25 220 12 99 42 364 65 565 27 236 44 381 70 610 14 121
34 297 45 390 11 94 28 247 39 340 11 94 25 213 31 265 43 377 61 535 70 600
5 41 16 138 25 215 8 77 24 217 35 310 11 94 36 310 55 480 19 171 37 321 40
335 6 35 93 818 100 910 3 41 8 84 10 96 3 11 -1 29 -9 39 -12 17 -63 18
-1062 20 -577 1 -1087 0 -1134 -2z m800 -1195 c0 -23 -6 -76 -35 -308 -8 -63
-17 -142 -20 -175 -3 -33 -14 -125 -25 -205 -10 -80 -26 -203 -35 -275 -8 -71
-22 -184 -30 -250 -9 -66 -22 -174 -30 -240 -7 -66 -19 -160 -25 -210 -6 -49
-27 -218 -46 -375 -19 -157 -41 -339 -49 -405 -7 -66 -20 -169 -29 -230 -23
-174 -45 -351 -56 -465 -13 -130 -30 -230 -42 -252 -8 -16 -31 -18 -257 -18
-284 0 -311 3 -311 34 1 21 39 163 138 506 111 385 194 679 211 745 10 39 46
165 80 280 34 116 78 266 98 335 20 69 47 163 60 210 37 127 59 205 88 310 14
52 36 131 50 175 13 44 51 179 85 300 34 121 70 247 80 280 10 33 28 94 40
135 27 96 37 120 50 120 5 0 10 -10 10 -22z"/>
<path d="M20468 8821 c-32 -3 -65 -13 -73 -22 -10 -9 -27 -68 -41 -140 -13
-68 -35 -171 -48 -229 -13 -58 -32 -143 -41 -190 -9 -47 -27 -132 -40 -190
-13 -58 -28 -130 -34 -160 -6 -30 -24 -118 -40 -195 -32 -151 -86 -406 -151
-715 -22 -107 -58 -278 -80 -380 -22 -102 -49 -234 -60 -295 -12 -60 -28 -137
-37 -170 -8 -33 -19 -82 -24 -110 -4 -27 -20 -104 -34 -170 -14 -66 -32 -151
-40 -190 -8 -38 -26 -124 -40 -190 -14 -66 -41 -194 -60 -285 -19 -91 -52
-252 -75 -357 -97 -463 -122 -579 -159 -758 -22 -104 -47 -221 -55 -260 -9
-38 -34 -157 -56 -263 -22 -105 -58 -279 -80 -385 -23 -105 -59 -277 -81 -382
-22 -104 -51 -244 -65 -310 -15 -66 -39 -181 -54 -255 -15 -74 -30 -142 -34
-150 -4 -9 0 -24 8 -35 14 -19 32 -20 511 -23 536 -5 834 3 860 22 18 13 27
49 85 336 23 113 66 322 96 465 31 143 80 379 110 525 30 146 56 272 59 280 3
8 41 188 84 400 44 212 92 439 106 505 14 66 44 208 66 315 22 107 46 206 52
220 11 22 19 25 72 28 131 7 272 -39 322 -105 27 -35 28 -42 27 -137 -1 -77
-11 -147 -42 -296 -65 -310 -120 -573 -153 -735 -17 -82 -37 -177 -46 -210 -8
-33 -19 -82 -24 -110 -4 -27 -20 -104 -34 -170 -14 -66 -35 -165 -46 -220 -11
-55 -33 -156 -48 -225 -16 -69 -38 -172 -50 -230 -12 -58 -31 -145 -41 -195
-75 -351 -84 -400 -76 -428 6 -25 7 -25 172 -32 92 -4 386 -6 655 -3 420 3
492 6 505 19 13 14 55 205 260 1189 14 69 34 163 45 210 64 296 260 1250 271
1320 19 127 17 348 -5 445 -34 147 -128 270 -256 334 -33 17 -61 37 -61 44 1
6 42 32 92 56 113 55 216 124 289 193 77 74 123 132 197 253 12 20 95 189 125
256 42 93 129 383 165 554 92 433 124 682 125 980 1 238 -4 278 -55 430 -80
239 -236 395 -473 470 -101 32 -182 42 -415 50 -264 8 -1964 13 -2032 6z
m1447 -1293 c56 -14 102 -66 111 -125 28 -186 -91 -755 -188 -895 -10 -14 -18
-30 -18 -35 0 -19 -108 -114 -155 -135 -44 -20 -70 -23 -212 -26 -150 -4 -163
-3 -170 14 -9 23 13 152 70 415 25 112 56 260 70 329 94 450 99 467 130 472
43 7 323 -4 362 -14z"/>
<path d="M24675 8821 c-49 -3 -95 -9 -102 -14 -6 -4 -14 -31 -18 -60 -4 -28
-18 -104 -32 -167 -13 -63 -39 -191 -58 -285 -20 -93 -39 -183 -44 -200 -6
-16 -19 -82 -31 -145 -11 -63 -32 -162 -45 -220 -13 -58 -33 -152 -45 -210
-11 -58 -30 -143 -40 -190 -10 -47 -28 -132 -40 -190 -12 -58 -30 -143 -40
-190 -10 -47 -28 -132 -40 -190 -12 -58 -30 -143 -40 -190 -10 -47 -28 -132
-40 -190 -11 -58 -30 -145 -40 -195 -10 -49 -37 -175 -59 -280 -22 -104 -58
-278 -81 -385 -22 -107 -59 -280 -81 -385 -22 -104 -57 -273 -79 -375 -21
-102 -57 -273 -80 -380 -22 -107 -58 -278 -79 -380 -22 -102 -58 -275 -81
-385 -24 -110 -58 -270 -76 -355 -18 -85 -47 -225 -64 -310 -17 -85 -35 -172
-41 -194 -6 -21 -14 -62 -19 -90 -5 -28 -21 -105 -35 -171 -62 -291 -87 -426
-81 -448 5 -23 11 -24 118 -30 139 -8 945 -7 1088 2 l105 6 12 37 c7 20 28
117 48 215 20 98 65 318 101 488 36 171 83 393 104 495 22 102 57 272 80 377
80 381 120 573 190 908 38 187 88 423 110 525 21 102 57 274 80 383 22 109 51
248 65 310 13 62 90 423 169 802 80 380 150 711 156 735 6 25 24 110 40 190
16 80 45 219 64 310 174 830 200 963 192 993 -5 23 -9 24 -127 30 -143 8 -953
6 -1084 -2z"/>
<path d="M4479 1890 c-76 -19 -179 -84 -179 -114 0 -27 73 -46 390 -101 47 -9
114 -22 150 -29 91 -20 235 -45 297 -51 44 -5 53 -3 62 13 12 23 -5 51 -69
113 -90 87 -95 90 -151 95 -30 3 -97 13 -150 24 -53 10 -139 26 -191 34 -53 9
-102 17 -109 20 -8 2 -30 0 -50 -4z"/>
</g>
</svg>
