<?xml version="1.0" standalone="no"?>
<!DOCTYPE svg PUBLIC "-//W3C//DTD SVG 20010904//EN"
 "http://www.w3.org/TR/2001/REC-SVG-20010904/DTD/svg10.dtd">
<svg version="1.0" xmlns="http://www.w3.org/2000/svg"
 width="430.000000pt" height="425.000000pt" viewBox="0 0 430.000000 425.000000"
 preserveAspectRatio="xMidYMid meet">

<g transform="translate(0.000000,425.000000) scale(0.100000,-0.100000)"
fill="#000000" stroke="none">
<path d="M0 2125 l0 -2125 2150 0 2150 0 0 2125 0 2125 -2150 0 -2150 0 0
-2125z m2408 1896 l42 -1 0 -41 0 -42 -80 6 c-77 5 -80 4 -86 -18 -3 -13 -4
-34 -2 -46 3 -22 8 -24 71 -27 l67 -3 0 -41 0 -40 -72 3 -73 4 0 -45 0 -45 55
-3 c92 -4 100 -8 100 -47 0 -18 -3 -36 -7 -38 -5 -2 -66 0 -136 6 l-128 10 6
56 c3 31 10 123 15 205 6 81 12 151 14 155 3 3 42 3 88 0 46 -4 102 -8 126 -8z
m-389 -16 c39 -19 61 -62 61 -115 0 -47 -13 -78 -43 -102 -21 -16 -20 -17 35
-89 31 -40 54 -77 52 -81 -3 -4 -29 -8 -57 -8 l-53 0 -49 67 c-70 94 -79 94
-71 1 l7 -75 -47 -7 c-26 -3 -49 -4 -51 -2 -5 5 -33 334 -33 388 l0 37 63 4
c90 6 152 0 186 -18z m-454 -46 c51 -14 116 -81 133 -136 16 -55 15 -148 -2
-182 -21 -39 -77 -87 -121 -101 -21 -7 -64 -10 -96 -8 -71 5 -121 40 -155 109
-67 131 -21 266 106 309 64 23 81 24 135 9z m1282 -25 l32 -13 3 -140 3 -141
88 105 c49 58 95 105 103 105 19 0 94 -31 94 -39 -1 -17 -99 -393 -104 -398
-3 -4 -24 0 -46 7 -49 16 -49 20 -10 160 15 58 27 106 26 107 -2 2 -41 -42
-87 -97 -46 -55 -92 -100 -101 -100 -46 0 -48 5 -48 143 0 72 -4 127 -8 122
-5 -6 -28 -54 -52 -108 -25 -54 -47 -100 -51 -103 -6 -3 -78 22 -87 31 -2 2
36 89 84 194 96 210 83 197 161 165z m-1748 -299 c41 -80 76 -145 78 -145 2 0
30 14 63 30 33 17 64 30 70 30 11 0 47 -67 39 -74 -10 -9 -210 -106 -219 -106
-9 0 -190 350 -190 368 0 9 58 40 75 41 6 0 44 -65 84 -144z m2429 -43 c120
-96 94 -273 -53 -363 -33 -21 -126 -26 -169 -9 -79 30 -144 134 -132 211 15
91 100 192 173 204 21 4 43 8 48 9 21 6 100 -24 133 -52z m-2654 34 c65 -27
103 -106 83 -171 -6 -20 -30 -54 -54 -76 l-43 -40 40 -52 40 -52 -32 -27 c-18
-16 -37 -28 -44 -28 -6 0 -39 37 -74 83 -158 205 -180 235 -180 244 0 4 31 32
70 61 93 72 133 84 194 58z m-333 -334 l36 -107 122 -14 c132 -16 132 -16 88
-71 -30 -39 -35 -40 -108 -25 -35 8 -65 12 -67 11 -1 -2 9 -33 23 -71 l26 -67
-37 -45 c-20 -24 -38 -42 -40 -40 -3 2 -22 55 -43 118 l-38 114 -114 18 c-62
10 -115 20 -118 23 -2 2 9 21 26 42 32 39 36 40 120 28 l52 -8 -25 62 c-27 67
-27 65 25 122 13 15 27 25 30 22 3 -3 22 -53 42 -112z m3306 -12 c65 -80 81
-124 64 -180 -18 -59 -70 -95 -137 -94 l-53 0 -28 -90 -28 -89 -38 47 -39 46
26 75 c41 119 36 127 -42 65 -27 -22 -54 -40 -58 -39 -5 0 -20 14 -33 31 -17
21 -22 35 -15 45 18 28 299 252 314 250 8 -1 38 -31 67 -67z m-1685 14 c66
-42 123 -106 159 -180 32 -65 34 -74 34 -176 0 -103 1 -108 20 -102 11 4 28
13 38 22 23 20 26 15 48 -65 13 -47 19 -101 19 -178 0 -124 16 -169 67 -181
22 -6 31 -2 55 26 16 19 32 56 38 87 11 50 30 82 30 49 0 -9 6 -16 14 -16 25
0 39 31 46 98 l6 67 51 -51 c78 -79 97 -137 98 -301 0 -73 4 -133 9 -133 5 0
23 15 41 34 l32 35 13 -57 c7 -31 14 -124 17 -207 4 -126 1 -161 -15 -220 -10
-38 -22 -77 -26 -86 -6 -14 8 -17 111 -23 64 -4 123 -12 131 -18 27 -23 44
-72 49 -142 5 -61 3 -74 -15 -96 l-20 -24 -158 22 c-86 12 -159 20 -161 18 -3
-2 53 -42 124 -88 70 -47 140 -97 155 -113 63 -64 40 -168 -49 -214 -12 -6
-46 -11 -75 -11 -63 0 -49 -7 -394 213 -144 92 -265 167 -268 167 -3 0 -6 -85
-6 -188 0 -175 -2 -191 -22 -231 -66 -128 -254 -150 -352 -41 -56 62 -59 89
-31 284 14 93 23 172 20 174 -3 3 -13 -2 -22 -10 -31 -27 -516 -330 -552 -345
-69 -29 -168 5 -203 70 -17 33 -14 99 7 131 10 15 65 59 123 98 57 38 102 71
100 73 -1 2 -79 -12 -173 -31 -142 -29 -176 -33 -207 -24 -53 15 -78 55 -85
138 l-6 69 37 29 c34 27 47 30 251 55 119 15 218 29 220 31 2 2 -7 31 -20 64
-64 157 -34 319 89 492 54 76 74 151 57 217 -14 56 -14 54 9 48 19 -5 20 0 20
79 0 89 20 177 45 198 13 11 15 7 15 -26 0 -70 41 -119 59 -72 8 21 13 16 45
-54 20 -42 36 -84 36 -92 0 -24 13 -19 47 17 64 65 86 165 65 282 -4 22 -5 54
-2 70 l7 30 13 -27 c31 -65 100 -5 135 117 17 58 17 184 0 228 -10 24 8 22 57
-9z m-1932 -279 c17 -9 30 -20 30 -26 0 -5 -13 -36 -30 -69 -17 -33 -30 -63
-30 -67 0 -10 68 -48 74 -42 2 2 13 22 24 44 11 22 27 48 35 59 14 19 20 18
76 -20 2 -2 -11 -27 -28 -57 -17 -30 -31 -59 -31 -65 0 -8 58 -42 74 -42 3 0
22 31 41 70 l35 70 35 -17 c19 -9 35 -20 35 -23 0 -4 -25 -53 -55 -109 -30
-57 -55 -107 -55 -113 0 -5 -8 -7 -17 -4 -18 6 -324 166 -353 185 -13 8 -6 27
45 125 33 64 61 116 63 116 2 0 16 -7 32 -15z m3882 -133 l60 -112 -36 -17
c-20 -9 -37 -15 -39 -12 -2 2 -21 34 -41 71 l-37 66 -38 -21 -39 -21 30 -59
c16 -33 27 -65 24 -72 -2 -7 -18 -17 -34 -23 -29 -10 -30 -9 -53 39 -31 68
-40 74 -81 53 -18 -9 -35 -18 -36 -20 -2 -1 13 -34 33 -74 21 -39 36 -72 34
-74 -2 -2 -18 -11 -35 -19 l-32 -16 -58 111 c-33 61 -60 114 -62 118 -1 4 37
27 85 53 49 25 131 68 183 96 52 28 99 49 104 48 4 -2 35 -53 68 -115z m-663
-2327 c7 -7 6 -25 -1 -53 -10 -41 -12 -43 -37 -35 -52 16 -124 9 -157 -14 -36
-26 -64 -78 -71 -133 -10 -75 68 -116 160 -84 42 15 43 12 27 -48 -9 -33 -15
-37 -61 -48 -95 -23 -185 10 -222 80 -22 43 -18 118 12 184 25 58 99 130 154
150 46 17 179 18 196 1z m-2570 -2 c21 -5 22 -10 17 -46 -9 -55 -13 -59 -46
-42 -35 18 -91 20 -108 3 -23 -23 -12 -46 38 -77 63 -39 84 -71 76 -113 -17
-90 -89 -142 -196 -142 -36 0 -75 5 -86 12 -20 10 -21 16 -12 54 5 23 11 44
13 46 2 2 17 -4 34 -12 46 -24 106 -21 125 6 9 12 16 26 16 30 0 4 -25 22 -56
39 -30 17 -62 42 -71 56 -32 49 6 136 75 173 38 19 132 27 181 13z m387 -10
c-17 -64 -15 -62 -68 -65 l-52 -3 -41 -165 -41 -165 -53 -3 c-47 -3 -52 -1
-47 15 3 11 23 87 44 171 l38 152 -48 0 c-51 0 -51 0 -42 49 l7 31 154 0 c142
0 154 -1 149 -17z m304 0 c0 -10 7 -94 15 -188 21 -239 25 -215 -40 -215 l-55
0 0 45 0 45 -69 0 -70 0 -23 -42 c-22 -41 -25 -43 -76 -46 -28 -2 -52 -1 -52
1 0 3 35 65 78 138 43 74 97 167 121 207 l42 72 64 0 c55 0 65 -3 65 -17z
m470 3 c0 -8 -4 -26 -10 -40 -8 -23 -15 -26 -59 -26 l-49 0 -42 -170 -42 -170
-49 0 c-28 0 -49 5 -49 11 0 9 64 269 76 312 5 15 -2 17 -46 17 l-52 0 7 33
c4 17 9 35 12 40 2 4 71 7 154 7 123 0 149 -3 149 -14z m115 -193 l-52 -208
-53 -3 c-40 -2 -51 0 -48 10 3 7 27 102 54 211 l48 197 52 0 52 0 -53 -207z
m354 200 c21 -5 22 -10 17 -46 -9 -55 -13 -59 -46 -42 -35 18 -91 20 -108 3
-21 -21 -13 -48 20 -66 91 -49 113 -99 76 -172 -39 -77 -137 -114 -238 -90
-27 7 -50 14 -50 17 0 16 24 93 29 93 3 -1 17 -7 31 -15 37 -21 103 -19 124 4
23 25 13 41 -47 76 -28 17 -58 42 -66 56 -29 52 11 138 81 172 33 17 132 22
177 10z m387 -10 c-17 -64 -15 -62 -68 -65 l-52 -3 -41 -165 -41 -165 -53 -3
c-47 -3 -52 -1 -47 15 12 42 76 303 76 312 0 6 -20 11 -45 11 -48 0 -52 7 -39
58 6 22 9 22 161 22 142 0 154 -1 149 -17z m164 12 c0 -3 -23 -98 -51 -210
l-51 -205 -49 0 c-27 0 -49 4 -49 8 0 5 20 87 44 183 24 96 46 186 50 202 6
25 10 27 56 27 28 0 50 -2 50 -5z m689 -2 c21 -5 22 -10 17 -46 -9 -55 -12
-58 -51 -41 -19 8 -47 14 -63 14 -57 0 -71 -51 -21 -78 92 -50 113 -93 80
-166 -31 -72 -119 -114 -212 -101 -70 10 -81 21 -68 70 6 22 12 41 14 43 2 2
17 -4 34 -12 45 -24 106 -21 125 5 20 29 13 40 -40 68 -65 35 -87 67 -81 115
7 52 33 86 87 114 44 22 126 29 179 15z"/>
<path d="M1892 3943 c-16 -3 -22 -9 -18 -20 3 -8 6 -32 6 -54 0 -38 1 -39 34
-39 19 0 42 7 50 16 24 23 20 70 -6 88 -23 16 -25 17 -66 9z"/>
<path d="M1429 3841 c-22 -22 -29 -39 -29 -68 0 -48 31 -115 61 -137 62 -43
149 9 149 90 0 33 -26 93 -52 121 -32 35 -91 31 -129 -6z"/>
<path d="M3358 3526 c-81 -54 -102 -143 -48 -198 27 -26 36 -30 67 -25 63 11
123 84 123 150 0 45 -26 76 -73 86 -31 7 -43 5 -69 -13z"/>
<path d="M762 3529 l-32 -21 34 -46 c19 -26 39 -48 45 -50 6 -2 22 8 37 23 30
30 27 68 -8 98 -26 22 -36 21 -76 -4z"/>
<path d="M3738 3196 c-21 -18 -38 -37 -38 -43 0 -16 45 -53 64 -53 57 0 78 66
34 107 l-23 21 -37 -32z"/>
<path d="M2201 2968 c-3 -69 -41 -137 -117 -211 l-69 -67 3 -112 c1 -61 -2
-136 -9 -167 -13 -62 -48 -140 -74 -161 -26 -22 -45 12 -45 81 0 43 -7 70 -31
116 -29 57 -110 153 -128 153 -5 0 -3 -18 2 -39 10 -37 0 -117 -13 -110 -3 1
-15 -3 -27 -9 -14 -8 -24 -26 -28 -54 -11 -64 -52 -148 -91 -188 -50 -53 -78
-137 -79 -240 0 -62 5 -94 18 -117 24 -45 76 -91 117 -104 19 -7 60 -24 91
-40 70 -35 220 -59 365 -59 98 0 106 -2 151 -30 26 -16 51 -30 56 -30 4 0 28
9 53 21 39 17 61 20 162 17 l117 -3 60 42 c33 23 78 46 101 52 54 14 106 50
123 85 17 35 4 127 -35 253 -19 60 -30 80 -40 76 -12 -4 -13 5 -7 53 14 106 9
165 -20 221 -15 29 -27 58 -27 65 0 7 -5 31 -11 53 l-11 40 -18 -47 c-10 -26
-27 -59 -39 -74 -11 -15 -21 -35 -21 -46 0 -37 -30 -77 -91 -117 -66 -44 -107
-51 -131 -23 -9 9 -26 51 -38 92 -19 64 -21 87 -15 160 9 111 7 235 -6 268
-10 26 -11 27 -25 7 -56 -76 -79 -85 -69 -25 6 34 0 54 -40 142 -26 57 -50
106 -54 111 -4 4 -8 -12 -10 -35z m25 -535 c12 -4 25 3 41 21 15 18 23 22 23
12 0 -8 6 -35 14 -58 8 -24 39 -122 70 -218 65 -201 84 -240 120 -240 28 0 34
7 106 123 27 44 51 81 53 83 2 3 14 -27 27 -66 23 -73 37 -92 50 -70 13 21 31
-25 37 -91 5 -50 2 -64 -17 -92 -34 -50 -101 -88 -168 -97 -31 -4 -74 -15 -96
-24 -58 -26 -178 -23 -241 6 -39 18 -69 23 -136 23 -84 0 -88 2 -145 40 -57
39 -62 40 -146 42 -100 1 -142 13 -180 48 -34 31 -44 81 -29 152 19 98 52 172
99 224 l45 50 29 -51 c20 -35 40 -56 62 -65 18 -8 52 -35 75 -60 l43 -47 37
29 c22 18 51 60 76 109 39 77 40 81 40 184 0 88 3 111 19 135 l19 30 28 -63
c16 -34 36 -65 45 -69z"/>
<path d="M1437 391 c-20 -38 -37 -71 -37 -75 0 -3 21 -6 46 -6 l45 0 -7 73
c-3 39 -7 73 -8 74 -1 1 -19 -28 -39 -66z"/>
</g>
</svg>
