<?xml version="1.0" standalone="no"?>
<!DOCTYPE svg PUBLIC "-//W3C//DTD SVG 20010904//EN"
 "http://www.w3.org/TR/2001/REC-SVG-20010904/DTD/svg10.dtd">
<svg version="1.0" xmlns="http://www.w3.org/2000/svg"
 width="1024.000000pt" height="1024.000000pt" viewBox="0 0 1024.000000 1024.000000"
 preserveAspectRatio="xMidYMid meet">

<g transform="translate(0.000000,1024.000000) scale(0.100000,-0.100000)"
fill="#000000" stroke="none">
<path d="M4213 9533 c-12 -2 -34 -18 -48 -34 -50 -60 -21 -139 61 -168 55 -19
74 -39 74 -77 0 -44 -35 -69 -82 -59 -43 10 -58 22 -58 51 0 15 -6 24 -16 24
-12 0 -14 -10 -12 -47 l3 -48 55 -7 c98 -13 160 27 160 101 0 52 -22 77 -96
111 l-65 29 3 43 c3 36 7 44 31 52 41 15 81 -3 85 -37 5 -44 32 -34 32 12 0
22 -3 42 -7 44 -13 8 -97 15 -120 10z"/>
<path d="M5293 9518 c-31 -12 -53 -27 -53 -35 0 -10 6 -14 18 -10 50 14 47 20
50 -122 3 -143 -2 -161 -44 -161 -13 0 -24 -4 -24 -10 0 -6 37 -10 90 -10 50
0 90 4 90 9 0 5 -12 11 -27 13 l-28 3 -3 173 c-1 94 -6 171 -10 171 -4 -1 -31
-10 -59 -21z"/>
<path d="M5583 9525 c-38 -16 -63 -60 -63 -110 0 -74 54 -112 140 -101 28 4
50 3 50 0 0 -4 -9 -27 -20 -50 -25 -51 -62 -70 -105 -54 -31 12 -30 12 -39
-16 -6 -18 -2 -22 29 -27 99 -16 184 81 185 211 0 83 -20 129 -64 147 -43 18
-71 18 -113 0z m87 -25 c37 -20 56 -142 24 -154 -66 -25 -124 14 -124 85 0 63
49 96 100 69z"/>
<path d="M5943 9525 c-56 -24 -80 -104 -49 -164 24 -46 91 -64 150 -41 31 11
32 5 10 -50 -20 -50 -60 -74 -108 -65 -28 6 -34 3 -38 -13 -5 -17 1 -21 28
-26 63 -12 136 39 170 119 21 51 21 153 0 194 -29 56 -97 75 -163 46z m107
-47 c25 -41 28 -123 4 -132 -66 -25 -124 14 -124 85 0 78 82 110 120 47z"/>
<path d="M6262 9528 c-27 -9 -32 -15 -28 -32 3 -12 6 -27 6 -33 0 -21 14 -15
25 10 8 17 20 23 51 25 54 4 74 -16 74 -73 0 -35 -8 -53 -44 -101 -24 -33 -62
-77 -85 -99 -22 -21 -41 -43 -41 -47 0 -4 54 -8 120 -8 l120 0 0 40 c0 42 -14
54 -25 20 -6 -17 -15 -20 -72 -20 l-66 0 55 58 c69 73 88 108 88 170 0 39 -5
53 -25 72 -29 27 -101 35 -153 18z"/>
<path d="M3760 9522 c0 -4 9 -13 20 -20 18 -11 20 -23 20 -146 0 -142 -4 -166
-26 -166 -8 0 -14 -4 -14 -10 0 -6 48 -10 124 -10 l124 0 6 31 c9 45 8 49 -9
49 -8 0 -15 -8 -15 -19 0 -14 -10 -20 -46 -25 -97 -13 -94 -15 -94 64 l0 70
45 0 c38 0 45 -3 45 -20 0 -11 6 -20 13 -20 10 0 14 16 16 49 1 51 -16 80 -26
42 -4 -17 -13 -21 -49 -21 l-44 0 0 65 0 66 58 -3 c50 -3 57 -6 60 -25 5 -37
20 -26 24 17 l4 40 -118 0 c-65 0 -118 -3 -118 -8z"/>
<path d="M4470 9490 c0 -29 4 -40 15 -40 8 0 15 9 15 19 0 15 10 21 40 26 21
4 43 4 47 2 4 -3 7 -73 5 -156 -2 -124 -6 -151 -18 -151 -7 0 -14 -4 -14 -10
0 -6 27 -10 60 -10 59 0 80 12 40 23 -20 5 -20 12 -18 154 3 147 3 148 27 151
39 6 71 -7 71 -28 0 -11 7 -20 15 -20 11 0 15 11 15 40 l0 40 -150 0 -150 0 0
-40z"/>
<path d="M4833 9223 c-17 -6 -16 -38 1 -52 11 -9 20 -10 35 -1 44 23 10 72
-36 53z"/>
<path d="M4945 8809 c-484 -23 -992 -193 -1342 -451 l-53 -39 121 -181 c104
-155 119 -182 105 -190 -29 -17 -209 -162 -275 -224 -196 -180 -403 -474 -511
-723 -264 -609 -251 -1313 35 -1909 114 -237 255 -433 455 -633 l126 -126 -82
-119 c-46 -65 -83 -122 -84 -126 -1 -21 231 -168 389 -247 735 -370 1688 -390
2441 -51 136 62 300 152 402 222 48 33 90 64 93 68 2 4 -34 62 -80 129 l-84
121 127 128 c145 144 228 246 324 399 162 258 265 532 324 858 21 118 30 457
15 598 -42 412 -193 797 -445 1135 -100 134 -311 345 -437 437 l-95 70 119
179 c98 148 117 181 105 191 -37 35 -227 153 -338 209 -309 156 -680 256
-1008 271 -64 3 -135 7 -157 8 -22 2 -107 0 -190 -4z m-920 -1206 c87 -131
324 -484 526 -786 203 -301 369 -552 369 -558 0 -10 -290 -435 -1029 -1508
-108 -157 -199 -290 -203 -295 -10 -15 -179 154 -281 279 -338 417 -492 881
-474 1425 10 320 70 564 207 845 113 233 258 433 441 610 96 93 260 225 278
225 4 0 79 -107 166 -237z m2450 142 c378 -295 658 -755 761 -1256 27 -128 28
-147 28 -409 0 -271 0 -277 -32 -426 -73 -350 -195 -619 -400 -884 -66 -85
-288 -320 -303 -320 -4 0 -56 71 -115 158 -59 86 -336 489 -616 895 -280 406
-511 743 -513 750 -3 7 103 172 234 367 132 195 344 510 471 700 127 190 258
385 291 433 l61 88 26 -17 c15 -9 63 -45 107 -79z m-1041 -125 c54 -12 142
-35 195 -52 100 -32 291 -116 291 -128 0 -4 -169 -258 -375 -565 -206 -307
-375 -565 -375 -573 0 -8 15 -53 34 -101 19 -47 59 -151 89 -231 30 -80 145
-381 255 -670 110 -289 221 -582 247 -652 l48 -126 48 0 c167 -2 276 -176 205
-327 -28 -60 -56 -87 -116 -114 -91 -42 -193 -20 -261 56 -47 52 -63 101 -56
173 7 78 46 146 102 177 20 11 24 -2 -95 308 -90 236 -122 320 -185 485 -37
96 -77 202 -90 235 -53 134 -238 622 -245 645 -5 14 -9 -374 -9 -862 l-1 -888
23 0 c42 0 114 -57 141 -112 79 -159 -29 -338 -204 -338 -70 0 -124 25 -172
78 -106 117 -62 301 87 363 l55 23 0 885 c0 486 -2 882 -4 880 -6 -5 -40 -96
-362 -951 l-273 -728 49 -49 c112 -112 90 -287 -48 -368 -39 -23 -59 -28 -112
-28 -137 1 -233 98 -232 236 0 127 107 229 238 229 l39 0 290 773 c159 424
310 825 336 889 l47 118 -380 566 c-209 311 -378 567 -376 570 14 13 223 97
305 123 217 66 329 81 568 76 132 -3 206 -10 279 -25z"/>
<path d="M3516 3156 c-3 -16 -6 -57 -6 -92 0 -64 0 -64 29 -64 26 0 29 4 35
45 5 29 14 49 26 55 10 5 57 10 105 10 l86 0 -3 -311 -3 -311 -24 -19 c-13
-10 -38 -19 -57 -19 -30 0 -34 -3 -34 -25 l0 -25 175 0 175 0 0 24 c0 20 -6
24 -46 29 -26 2 -50 11 -55 18 -5 8 -9 155 -9 327 l0 312 89 0 c100 0 110 -5
118 -70 5 -36 8 -40 34 -40 l29 0 0 93 0 92 -329 0 -329 0 -6 -29z"/>
<path d="M4634 3176 c-94 -30 -187 -118 -238 -225 -29 -62 -31 -73 -31 -181 1
-104 3 -121 29 -176 58 -127 167 -195 322 -202 200 -9 341 79 404 254 19 53
21 78 18 170 -3 94 -7 117 -30 164 -41 84 -90 135 -165 172 -60 29 -77 33
-167 35 -64 2 -116 -2 -142 -11z m211 -75 c152 -69 214 -344 118 -522 -69
-129 -255 -160 -364 -61 -54 48 -87 116 -99 204 -25 177 30 326 141 381 47 23
152 22 204 -2z"/>
<path d="M6292 3175 c-60 -19 -106 -57 -132 -111 -19 -38 -22 -57 -17 -110 8
-107 57 -157 218 -223 42 -18 86 -42 98 -55 51 -54 45 -158 -12 -200 -40 -30
-128 -27 -193 5 -49 24 -49 24 -57 87 -8 60 -10 62 -38 62 l-29 0 0 -104 c0
-120 -13 -108 140 -127 116 -15 169 -8 237 31 73 42 106 99 106 188 1 113 -43
165 -192 227 -110 46 -147 75 -162 125 -14 47 -1 106 31 135 40 36 177 27 213
-14 8 -9 18 -35 22 -58 6 -37 10 -43 31 -43 27 0 30 9 38 111 l5 66 -77 11
c-98 15 -175 14 -230 -3z"/>
<path d="M5347 3156 c4 -21 11 -26 34 -26 58 0 60 -14 57 -350 -3 -285 -4
-302 -22 -316 -11 -8 -30 -14 -43 -14 -18 0 -23 -6 -23 -25 l0 -25 160 0 160
0 0 24 c0 20 -6 24 -40 29 -67 9 -70 15 -70 142 l0 112 88 6 c115 8 176 30
227 81 105 106 82 296 -44 358 -43 21 -61 23 -267 26 l-222 4 5 -26z m405 -59
c40 -28 62 -94 55 -169 -9 -105 -57 -148 -171 -156 l-76 -5 0 175 c0 96 2 177
4 179 2 2 40 2 83 -1 52 -4 87 -11 105 -23z"/>
<path d="M3833 2089 c-18 -5 -47 -24 -66 -42 -87 -81 -69 -233 33 -284 56 -29
105 -29 160 0 84 44 114 155 68 247 -13 25 -37 52 -53 62 -39 22 -101 30 -142
17z m87 -44 c42 -22 60 -63 60 -138 0 -54 -4 -68 -24 -90 -33 -36 -70 -43
-113 -23 -46 22 -66 72 -61 150 4 51 9 63 36 87 36 33 60 36 102 14z"/>
<path d="M2450 2045 c0 -49 15 -59 30 -20 8 20 16 25 45 25 l35 0 0 -134 c0
-131 -1 -135 -22 -138 -12 -2 -23 -9 -26 -15 -3 -10 17 -13 77 -13 64 0 81 3
81 14 0 8 -10 16 -22 18 -22 3 -23 7 -26 136 l-3 133 43 -3 c36 -2 44 -7 46
-25 2 -13 10 -23 18 -23 10 0 14 13 14 45 l0 45 -145 0 -145 0 0 -45z"/>
<path d="M2790 2076 c0 -8 10 -16 23 -18 21 -3 22 -7 25 -136 2 -127 2 -134
-18 -139 -11 -3 -20 -12 -20 -19 0 -11 18 -14 75 -14 60 0 75 3 75 15 0 9 -9
15 -25 15 -24 0 -25 2 -25 65 l0 65 85 0 86 0 -3 -62 c-3 -57 -5 -63 -25 -66
-13 -2 -23 -10 -23 -18 0 -11 17 -14 75 -14 60 0 75 3 75 15 0 8 -9 15 -20 15
-19 0 -20 7 -20 136 0 127 1 136 20 141 11 3 20 12 20 19 0 11 -18 14 -75 14
-58 0 -75 -3 -75 -14 0 -8 10 -16 23 -18 20 -3 22 -9 22 -58 l0 -55 -82 -3
-83 -3 0 56 c0 50 2 56 26 65 43 17 16 30 -62 30 -57 0 -74 -3 -74 -14z"/>
<path d="M3230 2075 c0 -8 9 -15 20 -15 22 0 21 7 21 -140 0 -142 0 -140 -16
-140 -8 0 -15 -7 -15 -15 0 -13 21 -15 130 -15 l130 0 0 35 c0 19 0 38 1 42 2
20 -22 11 -31 -11 -9 -24 -14 -26 -75 -26 l-66 0 3 58 3 57 63 3 c56 3 62 5
62 25 0 21 -4 22 -66 19 l-65 -4 3 49 3 48 58 3 c34 2 57 -1 58 -8 1 -5 2 -16
3 -22 0 -7 9 -14 19 -16 14 -3 17 4 17 42 l0 46 -130 0 c-109 0 -130 -2 -130
-15z"/>
<path d="M4110 2075 c0 -8 9 -15 20 -15 19 0 20 -7 20 -140 0 -133 -1 -140
-20 -140 -11 0 -20 -7 -20 -15 0 -12 15 -15 75 -15 58 0 75 3 75 14 0 8 -10
16 -22 18 -19 2 -24 10 -26 43 l-3 40 63 12 c78 15 108 44 108 104 0 84 -41
109 -180 109 -73 0 -90 -3 -90 -15z m197 -42 c18 -23 16 -74 -3 -101 -11 -16
-25 -22 -55 -22 l-39 0 0 68 c0 38 3 72 8 76 12 13 76 -2 89 -21z"/>
<path d="M4440 2076 c0 -7 9 -16 20 -19 19 -5 20 -14 20 -137 0 -123 -1 -132
-20 -137 -11 -3 -20 -12 -20 -19 0 -11 27 -14 135 -14 l135 0 0 45 c0 50 -23
64 -34 20 -6 -23 -10 -25 -71 -25 l-65 0 0 60 0 60 65 0 c58 0 65 2 65 20 0
18 -7 20 -65 20 l-65 0 0 50 0 51 58 -3 c50 -3 57 -6 60 -25 4 -25 32 -32 32
-9 0 7 3 28 6 45 l7 31 -132 0 c-105 0 -131 -3 -131 -14z"/>
<path d="M4760 2076 c0 -7 8 -16 18 -18 22 -6 32 -51 32 -149 0 -94 -8 -129
-31 -129 -11 0 -19 -7 -19 -15 0 -12 15 -15 71 -15 52 0 70 3 67 13 -3 6 -14
13 -26 15 -20 3 -22 9 -23 80 0 42 -2 92 -4 110 -2 17 0 32 3 31 4 0 51 -58
106 -130 133 -175 135 -174 138 29 3 154 3 157 26 160 12 2 22 10 22 18 0 11
-16 14 -70 14 -56 0 -70 -3 -70 -15 0 -8 9 -15 20 -15 28 0 31 -13 28 -121
l-3 -94 -90 122 -90 123 -52 0 c-39 0 -53 -4 -53 -14z"/>
<path d="M5410 2076 c0 -7 10 -16 21 -19 21 -6 21 -9 14 -134 -4 -70 -9 -131
-12 -135 -2 -5 -13 -8 -24 -8 -10 0 -19 -7 -19 -15 0 -12 14 -15 65 -15 51 0
65 3 65 15 0 8 -9 15 -20 15 -18 0 -20 6 -19 73 0 39 4 91 7 114 l7 42 53
-134 c30 -74 59 -135 65 -135 7 0 34 55 61 123 27 67 53 126 57 132 5 5 9 -15
9 -45 0 -30 3 -79 7 -108 5 -49 4 -54 -16 -59 -11 -3 -21 -12 -21 -19 0 -11
18 -14 76 -14 56 0 75 3 72 13 -3 6 -14 13 -25 15 -23 3 -27 23 -39 180 -7 90
-6 93 15 99 11 3 21 12 21 20 0 11 -12 13 -51 11 l-50 -3 -49 -114 c-28 -63
-51 -116 -53 -118 -2 -2 -26 51 -52 117 l-49 120 -58 0 c-43 0 -58 -4 -58 -14z"/>
<path d="M5910 2076 c0 -8 10 -16 23 -18 21 -3 22 -7 25 -118 3 -134 -1 -156
-28 -163 -11 -3 -20 -10 -20 -16 0 -7 27 -11 75 -11 60 0 75 3 75 15 0 8 -9
15 -20 15 -19 0 -20 7 -20 136 0 127 1 136 20 141 11 3 20 12 20 19 0 11 -18
14 -75 14 -58 0 -75 -3 -75 -14z"/>
<path d="M6120 2076 c0 -7 9 -16 20 -19 19 -5 20 -14 20 -137 0 -123 -1 -132
-20 -137 -11 -3 -20 -12 -20 -19 0 -11 17 -14 71 -14 52 0 70 3 67 13 -3 6
-15 13 -27 15 -30 5 -32 13 -29 131 l3 102 100 -135 c76 -103 105 -135 123
-136 22 0 22 1 22 156 0 147 1 156 20 161 11 3 20 12 20 19 0 11 -16 14 -65
14 -51 0 -65 -3 -65 -15 0 -8 9 -15 20 -15 28 0 31 -13 28 -121 l-3 -94 -90
122 -90 121 -52 1 c-39 1 -53 -3 -53 -13z"/>
<path d="M6550 2076 c0 -7 9 -16 20 -19 19 -5 20 -14 20 -137 0 -123 -1 -132
-20 -137 -11 -3 -20 -12 -20 -20 0 -12 20 -14 119 -11 102 3 124 6 147 24 43
31 65 67 71 112 13 95 -31 171 -111 191 -67 17 -226 15 -226 -3z m232 -55 c32
-28 33 -32 33 -106 0 -71 -2 -78 -27 -100 -28 -24 -107 -43 -127 -30 -7 4 -11
54 -11 136 l0 129 50 0 c41 0 56 -5 82 -29z"/>
<path d="M6950 2076 c0 -7 9 -16 20 -19 19 -5 20 -14 20 -136 0 -120 -2 -131
-20 -141 -43 -23 -17 -30 115 -30 l135 0 0 45 c0 50 -23 64 -34 20 -6 -23 -10
-25 -71 -25 l-65 0 0 60 0 60 65 0 c58 0 65 2 65 20 0 18 -7 20 -65 20 l-65 0
0 50 0 50 60 0 c58 0 60 -1 60 -26 0 -19 5 -25 18 -22 12 2 18 15 20 46 l3 42
-130 0 c-105 0 -131 -3 -131 -14z"/>
<path d="M7280 2077 c0 -8 9 -17 20 -20 19 -5 20 -14 20 -141 0 -129 -1 -136
-20 -136 -12 0 -20 -7 -20 -16 0 -14 16 -15 119 -12 102 3 124 6 147 24 56 41
69 70 69 147 0 126 -45 159 -222 165 -95 4 -113 2 -113 -11z m236 -61 c32 -32
34 -38 34 -100 0 -58 -3 -69 -27 -96 -23 -26 -38 -32 -85 -37 l-58 -6 0 137 0
136 51 0 c45 0 55 -4 85 -34z"/>
<path d="M5190 1905 c0 -24 2 -25 70 -25 68 0 70 1 70 25 0 24 -2 25 -70 25
-68 0 -70 -1 -70 -25z"/>
<path d="M3864 1510 c-55 -22 -73 -109 -31 -147 12 -12 46 -33 75 -47 51 -26
53 -28 50 -64 -3 -41 -21 -49 -84 -37 -30 5 -34 10 -34 35 0 23 -5 30 -20 30
-17 0 -20 -7 -20 -49 l0 -49 65 -7 c103 -11 155 21 155 95 0 48 -23 78 -79
102 -83 35 -104 73 -56 104 35 23 77 7 89 -34 14 -51 36 -41 36 17 0 46 -1 49
-31 55 -42 8 -89 7 -115 -4z"/>
<path d="M4420 1509 c-65 -26 -102 -88 -102 -170 0 -96 49 -157 134 -166 31
-4 57 0 82 12 45 22 74 61 58 77 -9 9 -18 5 -36 -15 -45 -48 -111 -46 -150 6
-27 37 -34 133 -12 175 20 39 44 52 93 52 42 0 63 -14 63 -42 0 -22 26 -24 34
-2 14 36 6 64 -20 74 -32 13 -111 12 -144 -1z"/>
<path d="M4740 1513 c-38 -14 -60 -47 -60 -88 0 -49 19 -70 98 -109 31 -16 52
-33 53 -44 4 -49 -9 -62 -58 -62 -49 0 -63 9 -63 41 0 22 -5 29 -20 29 -17 0
-20 -7 -20 -49 l0 -49 65 -7 c103 -11 155 21 155 95 0 48 -23 78 -79 102 -81
35 -101 67 -61 103 31 28 82 10 95 -33 14 -50 35 -41 35 17 0 46 -1 49 -31 55
-37 7 -88 7 -109 -1z"/>
<path d="M5204 1510 c-28 -11 -64 -58 -64 -82 0 -38 29 -76 77 -99 62 -29 83
-47 83 -74 0 -30 -19 -45 -56 -45 -50 0 -64 9 -64 41 0 22 -5 29 -20 29 -17 0
-20 -7 -20 -49 l0 -50 54 -6 c73 -9 111 1 142 38 21 25 25 38 21 70 -6 47 -28
73 -76 88 -60 19 -81 36 -81 69 0 40 29 55 75 40 26 -8 35 -18 37 -38 5 -48
33 -33 36 19 l3 46 -38 7 c-50 8 -83 7 -109 -4z"/>
<path d="M5540 1509 c-33 -14 -68 -47 -87 -83 -20 -39 -19 -124 2 -169 52
-111 220 -116 286 -10 19 30 24 52 24 105 0 72 -14 102 -68 142 -30 22 -119
31 -157 15z m122 -58 c29 -26 33 -35 36 -97 4 -85 -18 -129 -70 -139 -51 -10
-86 9 -108 57 -63 138 41 269 142 179z"/>
<path d="M5950 1513 c-95 -36 -137 -158 -90 -261 15 -33 29 -47 62 -62 75 -34
134 -23 188 35 20 21 22 28 10 35 -9 6 -23 1 -43 -16 -76 -64 -151 -30 -171
78 -15 85 32 158 103 158 43 0 56 -8 65 -37 13 -41 36 -27 36 21 0 41 -2 44
-31 50 -38 7 -108 7 -129 -1z"/>
<path d="M2690 1499 c0 -6 9 -13 20 -16 19 -5 20 -14 20 -133 0 -128 0 -128
-27 -149 l-28 -20 78 -1 c73 0 100 11 57 25 -16 5 -20 15 -20 56 l0 49 34 0
c75 0 126 41 126 101 0 51 -8 67 -41 84 -34 18 -219 21 -219 4z m184 -35 c20
-20 20 -73 0 -102 -11 -15 -25 -22 -50 -22 l-34 0 0 70 0 70 34 0 c19 0 42 -7
50 -16z"/>
<path d="M3010 1502 c0 -5 10 -13 23 -19 21 -10 22 -15 21 -134 -2 -150 0
-136 -24 -144 -43 -14 -16 -25 61 -25 60 0 80 3 77 13 -3 6 -14 13 -26 15 -12
2 -22 9 -23 15 0 7 -1 35 -2 62 l-2 50 83 3 82 3 0 -64 c0 -56 -3 -65 -20 -70
-11 -3 -20 -10 -20 -16 0 -7 27 -11 75 -11 74 0 100 13 50 26 l-25 6 0 133 c0
129 1 134 22 137 12 2 23 9 26 16 3 9 -16 12 -72 12 -61 0 -76 -3 -76 -15 0
-8 9 -15 20 -15 18 0 20 -7 20 -55 l0 -55 -85 0 -85 0 0 43 c0 47 7 60 33 70
40 15 14 27 -58 27 -41 0 -75 -4 -75 -8z"/>
<path d="M3426 1497 c2 -7 14 -17 27 -22 33 -15 106 -160 107 -213 0 -36 -4
-44 -25 -54 -44 -20 -27 -28 55 -28 78 0 106 13 55 26 -23 6 -25 11 -25 59 0
44 7 66 46 134 33 57 53 83 70 87 45 12 24 24 -41 24 -52 0 -65 -3 -65 -16 0
-8 4 -13 8 -10 4 2 14 1 21 -3 9 -6 4 -23 -22 -71 l-35 -63 -31 61 c-36 71
-36 72 -16 72 8 0 15 7 15 15 0 12 -15 15 -75 15 -56 0 -73 -3 -69 -13z"/>
<path d="M4100 1500 c0 -6 11 -15 25 -20 25 -9 25 -10 25 -135 0 -124 0 -126
-25 -137 -43 -19 -28 -28 50 -28 60 0 75 3 75 15 0 8 -8 15 -19 15 -25 0 -27
14 -23 152 3 104 6 117 23 121 10 3 19 10 19 16 0 7 -27 11 -75 11 -45 0 -75
-4 -75 -10z"/>
<path d="M6200 1499 c0 -6 9 -13 20 -16 19 -5 20 -14 20 -134 0 -128 0 -130
-25 -141 -44 -20 -27 -28 55 -28 78 0 106 13 55 26 l-25 6 0 134 c0 127 1 134
20 134 11 0 20 7 20 15 0 12 -14 15 -70 15 -44 0 -70 -4 -70 -11z"/>
<path d="M6410 1499 c0 -6 9 -13 20 -16 19 -5 20 -14 20 -138 0 -125 -1 -134
-20 -140 -51 -16 -10 -25 115 -25 l135 0 0 40 c0 43 -23 57 -33 20 -4 -17 -14
-20 -71 -20 l-66 0 0 60 0 60 65 0 c58 0 65 2 65 20 0 18 -7 20 -65 20 l-65 0
0 45 0 45 60 0 c53 0 60 -2 60 -20 0 -13 7 -20 20 -20 17 0 20 7 20 40 l0 40
-130 0 c-87 0 -130 -4 -130 -11z"/>
<path d="M6730 1470 c0 -29 4 -40 15 -40 8 0 15 7 15 15 0 18 31 35 64 35 l26
0 0 -130 c0 -129 0 -131 -25 -142 -44 -20 -27 -28 55 -28 78 0 105 12 55 24
l-25 6 0 136 0 135 38 -3 c27 -2 40 -9 47 -25 16 -37 35 -28 35 17 l0 40 -150
0 -150 0 0 -40z"/>
<path d="M7070 1497 c0 -7 10 -17 23 -22 33 -15 106 -160 107 -213 0 -36 -4
-44 -25 -54 -44 -20 -27 -28 55 -28 78 0 106 13 55 26 -23 6 -25 11 -25 58 0
42 8 65 47 134 25 45 52 82 58 82 7 0 18 7 25 15 11 13 4 15 -54 15 -52 0 -66
-3 -66 -15 0 -8 9 -15 20 -15 11 0 20 -2 20 -5 0 -2 -15 -32 -34 -66 l-34 -62
-31 61 c-36 71 -36 72 -16 72 8 0 15 7 15 15 0 12 -14 15 -70 15 -50 0 -70 -4
-70 -13z"/>
</g>
</svg>
